<?xml version="1.0" encoding="utf-8"?>
<!-- Generator: Adobe Illustrator 22.0.1, SVG Export Plug-In . SVG Version: 6.00 Build 0)  -->
<svg version="1.1" xmlns="http://www.w3.org/2000/svg" xmlns:xlink="http://www.w3.org/1999/xlink" x="0px" y="0px"
	 viewBox="0 0 655 562" style="enable-background:new 0 0 655 562;" xml:space="preserve">
<style type="text/css">
	.st0{display:none;}
	.st1{display:inline;fill:#C4D6D3;}
	.st2{display:inline;}
	.st3{display:none;fill:#FD141C;stroke:#003E51;}
	.st4{display:none;fill:#FFFA02;stroke:#003E51;}
	.st5{fill:#FFFA02;stroke:#003E51;}
	.st6{fill:#FFFF6E;stroke:#003E51;stroke-linecap:round;stroke-linejoin:round;stroke-dasharray:6,8;}
	.st7{fill:#6CFFE3;stroke:#003E51;}
	.st8{fill:#B6FFF1;stroke:#003E51;}
	.st9{display:none;fill:#55DFFF;stroke:#003E51;}
	.st10{display:none;fill:#0F38FF;stroke:#003E51;}
	.st11{fill:none;stroke:#003E51;stroke-width:2;stroke-linecap:round;stroke-linejoin:round;stroke-dasharray:3;}
	.st12{display:none;fill:#7F3F06;stroke:#003E51;}
	.st13{fill:#E1FFF9;stroke:#003E51;stroke-linecap:round;stroke-linejoin:round;}
	.st14{fill:none;stroke:#003E51;stroke-linecap:round;stroke-linejoin:round;}
	.st15{fill:#E1FFF9;stroke:#003E51;stroke-width:2;stroke-linecap:round;stroke-linejoin:round;stroke-dasharray:6,8;}
	.st16{display:none;fill:#FC0042;stroke:#003E51;}
	.st17{display:none;fill:#00FFB6;stroke:#003E51;}
	.st18{display:none;fill:#B6FFF1;stroke:#003E51;}
	.st19{display:inline;fill:#6CFFE3;stroke:#003E51;}
	.st20{fill:#05C19D;}
	.st21{display:inline;fill:#FFFF6E;stroke:#003E51;stroke-linecap:round;stroke-linejoin:round;stroke-dasharray:6,8;}
	.st22{display:inline;fill:#E1FFF9;stroke:#003E51;stroke-linecap:round;stroke-linejoin:round;}
	.st23{fill:#008E73;}
	.st24{font-family:'Impact';}
	.st25{font-size:14.6899px;}
	.st26{font-family:'LucidaConsole';}
	.st27{font-size:11.6584px;}
	.st28{display:inline;fill:none;stroke:#003E51;stroke-linecap:round;stroke-linejoin:round;}
	.st29{fill:#55DFFF;stroke:#003E51;}
	.st30{fill:#FD141C;stroke:#003E51;}
	.st31{fill:#E2C5EF;}
	.st32{fill:#B4A5F9;stroke:#003E51;}
	.st33{fill:#8469E8;stroke:#003E51;}
	.st34{fill:#F7E9FF;stroke:#003E51;stroke-linecap:round;stroke-linejoin:round;stroke-dasharray:6,8;}
	.st35{fill:#DFDCF7;stroke:#003E51;}
	.st36{display:inline;fill:#FD141C;stroke:#003E51;}
	.st37{display:inline;fill:#FFFA02;stroke:#003E51;}
	.st38{fill:#FEF8FF;stroke:#003E51;stroke-linecap:round;stroke-linejoin:round;}
	.st39{fill:#FBE3FF;stroke:#003E51;stroke-width:2;stroke-linecap:round;stroke-linejoin:round;stroke-dasharray:6,8;}
	.st40{display:none;fill:#F0E9FF;stroke:#003E51;stroke-linecap:round;stroke-linejoin:round;}
	.st41{fill:#FEF8FF;}
	.st42{fill:#430E75;}
	.st43{font-family:'Montserrat-Bold';}
	.st44{font-size:14.7901px;}
	.st45{fill:#F8EEFF;}
	.st46{font-family:'Montserrat-Light';}
	.st47{font-size:11.738px;}
	.st48{fill:#F0E9FF;stroke:#003E51;stroke-linecap:round;stroke-linejoin:round;}
</style>
<g id="Capa_1" class="st0">
	<rect class="st1" width="655" height="562"/>
	<g class="st2">
		
			<ellipse transform="matrix(0.1602 -0.9871 0.9871 0.1602 84.7644 434.8514)" class="st3" cx="297.9" cy="167.6" rx="9.3" ry="9.3"/>
		<ellipse transform="matrix(0.1602 -0.9871 0.9871 0.1602 66.6527 450.3885)" class="st3" cx="298" cy="186" rx="9.3" ry="9.3"/>
		<circle class="st3" cx="307.2" cy="227.4" r="9.3"/>
		<circle class="st3" cx="307.2" cy="290.2" r="9.3"/>
		<circle class="st3" cx="307.2" cy="248.4" r="9.3"/>
		<circle class="st3" cx="307.2" cy="269.3" r="9.3"/>
		<circle class="st4" cx="287.4" cy="237" r="9.3"/>
		<circle class="st4" cx="287.4" cy="280.9" r="9.3"/>
		<circle class="st4" cx="287.4" cy="258.9" r="9.3"/>
	</g>
	<circle class="st5" cx="296.7" cy="97" r="11.1"/>
	<g>
		<g class="st2">
			<path class="st6" d="M380.6,332.9H270.3c-5.5,0-8-4.9-10-10c-15.7-38.7-9.9-68.3,0-104.8c1.5-5.4,4.5-10,10-10h110.3
				c5.5,0,7.8,5,10,10c13.9,31.9,18.9,63.8,0,104.8C388.3,327.9,386.2,332.9,380.6,332.9z"/>
			<path class="st6" d="M377.1,203.8H276.4c-5.5,0-10-4.5-10-10l11.6-26.6c0-5.5,4.5-10,10-10h79c5.5,0,10,4.5,10,10l10,26.6
				C387.2,199.2,382.6,203.8,377.1,203.8z"/>
			<path class="st6" d="M353.2,152.9h-51.5c-9.1,0-16.5-4.5-16.5-10l16-48c0-5.5,4.5-10,10-10h31.4c5.5,0,10,4.5,10,10l17.2,48
				C369.7,148.5,362.2,152.9,353.2,152.9z"/>
			<path class="st6" d="M328.7,124.4h-3.8c-3.7,0-6.8-2.6-6.8-5.7l1.9-19.3c0-2.8,2.3-5.1,5.1-5.1h3c2.8,0,5.1,2.3,5.1,5.1l1.9,19.3
				C335.5,121.8,332.4,124.4,328.7,124.4z"/>
			<g>
				<path class="st7" d="M289.2,122.9c-3,8.8-4.9,17.6-13.8,14.6c-8.8-3-13.5-12.6-10.5-21.4s12.6-13.5,21.4-10.5
					C295,108.5,292.2,114.1,289.2,122.9z"/>
				<path class="st7" d="M321,92.5l-19.9,2.7c-1.5,0.3-2.7-0.8-3-2.2l-1.4-10.1c-0.3-1.5,0.8-2.7,2.2-3l19.9-2.7
					c1.5-0.3,2.7,0.8,3,2.2l1.4,10.1C323.3,91,322.4,92.4,321,92.5z"/>
			</g>
			<g>
				<path class="st7" d="M365.2,122.2c3,8.8,4.9,17.6,13.8,14.6c8.8-3,13.5-12.6,10.5-21.4S377,102,368.2,104.9
					C359.3,107.9,362.2,113.5,365.2,122.2z"/>
				<path class="st7" d="M333.4,91.8l19.9,2.7c1.5,0.3,2.7-0.8,3-2.2l1.4-10.1c0.3-1.5-0.8-2.7-2.2-3l-19.9-2.7
					c-1.5-0.3-2.7,0.8-3,2.2l-1.4,10.1C331,90.3,332.1,91.7,333.4,91.8z"/>
			</g>
		</g>
		<g class="st2">
			<g>
				<g>
					<path class="st8" d="M370.2,521.7c0,0,5.5,0,8.2,0c1.2,0,3.2-1.4,3.1-3.8c-0.1-2.3-3.9-10-5.9-11.9c-1.9-1.9-4.1-2.3-6.5-2
						C366.3,504.4,368.6,521.7,370.2,521.7z"/>
					<path class="st8" d="M346.6,521.7c0,0-5.3,0-8,0c-1.2,0-3.1-1.4-3-3.5c0.1-2.3,3.8-9.6,5.7-11.4c1.9-1.8,3.8-2.2,6.2-1.9
						C350.2,505.1,348,521.7,346.6,521.7z"/>
					<path class="st8" d="M368.6,521.7c0,0-13.1,0-19.3,0c-1.1,0-1.8-2.3-1.8-4.1s0.1-10.4,2.2-13.2c2-2.8,4.5-4.9,8.8-4.6
						s8,2.3,9.1,5.8C368.7,509.2,370.9,521.7,368.6,521.7z"/>
				</g>
				<path class="st8" d="M352.4,416.6h9.1c3,0,5.5-4.9,5.5-10.8l8.2-60c0-5.5-4.5-10-10-10h-16.5c-5.5,0-10,4.5-10,10l8.2,60
					C346.8,411.7,349.4,416.6,352.4,416.6z"/>
				<path class="st8" d="M354,491.7h5.9c2,0,3.7-3.1,3.7-7l5.4-40.4c0-3.7-3-6.6-6.6-6.6h-10.8c-3.7,0-6.6,3-6.6,6.6l5.4,40.4
					C350.3,488.6,352,491.7,354,491.7z"/>
				<circle class="st9" cx="356.8" cy="416.6" r="8.9"/>
				<circle class="st4" cx="345.6" cy="433.2" r="8.9"/>
				<circle class="st3" cx="370.2" cy="433.2" r="8.9"/>
				<circle class="st3" cx="356.8" cy="496.5" r="8.9"/>
				<circle class="st3" cx="368.9" cy="525.1" r="8.9"/>
				<circle class="st4" cx="349.5" cy="525.1" r="8.9"/>
			</g>
			<circle class="st3" cx="359.8" cy="337.3" r="12.2"/>
			<circle class="st9" cx="386.8" cy="351.9" r="12"/>
		</g>
		<g class="st2">
			<g>
				<g>
					<path class="st8" d="M282.2,521.7c0,0-5.5,0-8.2,0c-1.2,0-3.2-1.4-3.1-3.8c0.1-2.4,3.9-10,5.9-11.9c1.9-1.9,4.1-2.3,6.5-2
						C286,504.4,283.8,521.7,282.2,521.7z"/>
					<path class="st8" d="M305.9,521.7c0,0,5.3,0,8,0c1.2,0,3.1-1.4,3-3.5c-0.1-2.3-3.8-9.6-5.7-11.4c-1.9-1.8-3.8-2.2-6.2-1.9
						C302.2,505.1,304.2,521.7,305.9,521.7z"/>
					<path class="st8" d="M283.8,521.7c0,0,13.1,0,19.3,0c1.1,0,1.8-2.3,1.8-4.1s-0.1-10.4-2.2-13.2c-2-2.8-4.5-4.9-8.8-4.6
						s-8,2.3-9.1,5.8C283.7,509.2,281.4,521.7,283.8,521.7z"/>
				</g>
				<path class="st8" d="M300,416.6h-9c-3,0-5.5-4.9-5.5-10.8l-8.2-60c0-5.5,4.5-10,10-10h16.5c5.5,0,10,4.5,10,10l-8.2,60
					C305.5,411.7,303,416.6,300,416.6z"/>
				<path class="st8" d="M298.4,491.7h-5.9c-2,0-3.7-3.1-3.7-7l-5.4-40.4c0-3.7,3-6.6,6.6-6.6h10.8c3.7,0,6.6,3,6.6,6.6l-5.4,40.4
					C301.9,488.6,300.4,491.7,298.4,491.7z"/>
				<circle class="st9" cx="295.4" cy="416.6" r="8.9"/>
				<circle class="st4" cx="306.7" cy="433.2" r="8.9"/>
				<circle class="st3" cx="282.1" cy="433.2" r="8.9"/>
				<circle class="st3" cx="295.4" cy="495.1" r="8.9"/>
				<circle class="st3" cx="283.6" cy="525.1" r="8.9"/>
				<circle class="st4" cx="302.9" cy="525.1" r="8.9"/>
			</g>
			<circle class="st3" cx="292.6" cy="337.3" r="12.2"/>
			<circle class="st9" cx="265.6" cy="351.9" r="12"/>
		</g>
		<g class="st2">
			<g>
				<circle class="st8" cx="384.4" cy="181.7" r="21.2"/>
				<path class="st8" d="M507.8,312.1l10-11.4c3.7-4.2,3.2-10.5-0.8-14.2l-43-44.6c-4.7-5.1-12-4.6-16.4,1.2l-11.5,15.8
					c-4.2,5.8-3.8,14.7,0.9,20l46.4,34.1C497.7,316.7,504.1,316.2,507.8,312.1z"/>
				<path class="st7" d="M439.4,264.7c4.5-4.6,11.6-17.8,15.7-22.8c3.5-4.3,5.4-10.4,2.3-14.9L420,189.4c-3.1-4.6-10.3-6.6-12-1.4
					c-2.3,6.6-7.7,13.8-11.2,17c-4.2,3.7-4.2,14.9-0.9,19.5c0,0,13.8,21.8,30,36.4C429.8,264.6,435.6,268.7,439.4,264.7z"/>
			</g>
			<ellipse class="st10" cx="458.9" cy="256.7" rx="12" ry="12"/>
			<circle class="st3" cx="491.3" cy="306.8" r="12.2"/>
			<circle class="st4" cx="521.5" cy="291.4" r="12"/>
			<circle class="st3" cx="440.6" cy="283.9" r="12.2"/>
			<circle class="st4" cx="484.4" cy="242" r="12"/>
			<circle class="st3" cx="402.5" cy="195.8" r="12.2"/>
			<circle class="st3" cx="378.1" cy="169.4" r="12.2"/>
		</g>
		<g class="st2">
			<g>
				
					<ellipse transform="matrix(0.3162 -0.9487 0.9487 0.3162 11.7531 376.7066)" class="st8" cx="267.2" cy="180.2" rx="21.2" ry="21.2"/>
				<path class="st8" d="M143.9,310.6l-10-11.4c-3.7-4.2-3.2-10.5,0.8-14.2l43-44.7c4.7-5.1,12-4.6,16.4,1.2l11.5,15.8
					c4.2,5.8,3.8,14.7-0.9,20l-46.4,34.1C153.9,315.2,147.5,314.8,143.9,310.6z"/>
				<path class="st7" d="M212.2,263.3c-4.5-4.6-11.6-17.8-15.7-22.8c-3.5-4.3-5.4-10.4-2.3-14.9l37.4-37.6c3.1-4.6,10.3-6.6,12-1.4
					c2.3,6.6,7.7,13.8,11.2,17c4.2,3.7,4.2,14.9,0.9,19.5c0,0-13.8,21.8-30,36.4C221.8,263,216.1,267.2,212.2,263.3z"/>
			</g>
			<circle class="st9" cx="194.3" cy="298.2" r="13"/>
			<circle class="st3" cx="161.6" cy="353.4" r="13.1"/>
			<circle class="st4" cx="124.8" cy="334.2" r="13"/>
			<circle class="st3" cx="211.5" cy="325" r="13.1"/>
			<circle class="st4" cx="164.8" cy="283.8" r="13"/>
			
				<ellipse transform="matrix(0.3162 -0.9487 0.9487 0.3162 -45.8789 400.9473)" class="st3" cx="255.2" cy="232.3" rx="13.1" ry="13.1"/>
			<circle class="st3" cx="281.5" cy="203.8" r="13.1"/>
			<g>
				<circle class="st4" cx="124.8" cy="477.9" r="13"/>
				<g>
					<path class="st7" d="M147.8,361.5l-40-0.9c-1.9,0-3.4-1.6-3.2-3.5l0.9-40c0-1.9,1.6-3.4,3.5-3.2l40,0.9c1.9,0,3.4,1.6,3.2,3.5
						l-0.9,40C151.3,360.2,149.7,361.7,147.8,361.5z"/>
					<g>
						<line class="st11" x1="145" y1="368.4" x2="130.6" y2="339.9"/>
						<line class="st11" x1="127.1" y1="368.8" x2="130" y2="339.9"/>
						<line class="st11" x1="109.8" y1="371.9" x2="129.3" y2="339.6"/>
						<line class="st11" x1="117" y1="321.3" x2="127.7" y2="336.8"/>
						<line class="st11" x1="145" y1="321.3" x2="130.6" y2="339.9"/>
						<line class="st11" x1="131.3" y1="321.3" x2="130" y2="339.6"/>
						<line class="st11" x1="91.7" y1="331" x2="130" y2="339.9"/>
					</g>
					<circle class="st12" cx="117.7" cy="321.3" r="5.5"/>
					<circle class="st12" cx="131.3" cy="321.3" r="5.5"/>
					<circle class="st12" cx="145" cy="321.3" r="5.5"/>
					<circle class="st12" cx="130" cy="339.9" r="8.9"/>
				</g>
				<g>
					<path class="st8" d="M98.3,333.8L71,354.9c-1.1,0.8-2.4,0.5-3.2-0.4l-5.5-7.2c-0.8-1.1-0.5-2.4,0.4-3.2L90,323
						c1.1-0.8,2.4-0.5,3.2,0.4l5.5,7.2C99.6,331.5,99.3,333,98.3,333.8z"/>
					<g>
						
							<ellipse transform="matrix(0.1895 -0.9819 0.9819 0.1895 -302.6662 390.6303)" class="st12" cx="85.3" cy="378.6" rx="7.4" ry="7.4"/>
						<ellipse class="st12" cx="73" cy="388.4" rx="7.6" ry="7.6"/>
						<ellipse class="st12" cx="60.7" cy="398.2" rx="7.6" ry="7.6"/>
					</g>
				</g>
				<g>
					<g>
						<path class="st8" d="M148,401.8h-8c-1.1,0-2-0.9-2-2l-0.3-32.3c0-1.1,0.9-2,2-2h8c1.1,0,2,0.9,2,2l0.3,32.3
							C150,400.9,149,401.8,148,401.8z"/>
						<ellipse class="st12" cx="143.8" cy="370.5" rx="6.4" ry="6.4"/>
						<ellipse class="st12" cx="143.8" cy="383.4" rx="6.4" ry="6.4"/>
						<ellipse class="st12" cx="143.7" cy="396.3" rx="6.4" ry="6.4"/>
					</g>
					<g>
						<path class="st8" d="M130.6,401.8h-8c-1.1,0-2-0.9-2-2l-0.3-32.3c0-1.1,0.9-2,2-2h8c1.1,0,2,0.9,2,2l0.3,32.3
							C132.7,400.9,131.7,401.8,130.6,401.8z"/>
						<ellipse class="st12" cx="126.6" cy="370.4" rx="6.4" ry="6.4"/>
						<ellipse class="st12" cx="126.5" cy="383.4" rx="6.4" ry="6.4"/>
						<ellipse class="st12" cx="126.4" cy="396.3" rx="6.4" ry="6.4"/>
					</g>
					<g>
						<path class="st8" d="M113.9,401.8h-8c-1.1,0-2-0.9-2-2l-0.3-32.3c0-1.1,0.9-2,2-2h8c1.1,0,2,0.9,2,2l0.3,32.3
							C115.9,400.9,115,401.8,113.9,401.8z"/>
						<ellipse class="st12" cx="109.8" cy="370.4" rx="6.4" ry="6.4"/>
						<ellipse class="st12" cx="109.7" cy="383.4" rx="6.4" ry="6.4"/>
						<ellipse class="st12" cx="109.7" cy="396.3" rx="6.4" ry="6.4"/>
					</g>
				</g>
			</g>
			<g>
				<circle class="st4" cx="552.1" cy="481.9" r="13"/>
				<g>
					<path class="st7" d="M504.6,365.3l40-0.9c1.9,0,3.4-1.6,3.2-3.5l-0.9-40c0-1.9-1.6-3.4-3.5-3.2l-40,0.9c-1.9,0-3.4,1.6-3.2,3.5
						l0.9,40C501.2,363.8,502.8,365.3,504.6,365.3z"/>
					<g>
						<line class="st11" x1="507.6" y1="372.2" x2="521.9" y2="343.6"/>
						<line class="st11" x1="525.4" y1="372.5" x2="522.4" y2="343.6"/>
						<line class="st11" x1="542.7" y1="375.7" x2="523.3" y2="343.4"/>
						<line class="st11" x1="535.6" y1="325" x2="524.9" y2="340.6"/>
						<line class="st11" x1="507.6" y1="325" x2="521.9" y2="343.6"/>
						<line class="st11" x1="521.2" y1="325" x2="522.4" y2="343.4"/>
						<line class="st11" x1="560.7" y1="334.6" x2="522.4" y2="343.6"/>
					</g>
					<circle class="st12" cx="534.9" cy="325" r="5.5"/>
					<circle class="st12" cx="521.2" cy="325" r="5.5"/>
					
						<ellipse transform="matrix(0.3162 -0.9487 0.9487 0.3162 38.7643 703.7822)" class="st12" cx="507.6" cy="325" rx="5.5" ry="5.5"/>
					<circle class="st12" cx="522.4" cy="343.6" r="8.9"/>
				</g>
				<g>
					<path class="st8" d="M554.2,337.5l27.3,21.1c1.1,0.8,2.4,0.5,3.2-0.4l5.5-7.2c0.8-1.1,0.5-2.4-0.4-3.2l-27.3-21.1
						c-1.1-0.8-2.4-0.5-3.2,0.4l-5.5,7.2C553,335.3,553.3,336.8,554.2,337.5z"/>
					<g>
						<ellipse class="st12" cx="591.7" cy="382.7" rx="7.4" ry="7.4"/>
						<ellipse class="st12" cx="604" cy="392.5" rx="7.6" ry="7.6"/>
						<ellipse class="st12" cx="616.3" cy="402.3" rx="7.6" ry="7.6"/>
					</g>
				</g>
				<g>
					<g>
						<path class="st8" d="M504.6,405.5h8c1.1,0,2-0.9,2-2l0.3-32.3c0-1.1-0.9-2-2-2h-8c-1.1,0-2,0.9-2,2l-0.3,32.3
							C502.6,404.5,503.5,405.5,504.6,405.5z"/>
						<ellipse class="st12" cx="508.6" cy="374.1" rx="6.4" ry="6.4"/>
						<ellipse class="st12" cx="508.6" cy="387.1" rx="6.4" ry="6.4"/>
						<ellipse class="st12" cx="508.6" cy="400.1" rx="6.4" ry="6.4"/>
					</g>
					<g>
						<path class="st8" d="M521.9,405.5h8c1.1,0,2-0.9,2-2l0.3-32.3c0-1.1-0.9-2-2-2h-8c-1.1,0-2,0.9-2,2l-0.3,32.3
							C519.9,404.5,520.7,405.5,521.9,405.5z"/>
						<ellipse class="st12" cx="526" cy="374.1" rx="6.4" ry="6.4"/>
						<ellipse class="st12" cx="526" cy="387.1" rx="6.4" ry="6.4"/>
						<ellipse class="st12" cx="526" cy="400.1" rx="6.4" ry="6.4"/>
					</g>
					<g>
						<path class="st8" d="M538.7,405.5h8c1.1,0,2-0.9,2-2l0.3-32.3c0-1.1-0.9-2-2-2h-8c-1.1,0-2,0.9-2,2l-0.3,32.3
							C536.6,404.5,537.6,405.5,538.7,405.5z"/>
						<ellipse class="st12" cx="542.7" cy="374.1" rx="6.4" ry="6.4"/>
						<ellipse class="st12" cx="542.7" cy="387.1" rx="6.4" ry="6.4"/>
						<ellipse class="st12" cx="542.7" cy="400.1" rx="6.4" ry="6.4"/>
					</g>
				</g>
			</g>
			<path class="st13" d="M210.5,354.8h-33.9c-0.9,0-1.8-0.8-1.8-1.8v-30.4c0-0.9,0.8-1.8,1.8-1.8h33.9c0.9,0,1.8,0.8,1.8,1.8v30.3
				C212.3,354,211.5,354.8,210.5,354.8z"/>
			<path class="st13" d="M475.8,353.8h-33.9c-0.9,0-1.8-0.8-1.8-1.8v-30.4c0-0.9,0.8-1.8,1.8-1.8h33.9c0.9,0,1.8,0.8,1.8,1.8V352
				C477.7,353,476.9,353.8,475.8,353.8z"/>
			<line class="st14" x1="175.3" y1="322.9" x2="168.9" y2="316.7"/>
			<line class="st14" x1="475.9" y1="321.3" x2="481.7" y2="315.4"/>
		</g>
		<g class="st2">
			<path class="st15" d="M245.7,94.3H39.1c-0.6,0-1.1-0.4-1.1-0.9V34.7c0-0.5,0.5-0.9,1.1-0.9h206.8c0.6,0,1.1,0.4,1.1,0.9v58.5
				C247,93.8,246.4,94.3,245.7,94.3z"/>
			<path class="st16" d="M136.8,79.6H43.2c-0.6,0-1.1-0.4-1.1-0.9V65.2c0-0.5,0.5-0.9,1.1-0.9h93.6c0.6,0,1.1,0.4,1.1,0.9v13.5
				C138,79,137.4,79.6,136.8,79.6z"/>
			<path class="st17" d="M239.9,79.6h-96.2c-0.6,0-1.1-0.4-1.1-0.9V65.2c0-0.5,0.5-0.9,1.1-0.9h96.2c0.6,0,1.1,0.4,1.1,0.9v13.5
				C241,79,240.5,79.6,239.9,79.6z"/>
			<path class="st18" d="M85.9,48.4H43.2c-0.6,0-1.1-0.4-1.1-0.9v-9.6c0-0.5,0.5-0.9,1.1-0.9h42.7c0.6,0,1.1,0.4,1.1,0.9v9.6
				C87,48,86.5,48.4,85.9,48.4z"/>
			<path class="st18" d="M144.8,48.4H90.9c-0.6,0-1.1-0.4-1.1-0.9v-9.6c0-0.5,0.5-0.9,1.1-0.9h53.9c0.6,0,1.1,0.4,1.1,0.9v9.6
				C146,48,145.4,48.4,144.8,48.4z"/>
			<path class="st18" d="M85.9,62.1H43.2c-0.6,0-1.1-0.4-1.1-0.9v-9.6c0-0.5,0.5-0.9,1.1-0.9h42.7c0.6,0,1.1,0.4,1.1,0.9v9.6
				C87,61.7,86.5,62.1,85.9,62.1z"/>
			<path class="st18" d="M144.8,62.1H90.9c-0.6,0-1.1-0.4-1.1-0.9v-9.6c0-0.5,0.5-0.9,1.1-0.9h53.9c0.6,0,1.1,0.4,1.1,0.9v9.6
				C146,61.7,145.4,62.1,144.8,62.1z"/>
			<path class="st18" d="M239.6,48.4h-89.5c-0.6,0-1.1-0.4-1.1-0.9v-9.6c0-0.5,0.5-0.9,1.1-0.9h89.5c0.6,0,1.1,0.4,1.1,0.9v9.6
				C240.9,48,240.2,48.4,239.6,48.4z"/>
			<path class="st18" d="M239.6,62.1h-89.5c-0.6,0-1.1-0.4-1.1-0.9v-9.6c0-0.5,0.5-0.9,1.1-0.9h89.5c0.6,0,1.1,0.4,1.1,0.9v9.6
				C240.9,61.7,240.2,62.1,239.6,62.1z"/>
		</g>
		<path class="st19" d="M596.7,63.1h-90.6c-0.7,0-1.3-0.4-1.3-0.6V21.8c0-0.4,0.6-0.6,1.3-0.6h90.6c0.7,0,1.3,0.4,1.3,0.6v40.5
			C598,62.9,597.4,63.1,596.7,63.1z"/>
		<g class="st2">
			<path class="st20" d="M529.1,34.7c-0.2-2.4-1.5-4.5-5.2-4.3c-2.8,0.2-4.1,3-4.1,4.9c0,1.7,1.1,4.5,4.9,8.8c1.7,1.7,2.2,3.2,2.2,5
				c0,0.9-1.1,2.6-2.2,2.6s-1.3-1.7-1.3-2.6c0-1.1,0.6-2.6-0.4-3c-1.9-0.6-3,0.2-2.6,3.5c0.4,2.6,1.7,4.7,4.9,4.7s4.5-2.8,4.5-6
				s-3.5-6.9-4.9-8.4c-1.3-1.5-2.1-3-2.1-4.5s0.7-2.4,1.7-2.4s1.7,1.7,1.7,2.8c0,1.7,0.6,2.1,1.7,2.1
				C528.9,38,529.3,36.9,529.1,34.7z"/>
			<path class="st20" d="M540.7,30c-0.7,0-1.3,0.7-1.3,1.9c0,1.1,0,7.3,0,9.7c0,5.2,0.9,10.8,1.1,12.3c0.2,0.7,0.7,1.1,1.3,1.1
				s1.5,0,1.3-2.2c-0.2-3-0.7-7.3-0.9-12.3c0-2.1,0.2-8,0-8.8C542.4,30.6,542,30,540.7,30z"/>
			<path class="st20" d="M551.3,29.8c0,0-0.2,1.9,0.9,1.9s3,0,3,0s0.6-0.2,0.6,0.4c0,0.6,0,9.5,0,9.5s0.7,10.5,0.7,11.2
				c0,0.9,0.4,1.7,1.5,1.7c1.3,0,1.1-1.7,1.1-2.4c0-0.6-0.2-16.1-0.2-20.2c0-0.4,0-0.9,1.1-0.9s3-0.2,3.7-0.2c1.1,0,1.1-0.7,1.1-1.5
				c0-0.7,0-1.9-2.2-1.5c-0.9,0-9.1,0.7-10.1,0.7C551.7,28.7,551.3,29.3,551.3,29.8z"/>
			<path class="st20" d="M562.5,32.4c-0.7,0-1.5,0.6-1.5,1.7c0,0.6,0.2,1.3,0.2,1.3s0.2,1.1,2.1,1.1c0.9,0,0.9-1.7,0.9-1.9
				C564.4,33.4,564.6,32.4,562.5,32.4z"/>
			<path class="st20" d="M562.3,38.8c-1.1,0-1.3,0.4-1.3,2.8c0,2.2,0.2,6,0.4,7.1c0,1.7,0.4,2.2,1.7,2.2s1.3-0.9,1.3-2.4
				s-0.4-6.9-0.6-8C563.8,39,563.3,38.8,562.3,38.8z"/>
			<path class="st20" d="M569.6,30.6c-1.9,0-3.5,2.4-3.5,5.2s0.2,11.2,1.5,15.3c0.7,2.2,2.1,3.7,4.5,3.4c1.3,0,3.2-1.7,2.8-5.6
				c0-1.3,0-3-0.7-3.4c-0.7-0.6-2.6,0.4-2.2,2.1c0.4,1.7,0.7,3.4-0.2,4.1c-0.7,0.7-1.3,0.6-1.9-0.4c-0.6-0.9-1.9-11-1.3-15.5
				c0.2-0.9,0.4-1.7,1.1-1.7c0.2,0,1.1,0.2,1.1,1.5c0,1.1,0.9,1.5,1.7,1.3c1.1,0,1.3-0.6,0.7-3.4C573.2,31.3,571.9,30.6,569.6,30.6z
				"/>
			<path class="st20" d="M579.7,30.8c-1.1,0-1.7,0.2-2.8,0.2c-0.7,0-0.9,1.1-0.9,2.6s0.7,16.1,1.3,18.7c0.2,0.7,0.4,1.7,1.9,1.7
				s3.4-0.2,4.1-0.7c0.7-0.4,0.6-1.3,0.4-1.9c-0.2-0.7-0.9-0.9-1.9-0.7c-1.5,0.4-2.1,0-2.2-1.1c-0.2-1.5-0.6-4.7-0.7-5.8
				c0-0.4,0-0.6,1.3-0.7c1.3-0.2,2.1,0,2.1-0.9s0-0.9-0.2-1.9c-0.2-0.7-1.3-0.4-2.8-0.4c-0.4,0-0.6-0.2-0.6-0.9s0-4.5,0.2-4.9
				s0.2-0.6,1.1-0.7c0.9,0,2.1,0.2,2.2-0.6c0.2-0.7,0.2-1.3-0.2-1.7C581.6,30.6,580.4,30.8,579.7,30.8z"/>
			<path class="st20" d="M533.6,33.9c-0.7,0-1.9,0.7-2.4,2.6c-1.1,3-0.9,6-0.9,9c-0.2,3.4,1.1,6.9,4.3,6.9c3.5,0,3.5-6.3,3.5-9.5
				S537.1,33.9,533.6,33.9z M534.9,49.1c-0.9,1.1-1.9,0.2-2.2-0.6c-0.7-3.5-0.2-8.2,0-9.1c0.6-2.6,2.2-2.1,2.6-0.6
				C536.2,41.8,535.8,47.9,534.9,49.1z"/>
			<path class="st20" d="M552.4,36.7c-0.2-2.1-1.3-3.9-4.5-3.7c-2.6,0.2-3.5,2.8-3.5,4.3s1.7,4.9,3.9,7.8c1.3,2.1,3.2,4.3,3.2,7.5
				c0,0.7-0.2,2.1-1.7,2.2c-0.7,0-1.3-0.7-1.1-2.4c0-0.9,0.6-2.2-0.4-2.6c-1.7-0.6-2.8,0.2-2.2,3.2c0.4,2.4,1.5,4.1,4.3,4.1
				c3.4,0,4.1-2.4,4.1-5.2s-2.1-5.4-3.5-7.8c-1.3-1.9-3.7-5.2-3.7-6.5s0.6-2.1,1.5-2.1s1.5,1.5,1.5,2.4c0,1.5,0.6,1.9,1.3,1.9
				C552.4,39.5,552.8,38.6,552.4,36.7z"/>
		</g>
		<circle class="st21" cx="310.2" cy="105.7" r="8.2"/>
		<circle class="st21" cx="343.4" cy="105.7" r="8.2"/>
		<path id="Head_x5F_Button" class="st22" d="M359.5,57.2h-66.7c-0.9,0-1.8-0.8-1.8-1.8V40c0-0.9,0.8-1.8,1.8-1.8h66.7
			c0.9,0,1.8,0.8,1.8,1.8v15.4C361.4,56.4,360.6,57.2,359.5,57.2z"/>
	</g>
	<circle class="st5" cx="330.6" cy="144.9" r="5.9"/>
	<circle class="st5" cx="265.1" cy="144.6" r="5.9"/>
	<circle class="st5" cx="241.2" cy="133.2" r="5.8"/>
	<circle class="st5" cx="355.6" cy="136.6" r="5.9"/>
	<g class="st2">
		<path class="st6" d="M382,334.5H270c-5.6,0-8.1-5-10.2-10.2c-15.9-39.2-10-69.2,0-106.2c1.5-5.4,4.6-10.2,10.2-10.2h112
			c5.6,0,8,5.1,10.2,10.2c14.1,32.3,19.2,64.6,0,106.2C389.8,329.4,387.6,334.5,382,334.5z"/>
		<path class="st6" d="M378.5,203.6H276.3c-5.6,0-10.2-4.6-10.2-10.2l11.9-26.9c0-5.6,4.6-10.2,10.2-10.2h80.1
			c5.6,0,10.2,4.6,10.2,10.2l10.2,26.9C388.7,199,384.1,203.6,378.5,203.6z"/>
		<path class="st6" d="M354.1,152.2h-52.2c-9.2,0-16.8-4.6-16.8-10.2l16.2-48.7c0-5.6,4.6-10.2,10.2-10.2h31.8
			c5.6,0,10.2,4.6,10.2,10.2l17.4,48.7C370.8,147.6,363.3,152.2,354.1,152.2z"/>
		<path class="st6" d="M328.4,123.2h-3.9c-3.8,0-6.9-2.6-6.9-5.8l2-19.6c0-2.9,2.4-5.3,5.4-5.3h3c2.9,0,5.4,2.4,5.4,5.3l2,19.6
			C335.4,120.6,332.2,123.2,328.4,123.2z"/>
		<g>
			<path class="st7" d="M289.2,121.7c-3,8.9-5,17.8-13.9,14.8c-9-3-13.8-12.7-10.8-21.7s12.7-13.8,21.7-10.7
				C295.1,107.1,292.2,112.8,289.2,121.7z"/>
			<path class="st7" d="M316.2,91.7l-9.9,1.4c-4.3,0.6-8.2-2.4-8.8-6.7l0,0c-0.6-4.3,2.4-8.2,6.7-8.8l9.9-1.4
				c4.3-0.6,8.2,2.4,8.8,6.7l0,0C323.5,87.1,320.5,91.1,316.2,91.7z"/>
		</g>
		<g>
			<path class="st7" d="M366.3,121.1c3,8.9,5,17.8,13.9,14.8c9-3,13.8-12.7,10.8-21.7c-3-8.9-12.7-13.8-21.7-10.7
				C360.3,106.5,363.3,112.1,366.3,121.1z"/>
			<path class="st7" d="M338.5,91l10,1.4c4.3,0.6,8.4-2.4,9-6.7l0,0c0.6-4.3-2.4-8.2-6.8-8.8l-10-1.4c-4.3-0.6-8.4,2.4-9,6.7l0,0
				C331.2,86.4,334.2,90.4,338.5,91z"/>
		</g>
	</g>
	<g class="st2">
		<g>
			<g>
				<path class="st8" d="M371.4,525.9c0,0,5.6,0,8.4,0c1.2,0,3.2-1.4,3.1-3.8s-4-10.2-6-12.1s-4.1-2.3-6.5-2
					C367.5,508.4,369.7,525.9,371.4,525.9z"/>
				<path class="st8" d="M347.3,525.9c0,0-5.3,0-8.1,0c-1.2,0-3.1-1.4-3-3.6c0.1-2.3,3.9-9.8,5.7-11.6c1.9-1.8,3.9-2.2,6.3-1.9
					C351.1,509.1,348.9,525.9,347.3,525.9z"/>
				<path class="st8" d="M369.7,525.9c0,0-13.3,0-19.6,0c-1.1,0-1.7-2.3-1.7-4.1s0.2-10.5,2.2-13.4s4.5-4.9,9-4.7
					c4.4,0.2,8.1,2.3,9.2,5.9C369.8,513.2,372.1,525.9,369.7,525.9z"/>
			</g>
			<path class="st8" d="M353.3,419.3h9.2c3.1,0,5.6-4.9,5.6-10.9l8.4-60.8c0-5.6-4.6-10.2-10.2-10.2h-16.8
				c-5.6,0-10.2,4.6-10.2,10.2l8.4,60.8C347.7,414.4,350.2,419.3,353.3,419.3z"/>
			<path class="st8" d="M354.9,495.5h6c2,0,3.7-3.2,3.7-7.1l5.5-41c0-3.7-3-6.7-6.7-6.7h-10.9c-3.7,0-6.7,3-6.7,6.7l5.5,41
				C351.2,492.3,352.9,495.5,354.9,495.5z"/>
			<ellipse class="st9" cx="357.9" cy="419.3" rx="9.1" ry="9"/>
			<ellipse class="st4" cx="346.5" cy="436.1" rx="9.1" ry="9"/>
			<ellipse class="st3" cx="371.4" cy="436.1" rx="9.1" ry="9"/>
			<ellipse class="st3" cx="357.9" cy="500.3" rx="9.1" ry="9"/>
			<ellipse class="st3" cx="370" cy="529.3" rx="9.1" ry="9"/>
			<ellipse class="st4" cx="350.4" cy="529.3" rx="9.1" ry="9"/>
		</g>
		<ellipse class="st3" cx="360.8" cy="339.1" rx="12.4" ry="12.4"/>
		<ellipse class="st9" cx="388.2" cy="353.8" rx="12.2" ry="12.2"/>
	</g>
	<g class="st2">
		<g>
			<g>
				<path class="st8" d="M282,525.9c0,0-5.6,0-8.4,0c-1.2,0-3.2-1.4-3.1-3.8s4-10.2,6-12.1s4.1-2.3,6.5-2
					C285.9,508.4,283.7,525.9,282,525.9z"/>
				<path class="st8" d="M306.1,525.9c0,0,5.3,0,8.1,0c1.2,0,3.1-1.4,3-3.6c-0.1-2.3-3.9-9.8-5.7-11.6c-1.9-1.8-3.9-2.2-6.3-1.9
					C302.3,509.1,304.5,525.9,306.1,525.9z"/>
				<path class="st8" d="M283.7,525.9c0,0,13.3,0,19.6,0c1.1,0,1.7-2.3,1.7-4.1s-0.2-10.5-2.2-13.4s-4.5-4.9-9-4.7
					c-4.4,0.2-8.1,2.3-9.2,5.9C283.6,513.2,281.3,525.9,283.7,525.9z"/>
			</g>
			<path class="st8" d="M300.1,419.3h-9.2c-3.1,0-5.6-4.9-5.6-10.9l-8.4-60.8c0-5.6,4.6-10.2,10.2-10.2h16.8
				c5.6,0,10.2,4.6,10.2,10.2l-8.4,60.8C305.7,414.4,303.2,419.3,300.1,419.3z"/>
			<path class="st8" d="M298.5,495.5h-6c-2,0-3.7-3.2-3.7-7.1l-5.5-41c0-3.7,3-6.7,6.7-6.7h11c3.7,0,6.7,3,6.7,6.7l-5.5,41
				C302.2,492.3,300.5,495.5,298.5,495.5z"/>
			<ellipse class="st9" cx="295.5" cy="419.3" rx="9.1" ry="9"/>
			<ellipse class="st4" cx="306.9" cy="436.1" rx="9.1" ry="9"/>
			<ellipse class="st3" cx="282" cy="436.1" rx="9.1" ry="9"/>
			<ellipse class="st3" cx="295.5" cy="498.9" rx="9.1" ry="9"/>
			<ellipse class="st3" cx="283.4" cy="529.3" rx="9.1" ry="9"/>
			<ellipse class="st4" cx="303" cy="529.3" rx="9.1" ry="9"/>
		</g>
		<ellipse class="st3" cx="292.6" cy="339.1" rx="12.4" ry="12.4"/>
		<ellipse class="st9" cx="265.2" cy="353.8" rx="12.2" ry="12.2"/>
	</g>
	<g class="st2">
		<g>
			<ellipse class="st8" cx="385.8" cy="181.3" rx="21.5" ry="21.5"/>
			<path class="st8" d="M511,313.5l10.2-11.4c3.7-4.2,3.3-10.7-0.9-14.4l-43.6-45.3c-4.8-5.2-12.3-4.7-16.6,1.2l-11.7,16.1
				c-4.3,5.9-3.8,15,1,20.2l47.1,34.5C500.8,318.1,507.3,317.7,511,313.5z"/>
			<path class="st7" d="M441.7,265.5c4.6-4.7,11.8-18.1,16-23.2c3.5-4.4,5.5-10.5,2.3-15.1l-38-38.1c-3.2-4.6-10.4-6.7-12.3-1.4
				c-2.4,6.7-7.8,14-11.4,17.2c-4.2,3.7-4.2,15.1-1,19.7c0,0,14,22.1,30.5,36.9C431.9,265.3,437.8,269.5,441.7,265.5z"/>
		</g>
		<ellipse class="st10" cx="461.4" cy="257.4" rx="12.2" ry="12.2"/>
		<ellipse class="st3" cx="494.3" cy="308" rx="12.4" ry="12.4"/>
		<ellipse class="st4" cx="525" cy="292.4" rx="12.2" ry="12.2"/>
		<ellipse class="st3" cx="442.8" cy="284.9" rx="12.4" ry="12.4"/>
		<ellipse class="st4" cx="487.4" cy="242.5" rx="12.2" ry="12.2"/>
		<ellipse class="st3" cx="404.2" cy="195.6" rx="12.4" ry="12.4"/>
		<ellipse class="st3" cx="379.4" cy="168.9" rx="12.4" ry="12.4"/>
	</g>
	<g class="st2">
		<g>
			<ellipse class="st8" cx="266.9" cy="179.8" rx="21.5" ry="21.5"/>
			<path class="st8" d="M141.7,311.9l-10.2-11.4c-3.7-4.2-3.3-10.7,0.9-14.4l43.6-45.3c4.8-5.2,12.3-4.7,16.6,1.2l11.7,16.1
				c4.3,5.9,3.8,15-1,20.2l-47.1,34.5C151.9,316.5,145.4,316.1,141.7,311.9z"/>
			<path class="st7" d="M211,263.9c-4.6-4.7-11.8-18.1-16-23.2c-3.5-4.4-5.5-10.5-2.3-15.1l38-38.1c3.2-4.6,10.4-6.7,12.3-1.4
				c2.4,6.7,7.8,14,11.4,17.2c4.2,3.7,4.2,15.1,1,19.7c0,0-14,22.1-30.5,36.9C220.8,263.7,214.9,268,211,263.9z"/>
		</g>
		<circle class="st9" cx="-751.1" cy="208.1" r="17.9"/>
		<circle class="st3" cx="-796.1" cy="284.3" r="18.2"/>
		<circle class="st4" cx="-846.9" cy="258" r="17.9"/>
		<circle class="st3" cx="-727.1" cy="245.2" r="18.2"/>
		<circle class="st4" cx="-791.6" cy="188.4" r="17.9"/>
		<circle class="st3" cx="-667.1" cy="117.3" r="18.2"/>
		<circle class="st3" cx="-630.7" cy="78" r="18.2"/>
		<g>
			<circle class="st4" cx="-846.9" cy="456" r="17.9"/>
			<g>
				<path class="st7" d="M133.3,363.3l-15.7-0.4c-8.7-0.2-15.7-7.5-15.5-16.2l0.4-15.6c0.2-8.7,7.5-15.7,16.3-15.5l15.7,0.4
					c8.7,0.2,15.7,7.5,15.5,16.2l-0.4,15.6C149.3,356.6,142,363.5,133.3,363.3z"/>
				<g>
					<line class="st11" x1="142.8" y1="370.6" x2="128.3" y2="341.6"/>
					<line class="st11" x1="124.6" y1="370.9" x2="127.6" y2="341.6"/>
					<line class="st11" x1="107.1" y1="374.2" x2="126.9" y2="341.4"/>
					<line class="st11" x1="114.3" y1="322.7" x2="125.3" y2="338.5"/>
					<line class="st11" x1="142.8" y1="322.7" x2="128.3" y2="341.6"/>
					<line class="st11" x1="128.9" y1="322.7" x2="127.6" y2="341.4"/>
					<line class="st11" x1="88.8" y1="332.6" x2="127.6" y2="341.6"/>
				</g>
				<ellipse class="st12" cx="115" cy="322.7" rx="5.6" ry="5.6"/>
				<ellipse class="st12" cx="128.9" cy="322.7" rx="5.6" ry="5.6"/>
				<ellipse class="st12" cx="142.8" cy="322.7" rx="5.6" ry="5.6"/>
				<ellipse class="st12" cx="127.6" cy="341.6" rx="9.1" ry="9"/>
			</g>
			<g>
				<path class="st8" d="M91.8,336.3L71.3,352c-3,2.3-7.4,1.8-9.8-1.3l0,0c-2.3-3-1.8-7.4,1.3-9.8l20.4-15.7c3-2.3,7.4-1.8,9.8,1.3
					l0,0C95.4,329.5,94.8,333.9,91.8,336.3z"/>
				<g>
					<circle class="st12" cx="-901.6" cy="319.2" r="10.3"/>
					<circle class="st12" cx="-918.4" cy="332.7" r="10.6"/>
					<circle class="st12" cx="-935.3" cy="346.2" r="10.6"/>
				</g>
			</g>
			<g>
				<g>
					<path class="st8" d="M144.1,402.4h-0.7c-3.2,0-5.8-2.6-5.8-5.8l-0.2-25.3c0-3.2,2.6-5.8,5.8-5.8h0.7c3.2,0,5.8,2.6,5.8,5.8
						l0.2,25.3C149.9,399.7,147.3,402.3,144.1,402.4z"/>
					<ellipse class="st12" cx="141.6" cy="372.6" rx="6.4" ry="6.4"/>
					<ellipse class="st12" cx="141.6" cy="385.7" rx="6.4" ry="6.4"/>
					<ellipse class="st12" cx="141.6" cy="398.8" rx="6.4" ry="6.4"/>
				</g>
				<g>
					<path class="st8" d="M125.5,402.4h-0.7c-3.2,0-5.8-2.6-5.8-5.8l-0.2-25.3c0-3.2,2.6-5.8,5.8-5.8h0.7c3.2,0,5.8,2.6,5.8,5.8
						l0.2,25.3C131.3,399.7,128.7,402.3,125.5,402.4z"/>
					<ellipse class="st12" cx="124.1" cy="372.6" rx="6.4" ry="6.4"/>
					<ellipse class="st12" cx="124.1" cy="385.7" rx="6.4" ry="6.4"/>
					<ellipse class="st12" cx="124.1" cy="398.8" rx="6.4" ry="6.4"/>
				</g>
				<g>
					<path class="st18" d="M-874.6,426.4L-874.6,426.4c-4.9,0-9-4-9.1-8.9l-0.2-36.2c0-4.9,4-9,8.9-9.1l0,0c4.9,0,9,4,9.1,8.9
						l0.2,36.2C-865.6,422.3-869.6,426.4-874.6,426.4z"/>
					<circle class="st12" cx="-874.7" cy="379.6" r="9.4"/>
					<circle class="st12" cx="-874.7" cy="399" r="9.4"/>
					<circle class="st12" cx="-874.8" cy="418.3" r="9.4"/>
				</g>
			</g>
		</g>
		<g>
			<circle class="st4" cx="-257.6" cy="461.5" r="17.9"/>
			<g>
				<path class="st7" d="M519.3,367.1l15.7-0.4c8.7-0.2,15.7-7.5,15.5-16.2l-0.4-15.6c-0.2-8.7-7.5-15.7-16.3-15.5l-15.7,0.4
					c-8.7,0.2-15.7,7.5-15.5,16.2l0.4,15.6C503.2,360.3,510.6,367.3,519.3,367.1z"/>
				<g>
					<line class="st11" x1="510.8" y1="374.4" x2="525.3" y2="345.4"/>
					<line class="st11" x1="528.9" y1="374.7" x2="525.9" y2="345.4"/>
					<line class="st11" x1="546.5" y1="377.9" x2="526.7" y2="345.2"/>
					<line class="st11" x1="539.2" y1="326.5" x2="528.3" y2="342.3"/>
					<line class="st11" x1="510.8" y1="326.5" x2="525.3" y2="345.4"/>
					<line class="st11" x1="524.7" y1="326.5" x2="525.9" y2="345.2"/>
					<line class="st11" x1="564.8" y1="336.3" x2="525.9" y2="345.4"/>
				</g>
				<ellipse class="st12" cx="538.5" cy="326.5" rx="5.6" ry="5.6"/>
				<ellipse class="st12" cx="524.7" cy="326.5" rx="5.6" ry="5.6"/>
				
					<ellipse transform="matrix(0.1602 -0.9871 0.9871 0.1602 106.6947 778.4047)" class="st12" cx="510.8" cy="326.5" rx="5.6" ry="5.6"/>
				<ellipse class="st12" cx="525.9" cy="345.4" rx="9.1" ry="9"/>
			</g>
			<g>
				<path class="st8" d="M559.8,340l20.4,15.7c3,2.3,7.4,1.8,9.8-1.3l0,0c2.3-3,1.8-7.4-1.3-9.8L568.3,329c-3-2.3-7.4-1.8-9.8,1.3
					l0,0C556.2,333.3,556.8,337.7,559.8,340z"/>
				<g>
					<circle class="st12" cx="-202.9" cy="324.7" r="10.3"/>
					<circle class="st12" cx="-186" cy="338.2" r="10.6"/>
					<circle class="st12" cx="-169.1" cy="351.7" r="10.6"/>
				</g>
			</g>
			<g>
				<g>
					<path class="st8" d="M506.5,406.1h0.7c3.2,0,5.8-2.6,5.8-5.8l0.2-25.3c0-3.2-2.6-5.8-5.8-5.8h-0.7c-3.2,0-5.8,2.6-5.8,5.8
						l-0.2,25.3C500.7,403.5,503.3,406.1,506.5,406.1z"/>
					<ellipse class="st12" cx="511.9" cy="376.3" rx="6.4" ry="6.4"/>
					
						<ellipse transform="matrix(0.1602 -0.9871 0.9871 0.1602 45.5162 832.4979)" class="st12" cx="512" cy="389.5" rx="6.4" ry="6.4"/>
					
						<ellipse transform="matrix(0.1602 -0.9871 0.9871 0.1602 32.5854 843.4995)" class="st12" cx="512" cy="402.6" rx="6.4" ry="6.4"/>
				</g>
				<g>
					<path class="st8" d="M524,406.1h0.7c3.2,0,5.8-2.6,5.8-5.8l0.2-25.3c0-3.2-2.6-5.8-5.8-5.8h-0.7c-3.2,0-5.8,2.6-5.8,5.8
						l-0.2,25.3C518.3,403.5,520.9,406.1,524,406.1z"/>
					<ellipse class="st12" cx="529.5" cy="376.3" rx="6.4" ry="6.4"/>
					<ellipse class="st12" cx="529.5" cy="389.5" rx="6.4" ry="6.4"/>
					<ellipse class="st12" cx="529.5" cy="402.6" rx="6.4" ry="6.4"/>
				</g>
				<g>
					<path class="st8" d="M541.1,406.1h0.7c3.2,0,5.8-2.6,5.8-5.8l0.2-25.3c0-3.2-2.6-5.8-5.8-5.8h-0.7c-3.2,0-5.8,2.6-5.8,5.8
						l-0.2,25.3C535.3,403.5,537.9,406.1,541.1,406.1z"/>
					<ellipse class="st12" cx="546.5" cy="376.3" rx="6.4" ry="6.4"/>
					<ellipse class="st12" cx="546.5" cy="389.5" rx="6.4" ry="6.4"/>
					<ellipse class="st12" cx="546.5" cy="402.6" rx="6.4" ry="6.4"/>
				</g>
			</g>
		</g>
		<path class="st13" d="M214.4,360H181c-4.4,0-8-3.6-8-8v-21.8c0-4.4,3.6-8,8-8h33.4c4.4,0,8,3.6,8,8V352
			C222.4,356.4,218.8,360,214.4,360z"/>
		<path class="st13" d="M472.4,359.4h-31.9c-4.4,0-8-3.6-8-8v-22.1c0-4.4,3.6-8,8-8h31.9c4.4,0,8,3.6,8,8v22.1
			C480.4,355.8,476.8,359.4,472.4,359.4z"/>
		<line class="st14" x1="173.5" y1="324.4" x2="167.1" y2="318"/>
		<line class="st14" x1="478.7" y1="322.7" x2="484.6" y2="316.8"/>
	</g>
	<g class="st2">
		<path class="st15" d="M241,93.2H43c-2.8,0-5-2.3-5-5V37.5c0-2.8,2.3-5,5-5h198c2.8,0,5,2.3,5,5v50.8C246,91,243.8,93.2,241,93.2z"
			/>
		<path class="st16" d="M132.6,78.4H47.2c-2.8,0-5-2.3-5-5v-5.5c0-2.8,2.3-5,5-5h85.4c2.8,0,5,2.3,5,5v5.5
			C137.6,76.2,135.3,78.4,132.6,78.4z"/>
		<path class="st17" d="M235.1,78.4H147c-2.8,0-5-2.3-5-5v-5.5c0-2.8,2.3-5,5-5h88.1c2.8,0,5,2.3,5,5v5.5
			C240.1,76.2,237.9,78.4,235.1,78.4z"/>
		<path class="st18" d="M81.9,47.2H47.2c-2.8,0-5-2.3-5-5v-1.8c0-2.8,2.3-5,5-5h34.7c2.8,0,5,2.3,5,5v1.8
			C86.9,44.9,84.7,47.2,81.9,47.2z"/>
		<path class="st18" d="M140.6,47.2H94.7c-2.8,0-5-2.3-5-5v-1.8c0-2.8,2.3-5,5-5h45.9c2.8,0,5,2.3,5,5v1.8
			C145.6,44.9,143.3,47.2,140.6,47.2z"/>
		<path class="st18" d="M81.9,60.9H47.2c-2.8,0-5-2.3-5-5v-1.8c0-2.8,2.3-5,5-5h34.7c2.8,0,5,2.3,5,5v1.8
			C86.9,58.7,84.7,60.9,81.9,60.9z"/>
		<path class="st18" d="M140.6,60.9H94.7c-2.8,0-5-2.3-5-5v-1.8c0-2.8,2.3-5,5-5h45.9c2.8,0,5,2.3,5,5v1.8
			C145.6,58.7,143.3,60.9,140.6,60.9z"/>
		<path class="st18" d="M234.9,47.2h-81.3c-2.8,0-5-2.3-5-5v-1.8c0-2.8,2.3-5,5-5h81.3c2.8,0,5,2.3,5,5v1.8
			C239.9,44.9,237.7,47.2,234.9,47.2z"/>
		<path class="st18" d="M234.9,60.9h-81.3c-2.8,0-5-2.3-5-5v-1.8c0-2.8,2.3-5,5-5h81.3c2.8,0,5,2.3,5,5v1.8
			C239.9,58.7,237.7,60.9,234.9,60.9z"/>
	</g>
	<g class="st2">
		<path class="st7" d="M635.9,116.5h-67.8c-2.8,0-5-2.3-5-5V47.9c0-2.8,2.3-5,5-5h67.8c2.8,0,5,2.3,5,5v63.6
			C640.9,114.2,638.6,116.5,635.9,116.5z"/>
		<g>
			<path class="st20" d="M583.4,54c-0.2-1.9-1.3-3.7-4.3-3.5c-2.4,0.2-3.4,2.5-3.4,3.9s1,3.7,4.1,7.2c1.3,1.4,1.9,2.7,1.9,4.2
				c0,0.7-0.9,2.1-1.9,2.1s-1.1-1.3-1.1-2.2s0.5-2.2-0.3-2.4c-1.6-0.5-2.6,0.1-2.2,2.9c0.3,2.2,1.4,3.8,4,3.8s3.8-2.3,3.8-4.9
				s-3-5.6-4.1-6.8s-1.8-2.5-1.8-3.7s0.6-1.9,1.4-1.9c0.8,0,1.4,1.3,1.4,2.3c0,1.3,0.5,1.7,1.3,1.7C583.3,56.7,583.6,55.8,583.4,54z
				"/>
			<path class="st20" d="M593.1,50.1c-0.7,0-1.1,0.6-1.1,1.6s0,5.9,0,7.9c-0.1,4.3,0.8,8.9,1,10c0.1,0.6,0.6,1,1.1,1s1.3,0,1.1-1.8
				c-0.2-2.5-0.7-6-0.8-10.2c0-1.6,0.2-6.6,0-7.3S594.2,50.1,593.1,50.1z"/>
			<path class="st20" d="M602,50c0,0-0.2,1.5,0.8,1.5c0.9,0,2.4,0,2.4,0s0.4-0.1,0.4,0.3s0,7.8,0,7.8s0.6,8.5,0.6,9.3
				s0.2,1.4,1.3,1.4c1,0,0.9-1.4,0.9-2c0-0.5-0.2-13.3-0.2-16.5c0-0.3,0.1-0.7,0.9-0.7s2.5-0.1,3.2-0.1c0.9,0,1-0.6,0.9-1.2
				c-0.1-0.6,0-1.5-1.8-1.3c-0.7,0.1-7.7,0.6-8.4,0.6C602.3,49,602,49.4,602,50z"/>
			<path class="st20" d="M611.4,52.2c-0.7,0-1.3,0.4-1.3,1.4c0,0.4,0.2,1.1,0.2,1.1s0.2,0.9,1.7,0.9c0.7,0,0.7-1.3,0.7-1.6
				C612.8,52.9,613,52.2,611.4,52.2z"/>
			<path class="st20" d="M611.2,57.3c-0.9,0-1.1,0.3-1.1,2.3c0,1.8,0.2,4.8,0.3,5.8c0.1,1.3,0.3,1.8,1.4,1.8c1.1,0,1.1-0.8,1.1-2.1
				c0-1.2-0.3-5.6-0.4-6.6S611.9,57.3,611.2,57.3z"/>
			<path class="st20" d="M617.2,50.5c-1.5,0-2.9,2.1-2.9,4.2c0,2.3,0.2,9.2,1.3,12.5c0.7,1.8,1.7,3,3.8,2.8c1,0,2.6-1.4,2.4-4.6
				c0-1.1,0-2.4-0.6-2.8s-2.2,0.3-1.9,1.7s0.6,2.8-0.1,3.4c-0.7,0.5-1.1,0.4-1.5-0.3c-0.4-0.7-1.6-9-1.1-12.8c0.1-0.8,0.3-1.3,1-1.3
				c0.1,0,0.9,0.1,0.9,1.2c0,0.9,0.7,1.2,1.3,1.1c1-0.1,1-0.5,0.7-2.8C620.2,51.2,619.1,50.5,617.2,50.5z"/>
			<path class="st20" d="M625.6,50.7c-1,0.1-1.4,0.1-2.3,0.2c-0.7,0.1-0.8,0.9-0.8,2.2c0,1.2,0.6,13.2,1.1,15.3
				c0.2,0.6,0.3,1.4,1.5,1.4s2.8-0.2,3.4-0.6c0.6-0.4,0.5-1,0.3-1.6s-0.8-0.7-1.6-0.6c-1.2,0.3-1.7,0-1.8-1
				c-0.2-1.3-0.5-3.8-0.7-4.7c0-0.3,0-0.5,1.1-0.6s1.7-0.1,1.7-0.8s0-0.7-0.2-1.5c-0.1-0.5-1.1-0.4-2.3-0.2c-0.4,0-0.5-0.1-0.5-0.8
				s0-3.6,0.1-3.9s0.2-0.5,1-0.6c0.8,0,1.8,0.1,1.9-0.5s0.2-1-0.1-1.4C627.2,50.7,626.2,50.7,625.6,50.7z"/>
			<path class="st20" d="M587.2,53.3c-0.7,0-1.5,0.7-2,2.1c-0.9,2.4-0.8,4.8-0.8,7.3c-0.1,2.7,1,5.6,3.6,5.6c2.9,0,3-5.2,3-7.8
				S590.2,53.3,587.2,53.3z M588.2,65.8c-0.7,1-1.6,0.2-1.9-0.5c-0.7-2.9-0.2-6.8,0-7.5c0.5-2.1,1.8-1.7,2.1-0.4
				C589.4,59.8,589,64.8,588.2,65.8z"/>
			<path class="st20" d="M602.9,55.6c-0.2-1.7-1.1-3.3-3.8-3.1c-2.1,0.2-3,2.2-3,3.5s1.5,3.9,3.3,6.4c1.1,1.7,2.6,3.6,2.6,6.2
				c0,0.6-0.1,1.7-1.5,1.8c-0.6,0.1-1.1-0.6-1-1.9c0.1-0.8,0.4-1.9-0.3-2.2c-1.4-0.5-2.3,0.1-1.9,2.6c0.3,1.9,1.3,3.4,3.5,3.4
				c2.8,0,3.3-2,3.3-4.3s-1.7-4.5-3-6.4c-1-1.6-3.1-4.3-3.1-5.3s0.5-1.7,1.2-1.7s1.3,1.2,1.3,2.1c0,1.2,0.5,1.5,1.2,1.5
				C602.9,58,603.1,57.2,602.9,55.6z"/>
		</g>
		<path class="st7" d="M636.3,98.2h-67.8c-2.8,0-5-2.3-5-5v-12c0-2.8,2.3-5,5-5h67.8c2.8,0,5,2.3,5,5v12
			C641.3,95.9,639,98.2,636.3,98.2z"/>
		<text transform="matrix(1.0154 0 0 1 580.9473 92.6157)" class="st23 st24 st25">PICKER</text>
		<text transform="matrix(1.0154 0 0 1 579.0342 111.145)" class="st23 st26 st27">SUMMER</text>
	</g>
	<g class="st2">
		<g>
			<path class="st14" d="M249.3,148.6l-1.9-1.9c-3-2.9-7.7-2.9-10.7,0l-125.2,125c-3.4,3.4-3.4,9,0,12.4l0,0"/>
			<line class="st14" x1="181.8" y1="201.6" x2="176.5" y2="196.3"/>
		</g>
		<line class="st14" x1="539" y1="292.4" x2="554.1" y2="277.4"/>
		<path class="st13" d="M214.4,458h-63.9c-4.4,0-8-3.6-8-8v-26.7c0-4.4,3.6-8,8-8h63.9c4.4,0,8,3.6,8,8V450
			C222.4,454.4,218.8,458,214.4,458z"/>
		<path class="st14" d="M248.5,341.6h-8.7c-3.7,0-6.8,3-6.8,6.7v170.8c0,3.7,3,6.7,6.8,6.7h17.9"/>
		<path class="st14" d="M401.7,341.6h8.7c3.7,0,6.8,3,6.8,6.7v170.8c0,3.7-3,6.7-6.8,6.7h-17.9"/>
		<path class="st13" d="M214.4,514.4H98.5c-4.4,0-8-3.6-8-8v-25.9c0-4.4,3.6-8,8-8h115.9c4.4,0,8,3.6,8,8v25.9
			C222.4,510.8,218.8,514.4,214.4,514.4z"/>
		<path class="st14" d="M266.4,535.1h-70.2c-3.6,0-6.5-2.9-6.5-6.5v-13.8"/>
		<path class="st13" d="M492,458h-64c-4.4,0-8-3.6-8-8v-26.7c0-4.4,3.6-8,8-8h64c4.4,0,8,3.6,8,8V450C500,454.4,496.4,458,492,458z"
			/>
		<path class="st13" d="M542.5,511.9H429.7c-4.4,0-8-3.6-8-8v-25.4c0-4.4,3.6-8,8-8h112.8c4.4,0,8,3.6,8,8v25.4
			C550.5,508.3,546.9,511.9,542.5,511.9z"/>
		<path class="st14" d="M380.5,535.1h76.1c3.3,0,6-2.7,6-6v-17.2"/>
		<path class="st14" d="M256.7,484.3V499c0,2.6,2.1,4.6,4.6,4.6h26.4"/>
		<path class="st14" d="M395.3,484.3v13.3c0,2.9-2.4,5.3-5.3,5.3h-23"/>
		<path class="st13" d="M274.6,485.7h-30.8c-4.4,0-8-3.6-8-8v-21.2c0-4.4,3.6-8,8-8h30.8c4.4,0,8,3.6,8,8v21.2
			C282.6,482.1,279,485.7,274.6,485.7z"/>
		<path class="st13" d="M406.5,487.3h-27.7c-4.4,0-8-3.6-8-8v-22.8c0-4.4,3.6-8,8-8h27.7c4.4,0,8,3.6,8,8v22.8
			C414.5,483.7,410.9,487.3,406.5,487.3z"/>
		<line class="st14" x1="233.1" y1="438.4" x2="222.4" y2="438.4"/>
		<line class="st14" x1="417.1" y1="438" x2="420" y2="438"/>
		<path class="st13" d="M563.5,214.3h-64.9c-4.4,0-8-3.6-8-8V182c0-4.4,3.6-8,8-8h64.9c4.4,0,8,3.6,8,8v24.3
			C571.5,210.7,567.9,214.3,563.5,214.3z"/>
		<path class="st13" d="M642.5,302H561c-4.4,0-8-3.6-8-8v-43.5c0-4.4,3.6-8,8-8h81.5c4.4,0,8,3.6,8,8V294
			C650.5,298.4,646.9,302,642.5,302z"/>
		<path class="st14" d="M400.5,146.2l1.9-1.9c3-2.9,7.7-2.9,10.7,0l125.2,125c3.4,3.4,3.4,9,0,12.4l0,0"/>
		<line class="st14" x1="487.4" y1="218.4" x2="492.7" y2="213.1"/>
		<path class="st13" d="M170.7,197.3H110c-4.4,0-8-3.6-8-8v-25c0-4.4,3.6-8,8-8h60.7c4.4,0,8,3.6,8,8v25
			C178.7,193.7,175.1,197.3,170.7,197.3z"/>
		<path class="st13" d="M93.9,279.9H11c-4.4,0-8-3.6-8-8v-44.4c0-4.4,3.6-8,8-8h82.9c4.4,0,8,3.6,8,8v44.4
			C101.9,276.3,98.3,279.9,93.9,279.9z"/>
		<line class="st14" x1="99.2" y1="279.2" x2="114.4" y2="294.4"/>
	</g>
	<ellipse class="st21" cx="310.5" cy="105.8" rx="8.4" ry="8.4"/>
	<ellipse class="st21" cx="344.2" cy="105.8" rx="8.4" ry="8.4"/>
	<path class="st28" d="M258.4,97.4V58.8c0-4.7,3.8-8.4,8.4-8.4h116.6c4.7,0,8.4,3.8,8.4,8.4v42.7"/>
	<path class="st22" d="M354.5,56.6h-55.3c-4.4,0-8-3.6-8-8v-3.3c0-4.4,3.6-8,8-8h55.3c4.4,0,8,3.6,8,8v3.3
		C362.5,53,358.9,56.6,354.5,56.6z"/>
	<circle class="st29" cx="-1377.1" cy="235.2" r="17.9"/>
	<circle class="st30" cx="-1422.1" cy="311.4" r="18.2"/>
	<circle class="st5" cx="-1472.9" cy="285" r="17.9"/>
	<circle class="st30" cx="-1353.1" cy="272.3" r="18.2"/>
	<circle class="st5" cx="-1417.6" cy="215.5" r="17.9"/>
	<circle class="st30" cx="-1293.1" cy="144.4" r="18.2"/>
	<circle class="st30" cx="-1256.7" cy="105.1" r="18.2"/>
	<circle class="st5" cx="-1472.9" cy="483.1" r="17.9"/>
	<g class="st2">
		<path class="st8" d="M110.2,402.4h-0.7c-3.2,0-5.8-2.6-5.8-5.8l-0.2-25.3c0-3.2,2.6-5.8,5.8-5.8h0.7c3.2,0,5.8,2.6,5.8,5.8
			l0.2,25.3C116,399.7,113.4,402.3,110.2,402.4z"/>
		<ellipse class="st12" cx="105.8" cy="372.6" rx="6.4" ry="6.4"/>
		<ellipse class="st12" cx="105.8" cy="385.7" rx="6.4" ry="6.4"/>
		<ellipse class="st12" cx="105.8" cy="398.8" rx="6.4" ry="6.4"/>
	</g>
	<g class="st2">
		<path class="st18" d="M-1500.6,453.5L-1500.6,453.5c-4.9,0-9-4-9.1-8.9l-0.2-36.2c0-4.9,4-9,8.9-9.1l0,0c4.9,0,9,4,9.1,8.9
			l0.2,36.2C-1491.6,449.4-1495.6,453.4-1500.6,453.5z"/>
		<circle class="st12" cx="-1500.7" cy="406.7" r="9.4"/>
		<circle class="st12" cx="-1500.7" cy="426" r="9.4"/>
		<circle class="st12" cx="-1500.8" cy="445.4" r="9.4"/>
	</g>
</g>
<g id="Capa_2">
	<rect class="st31" width="655" height="562"/>
	<g>
		<path class="st32" d="M381.3,334.3h-111c-5.6,0-8-5-10.1-10.3c-15.7-39.5-9.9-69.6,0-106.9c1.5-5.5,4.6-10.3,10.1-10.3h111
			c5.6,0,7.9,5.1,10.1,10.3c14,32.5,19.1,65,0,106.9C389.1,329.1,386.9,334.3,381.3,334.3z"/>
		<path class="st33" d="M377.8,202.5H276.5c-5.6,0-10.1-4.6-10.1-10.3l11.8-27.1c0-5.7,4.6-10.3,10.1-10.3h79.4
			c5.6,0,10.1,4.6,10.1,10.3l10.1,27.1C387.9,197.9,383.4,202.5,377.8,202.5z"/>
		<path class="st32" d="M353.6,150.7h-51.8c-9.2,0-16.6-4.6-16.6-10.3l16.1-49c0-5.7,4.6-10.3,10.1-10.3h31.5
			c5.6,0,10.1,4.6,10.1,10.3l17.2,49C370.3,146.1,362.8,150.7,353.6,150.7z"/>
		<path class="st34" d="M329.1,121.5h-3.8c-3.7,0-6.8-2.6-6.8-5.8l2-19.7c0-2.9,2.4-5.3,5.2-5.3h3c2.9,0,5.2,2.4,5.2,5.3l2,19.7
			C335.8,118.9,332.8,121.5,329.1,121.5z"/>
		<g>
			<path class="st33" d="M289.3,120.1c-3,9-4.9,17.9-13.8,14.9s-13.7-12.8-10.7-21.8c3-9,12.6-13.8,21.5-10.8
				C295.2,105.4,292.3,111,289.3,120.1z"/>
			<path class="st33" d="M316.1,89.8l-9.8,1.4c-4.2,0.6-8.2-2.4-8.8-6.7v0c-0.6-4.3,2.4-8.3,6.6-8.9l9.8-1.4
				c4.2-0.6,8.2,2.4,8.8,6.7v0C323.3,85.2,320.4,89.2,316.1,89.8z"/>
		</g>
		<g>
			<path class="st33" d="M365.7,119.4c3,9,4.9,17.9,13.8,14.9c8.9-3,13.7-12.8,10.7-21.8c-3-9-12.6-13.8-21.5-10.8
				C359.8,104.7,362.8,110.4,365.7,119.4z"/>
			<path class="st33" d="M338.9,89.1l9.8,1.4c4.2,0.6,8.2-2.4,8.8-6.7v0c0.6-4.3-2.4-8.3-6.6-8.9l-9.8-1.4c-4.2-0.6-8.2,2.4-8.8,6.7
				v0C331.7,84.5,334.7,88.5,338.9,89.1z"/>
		</g>
		<path class="st35" d="M299.8,126.8H356c9.9,0,18.1,5,18.1,11.1l-17.4,53.2c0,6.1-4.9,11.1-11,11.1h-34.2c-6,0-11-5-11-11.1
			l-18.7-53.2C281.8,131.8,289.9,126.8,299.8,126.8z"/>
	</g>
	<g class="st0">
		<ellipse class="st30" cx="327.9" cy="144.2" rx="10" ry="10.2"/>
		<ellipse class="st30" cx="327.9" cy="164.5" rx="10" ry="10.2"/>
		<ellipse class="st36" cx="338" cy="210" rx="10" ry="10.2"/>
		<ellipse class="st36" cx="338" cy="279.1" rx="10" ry="10.2"/>
		<ellipse class="st36" cx="338" cy="233" rx="10" ry="10.2"/>
		<ellipse class="st36" cx="338" cy="256" rx="10" ry="10.2"/>
		<ellipse class="st37" cx="316.6" cy="220.4" rx="10" ry="10.2"/>
		<ellipse class="st37" cx="316.6" cy="268.9" rx="10" ry="10.2"/>
		<ellipse class="st37" cx="316.6" cy="244.7" rx="10" ry="10.2"/>
	</g>
	<g>
		<g>
			<g>
				<path class="st33" d="M282.2,474c0,0-5.5,0-8.3,0c-1.2,0-3.2-1.4-3.1-3.8c0.1-2.4,4-10.2,5.9-12.1s4-2.3,6.5-2
					C286.1,456.4,283.9,474,282.2,474z"/>
				<path class="st33" d="M306,474c0,0,5.3,0,8,0c1.2,0,3.1-1.4,2.9-3.7c-0.1-2.3-3.8-9.8-5.7-11.6c-1.9-1.8-3.9-2.2-6.2-1.9
					C302.3,457.1,304.5,474,306,474z"/>
				<path class="st33" d="M283.9,474c0,0,13.2,0,19.5,0c1.1,0,1.7-2.3,1.7-4.1c0-1.8-0.2-10.6-2.2-13.5c-2-2.9-4.5-5-8.9-4.7
					c-4.4,0.2-8,2.3-9.1,5.9C283.8,461.3,281.5,474,283.9,474z"/>
			</g>
			<path class="st33" d="M300.1,390.6H291c-3.1,0-5.6-4.9-5.6-11l-8.3-32.2c0-5.7,4.6-10.3,10.1-10.3h16.6c5.6,0,10.1,4.6,10.1,10.3
				l-8.3,32.2C305.7,385.7,303.2,390.6,300.1,390.6z"/>
			<path class="st32" d="M298.6,446.1h-5.9c-2,0-3.6-3.2-3.6-7.2l-5.4-25c0-3.7,3-6.7,6.6-6.7H301c3.6,0,6.6,3,6.6,6.7l-5.4,25
				C302.2,442.8,300.5,446.1,298.6,446.1z"/>
			<ellipse class="st9" cx="295.6" cy="383.8" rx="9" ry="9.1"/>
			<ellipse class="st4" cx="306.9" cy="402.8" rx="9" ry="9.1"/>
			<ellipse class="st3" cx="282.2" cy="402.8" rx="9" ry="9.1"/>
			<ellipse class="st3" cx="295.6" cy="446.9" rx="9" ry="9.1"/>
			<ellipse class="st3" cx="283.6" cy="477.5" rx="9" ry="9.1"/>
			<ellipse class="st4" cx="303" cy="477.5" rx="9" ry="9.1"/>
		</g>
		<ellipse class="st3" cx="292.7" cy="338.9" rx="12.3" ry="12.5"/>
		<ellipse class="st9" cx="265.5" cy="353.7" rx="12.1" ry="12.3"/>
	</g>
	<g>
		<g>
			<ellipse class="st32" cx="385.1" cy="180.1" rx="21.4" ry="21.7"/>
			<path class="st32" d="M509.3,313.1l10.1-11.5c3.7-4.2,3.3-10.8-0.8-14.5l-43.2-45.6c-4.8-5.3-12.2-4.7-16.4,1.2l-11.6,16.2
				c-4.2,5.9-3.8,15.1,1,20.4l46.7,34.8C499.1,317.7,505.5,317.3,509.3,313.1z"/>
			<path class="st33" d="M440.5,264.8c4.5-4.8,11.7-18.2,15.8-23.3c3.5-4.4,5.4-10.6,2.2-15.2l-37.7-38.4
				c-3.2-4.6-10.3-6.7-12.2-1.4c-2.3,6.8-7.7,14.1-11.3,17.3c-4.2,3.7-4.2,15.2-1,19.8c0,0,13.8,22.3,30.3,37.2
				C430.8,264.6,436.6,268.8,440.5,264.8z"/>
		</g>
		<ellipse class="st10" cx="460" cy="256.6" rx="12.1" ry="12.3"/>
		<ellipse class="st3" cx="492.7" cy="307.6" rx="12.3" ry="12.5"/>
		<ellipse class="st4" cx="523.1" cy="291.9" rx="12.1" ry="12.3"/>
		<ellipse class="st3" cx="441.6" cy="284.3" rx="12.3" ry="12.5"/>
		<ellipse class="st4" cx="485.8" cy="241.6" rx="12.1" ry="12.3"/>
		<ellipse class="st3" cx="403.3" cy="194.4" rx="12.3" ry="12.5"/>
		<ellipse class="st3" cx="378.7" cy="167.5" rx="12.3" ry="12.5"/>
	</g>
	<g>
		<g>
			<ellipse class="st32" cx="267.2" cy="178.5" rx="21.4" ry="21.7"/>
			<path class="st32" d="M143.1,311.5L133,300c-3.7-4.2-3.3-10.8,0.8-14.5l43.2-45.6c4.8-5.3,12.2-4.7,16.4,1.2l11.6,16.2
				c4.2,5.9,3.8,15.1-1,20.4l-46.7,34.8C153.2,316.1,146.8,315.8,143.1,311.5z"/>
			<path class="st33" d="M211.8,263.2c-4.5-4.8-11.7-18.2-15.8-23.3c-3.5-4.4-5.4-10.6-2.2-15.2l37.7-38.4
				c3.2-4.6,10.3-6.7,12.2-1.4c2.3,6.8,7.7,14.1,11.3,17.3c4.2,3.7,4.2,15.2,1,19.8c0,0-13.8,22.3-30.3,37.2
				C221.5,263,215.7,267.3,211.8,263.2z"/>
		</g>
		<ellipse class="st9" cx="192.3" cy="255.1" rx="12.1" ry="12.3"/>
		<ellipse class="st3" cx="161.9" cy="307.3" rx="12.3" ry="12.5"/>
		<ellipse class="st4" cx="127.5" cy="289.2" rx="12.1" ry="12.3"/>
		<ellipse class="st3" cx="208.5" cy="280.5" rx="12.3" ry="12.5"/>
		<ellipse class="st4" cx="164.9" cy="241.6" rx="12.1" ry="12.3"/>
		<ellipse class="st3" cx="249" cy="192.9" rx="12.3" ry="12.5"/>
		<ellipse class="st3" cx="273.6" cy="166" rx="12.3" ry="12.5"/>
		<g>
			<ellipse class="st4" cx="127.5" cy="424.9" rx="12.1" ry="12.3"/>
			<g>
				<path class="st32" d="M136.8,363.3l-19.7-0.5c-7.5-0.2-13.5-6.4-13.3-13.9l0.5-20.5c0.2-7.5,6.5-13.4,14-13.3l19.7,0.5
					c7.5,0.2,13.5,6.4,13.3,13.9l-0.5,20.5C150.6,357.6,144.3,363.5,136.8,363.3z"/>
				<g>
					<line class="st11" x1="144.2" y1="370.6" x2="129.8" y2="341.4"/>
					<line class="st11" x1="126.2" y1="371" x2="129.2" y2="341.4"/>
					<line class="st11" x1="108.7" y1="374.2" x2="128.4" y2="341.2"/>
					<line class="st11" x1="116" y1="322.4" x2="126.8" y2="338.3"/>
					<line class="st11" x1="144.2" y1="322.4" x2="129.8" y2="341.4"/>
					<line class="st11" x1="130.4" y1="322.4" x2="129.2" y2="341.2"/>
					<line class="st11" x1="90.6" y1="332.3" x2="129.2" y2="341.4"/>
				</g>
				<ellipse class="st12" cx="116.7" cy="322.4" rx="5.5" ry="5.6"/>
				<ellipse class="st12" cx="130.4" cy="322.4" rx="5.5" ry="5.6"/>
				<ellipse class="st12" cx="144.2" cy="322.4" rx="5.5" ry="5.6"/>
				<ellipse class="st12" cx="129.2" cy="341.4" rx="9" ry="9.1"/>
			</g>
			<g>
				<path class="st38" d="M93.6,338.1l-20.2,15.8c-3,2.4-7.4,1.8-9.7-1.3l0,0c-2.3-3.1-1.8-7.5,1.2-9.8L85.1,327
					c3-2.4,7.4-1.8,9.7,1.3h0C97.1,331.3,96.6,335.7,93.6,338.1z"/>
				<g>
					<ellipse class="st12" cx="90.6" cy="331.2" rx="7" ry="7.1"/>
					<ellipse class="st12" cx="79.2" cy="340.4" rx="7.1" ry="7.2"/>
					<ellipse class="st12" cx="67.8" cy="349.7" rx="7.1" ry="7.2"/>
				</g>
			</g>
			<g>
				<g>
					<path class="st38" d="M143.4,404.6l-0.4,0c-3.2,0-5.9-2.6-5.9-5.8l-0.2-25.4c0-3.2,2.6-5.9,5.8-5.9l0.4,0
						c3.2,0,5.9,2.6,5.9,5.8l0.2,25.4C149.2,401.9,146.6,404.6,143.4,404.6z"/>
					<ellipse class="st12" cx="143" cy="372.6" rx="6.3" ry="6.4"/>
					<ellipse class="st12" cx="143" cy="385.8" rx="6.3" ry="6.4"/>
					<ellipse class="st12" cx="143" cy="399" rx="6.3" ry="6.4"/>
				</g>
				<g>
					<path class="st38" d="M126,404.6l-0.4,0c-3.2,0-5.9-2.6-5.9-5.8l-0.2-25.4c0-3.2,2.6-5.9,5.8-5.9l0.4,0c3.2,0,5.9,2.6,5.9,5.8
						l0.2,25.4C131.8,401.9,129.2,404.6,126,404.6z"/>
					<ellipse class="st12" cx="125.6" cy="372.6" rx="6.3" ry="6.4"/>
					<ellipse class="st12" cx="125.6" cy="385.8" rx="6.3" ry="6.4"/>
					<ellipse class="st12" cx="125.6" cy="399" rx="6.3" ry="6.4"/>
				</g>
				<g>
					<path class="st38" d="M109.1,404.6l-0.4,0c-3.2,0-5.9-2.6-5.9-5.8l-0.2-25.4c0-3.2,2.6-5.9,5.8-5.9l0.4,0
						c3.2,0,5.9,2.6,5.9,5.8l0.2,25.4C114.9,401.9,112.3,404.6,109.1,404.6z"/>
					<ellipse class="st12" cx="108.8" cy="372.6" rx="6.3" ry="6.4"/>
					<ellipse class="st12" cx="108.8" cy="385.8" rx="6.3" ry="6.4"/>
					<ellipse class="st12" cx="108.7" cy="399" rx="6.3" ry="6.4"/>
				</g>
			</g>
		</g>
		<g>
			<ellipse class="st4" cx="525.6" cy="428.7" rx="12.1" ry="12.3"/>
			<g>
				<path class="st32" d="M516.4,367.1l19.7-0.5c7.5-0.2,13.5-6.4,13.3-13.9l-0.5-20.5c-0.2-7.5-6.5-13.4-14-13.3l-19.7,0.5
					c-7.5,0.2-13.5,6.4-13.3,13.9l0.5,20.5C502.5,361.3,508.8,367.3,516.4,367.1z"/>
				<g>
					<line class="st11" x1="509" y1="374.4" x2="523.4" y2="345.2"/>
					<line class="st11" x1="527" y1="374.7" x2="524" y2="345.2"/>
					<line class="st11" x1="544.4" y1="378" x2="524.7" y2="345"/>
					<line class="st11" x1="537.2" y1="326.2" x2="526.4" y2="342.1"/>
					<line class="st11" x1="509" y1="326.2" x2="523.4" y2="345.2"/>
					<line class="st11" x1="522.8" y1="326.2" x2="524" y2="345"/>
					<line class="st11" x1="562.5" y1="336.1" x2="524" y2="345.2"/>
				</g>
				<ellipse class="st12" cx="536.5" cy="326.2" rx="5.5" ry="5.6"/>
				<ellipse class="st12" cx="522.8" cy="326.2" rx="5.5" ry="5.6"/>
				<ellipse class="st12" cx="509" cy="326.2" rx="5.5" ry="5.6"/>
				<ellipse class="st12" cx="524" cy="345.2" rx="9" ry="9.1"/>
			</g>
			<g>
				<path class="st38" d="M559.6,341.9l20.2,15.8c3,2.4,7.4,1.8,9.7-1.3l0,0c2.3-3.1,1.8-7.5-1.2-9.8L568,330.8
					c-3-2.4-7.4-1.8-9.7,1.3l0,0C556,335.1,556.6,339.5,559.6,341.9z"/>
				<g>
					<ellipse class="st12" cx="562.5" cy="335" rx="7" ry="7.1"/>
					<ellipse class="st12" cx="573.9" cy="344.2" rx="7.1" ry="7.2"/>
					<ellipse class="st12" cx="585.4" cy="353.5" rx="7.1" ry="7.2"/>
				</g>
			</g>
			<g>
				<g>
					<path class="st38" d="M509.8,408.4l0.4,0c3.2,0,5.9-2.6,5.9-5.8l0.2-25.4c0-3.2-2.6-5.9-5.8-5.9l-0.4,0c-3.2,0-5.9,2.6-5.9,5.8
						l-0.2,25.4C504,405.7,506.6,408.4,509.8,408.4z"/>
					<ellipse class="st12" cx="510.1" cy="376.4" rx="6.3" ry="6.4"/>
					<ellipse class="st12" cx="510.2" cy="389.6" rx="6.3" ry="6.4"/>
					<ellipse class="st12" cx="510.2" cy="402.8" rx="6.3" ry="6.4"/>
				</g>
				<g>
					<path class="st38" d="M527.2,408.4l0.4,0c3.2,0,5.9-2.6,5.9-5.8l0.2-25.4c0-3.2-2.6-5.9-5.8-5.9l-0.4,0c-3.2,0-5.9,2.6-5.9,5.8
						l-0.2,25.4C521.4,405.7,524,408.4,527.2,408.4z"/>
					<ellipse class="st12" cx="527.5" cy="376.4" rx="6.3" ry="6.4"/>
					<ellipse class="st12" cx="527.5" cy="389.6" rx="6.3" ry="6.4"/>
					<ellipse class="st12" cx="527.6" cy="402.8" rx="6.3" ry="6.4"/>
				</g>
				<g>
					<path class="st38" d="M544.1,408.4l0.4,0c3.2,0,5.9-2.6,5.9-5.8l0.2-25.4c0-3.2-2.6-5.9-5.8-5.9l-0.4,0c-3.2,0-5.9,2.6-5.9,5.8
						l-0.2,25.4C538.2,405.7,540.9,408.4,544.1,408.4z"/>
					<ellipse class="st12" cx="544.4" cy="376.4" rx="6.3" ry="6.4"/>
					<ellipse class="st12" cx="544.4" cy="389.6" rx="6.3" ry="6.4"/>
					<ellipse class="st12" cx="544.4" cy="402.8" rx="6.3" ry="6.4"/>
				</g>
			</g>
		</g>
		<path class="st38" d="M212.8,360h-30.6c-4.4,0-8-3.6-8-8v-22.1c0-4.4,3.6-8,8-8h30.6c4.4,0,8,3.6,8,8V352
			C220.8,356.5,217.2,360,212.8,360z"/>
		<path class="st38" d="M470.9,359.2h-30.4c-4.4,0-8-3.6-8-8v-22.2c0-4.4,3.6-8,8-8h30.4c4.4,0,8,3.6,8,8v22.2
			C478.9,355.6,475.3,359.2,470.9,359.2z"/>
		<line class="st14" x1="174.6" y1="324.1" x2="168.3" y2="317.7"/>
		<line class="st14" x1="477.2" y1="322.4" x2="483.1" y2="316.5"/>
	</g>
	<g>
		<path class="st39" d="M240,95.6H43c-2.8,0-5-2.3-5-5V36.2c0-2.8,2.3-5,5-5h197c2.8,0,5,2.3,5,5v54.4C245,93.3,242.8,95.6,240,95.6
			z"/>
		<path class="st16" d="M132.1,79.9H47.1c-2.8,0-5-2.3-5-5v-6.4c0-2.8,2.3-5,5-5h84.9c2.8,0,5,2.3,5,5v6.4
			C137.1,77.6,134.8,79.9,132.1,79.9z"/>
		<path class="st17" d="M234.2,79.9h-87.7c-2.8,0-5-2.3-5-5v-6.4c0-2.8,2.3-5,5-5h87.7c2.8,0,5,2.3,5,5v6.4
			C239.2,77.6,236.9,79.9,234.2,79.9z"/>
		<path class="st40" d="M81.7,46.8H47.1c-2.8,0-5-2.3-5-5v-2.4c0-2.8,2.3-5,5-5h34.5c2.8,0,5,2.3,5,5v2.4
			C86.7,44.6,84.4,46.8,81.7,46.8z"/>
		<path class="st40" d="M140,46.8H94.4c-2.8,0-5-2.3-5-5v-2.4c0-2.8,2.3-5,5-5H140c2.8,0,5,2.3,5,5v2.4
			C145,44.6,142.8,46.8,140,46.8z"/>
		<path class="st40" d="M81.7,61.4H47.1c-2.8,0-5-2.3-5-5v-2.4c0-2.8,2.3-5,5-5h34.5c2.8,0,5,2.3,5,5v2.4
			C86.7,59.1,84.4,61.4,81.7,61.4z"/>
		<path class="st40" d="M140,61.4H94.4c-2.8,0-5-2.3-5-5v-2.4c0-2.8,2.3-5,5-5H140c2.8,0,5,2.3,5,5v2.4
			C145,59.1,142.8,61.4,140,61.4z"/>
		<path class="st40" d="M234,46.8h-80.9c-2.8,0-5-2.3-5-5v-2.4c0-2.8,2.3-5,5-5H234c2.8,0,5,2.3,5,5v2.4
			C239,44.6,236.7,46.8,234,46.8z"/>
		<path class="st40" d="M234,61.4h-80.9c-2.8,0-5-2.3-5-5v-2.4c0-2.8,2.3-5,5-5H234c2.8,0,5,2.3,5,5v2.4
			C239,59.1,236.7,61.4,234,61.4z"/>
	</g>
	<g>
		<path class="st33" d="M634.6,116.8h-65.7c-2.8,0-5-2.3-5-5V47.7c0-2.8,2.3-5,5-5h65.7c2.8,0,5,2.3,5,5v64.1
			C639.6,114.5,637.4,116.8,634.6,116.8z"/>
		<g>
			<path class="st41" d="M583.6,53.8c-0.2-1.9-1.2-3.7-4.2-3.5c-2.3,0.2-3.3,2.5-3.3,4s1,3.7,4,7.3c1.3,1.4,1.9,2.7,1.8,4.2
				c0,0.7-0.9,2.1-1.9,2.1s-1.1-1.3-1.1-2.2c0-0.9,0.5-2.2-0.3-2.5c-1.5-0.5-2.5,0.1-2.1,2.9c0.3,2.2,1.4,3.8,3.9,3.8
				s3.7-2.3,3.7-4.9c0-2.6-2.9-5.7-4-6.9c-1.1-1.2-1.7-2.5-1.7-3.8c0-1.2,0.6-2,1.4-2s1.4,1.3,1.4,2.3c0,1.4,0.5,1.7,1.3,1.7
				C583.5,56.5,583.8,55.7,583.6,53.8z"/>
			<path class="st41" d="M593.1,49.9c-0.7,0-1,0.6-1,1.6s0,6,0,8c0,4.3,0.8,9,1,10.1c0.1,0.6,0.6,1,1.1,1s1.2,0,1.1-1.8
				c-0.2-2.5-0.7-6.1-0.8-10.3c0-1.7,0.2-6.6,0-7.3C594.4,50.5,594.2,49.9,593.1,49.9z"/>
			<path class="st41" d="M601.7,49.8c0,0-0.2,1.5,0.7,1.5c0.9,0,2.3,0,2.3,0s0.4-0.1,0.4,0.3s0,7.9,0,7.9s0.5,8.6,0.5,9.3
				s0.2,1.4,1.2,1.4c1,0,0.9-1.5,0.9-2s-0.2-13.3-0.2-16.6c0-0.3,0.1-0.7,0.8-0.7s2.4-0.1,3.1-0.1c0.9,0,0.9-0.6,0.9-1.2
				s0-1.5-1.8-1.3c-0.7,0.1-7.5,0.6-8.2,0.6C602,48.8,601.7,49.3,601.7,49.8z"/>
			<path class="st41" d="M610.9,52c-0.7,0-1.2,0.4-1.2,1.4c0,0.4,0.2,1.1,0.2,1.1s0.2,1,1.7,1c0.7,0,0.7-1.3,0.7-1.6
				C612.3,52.7,612.5,52,610.9,52z"/>
			<path class="st41" d="M610.7,57.1c-0.9,0-1.1,0.3-1.1,2.3c0,1.8,0.2,4.9,0.3,5.9c0.1,1.3,0.3,1.8,1.4,1.8c1.1,0,1-0.8,1.1-2.1
				c0-1.3-0.3-5.7-0.4-6.7S611.4,57.1,610.7,57.1z"/>
			<path class="st41" d="M616.6,50.4c-1.5,0-2.9,2.1-2.8,4.3c0,2.4,0.2,9.3,1.3,12.6c0.6,1.8,1.6,3.1,3.7,2.8c1,0,2.5-1.5,2.3-4.7
				c0-1.1,0-2.4-0.6-2.8s-2.1,0.3-1.8,1.7c0.3,1.4,0.6,2.8-0.1,3.4c-0.7,0.5-1.1,0.4-1.5-0.3s-1.5-9.1-1.1-12.9
				c0.1-0.8,0.3-1.4,1-1.4c0.1,0,0.9,0.1,0.8,1.2c0,0.9,0.7,1.2,1.3,1.1c0.9-0.1,1-0.5,0.7-2.8C619.5,51.1,618.4,50.4,616.6,50.4z"
				/>
			<path class="st41" d="M624.7,50.5c-0.9,0.1-1.3,0.1-2.2,0.2c-0.7,0.1-0.7,1-0.8,2.2s0.6,13.3,1.1,15.4c0.2,0.6,0.3,1.4,1.5,1.4
				c1.2,0,2.7-0.2,3.3-0.6c0.6-0.4,0.5-1,0.3-1.6c-0.2-0.6-0.8-0.7-1.6-0.6c-1.2,0.3-1.6,0-1.8-1c-0.2-1.3-0.5-3.8-0.7-4.7
				c0-0.3,0-0.5,1-0.6c1-0.2,1.7-0.1,1.7-0.8s0-0.7-0.2-1.5c-0.1-0.5-1.1-0.4-2.3-0.2c-0.4,0-0.5-0.1-0.5-0.8c0-0.7,0-3.7,0.1-4
				s0.2-0.5,1-0.6c0.8,0,1.7,0.1,1.9-0.5c0.1-0.6,0.2-1-0.1-1.4C626.2,50.5,625.3,50.5,624.7,50.5z"/>
			<path class="st41" d="M587.3,53.2c-0.6,0-1.5,0.7-2,2.1c-0.9,2.4-0.7,4.9-0.8,7.4c-0.1,2.7,0.9,5.6,3.6,5.6
				c2.8,0,2.9-5.2,2.9-7.8C591,57.9,590.3,53.1,587.3,53.2z M588.4,65.8c-0.7,1-1.6,0.2-1.8-0.5c-0.6-2.9-0.2-6.8,0-7.5
				c0.5-2.1,1.8-1.8,2.1-0.4C589.5,59.7,589.1,64.8,588.4,65.8z"/>
			<path class="st41" d="M602.7,55.5c-0.2-1.7-1.1-3.3-3.7-3.1c-2.1,0.2-2.9,2.2-2.9,3.5s1.4,4,3.2,6.4c1.1,1.7,2.5,3.6,2.5,6.2
				c0,0.6-0.1,1.7-1.4,1.8c-0.6,0.1-1.1-0.6-1-1.9c0.1-0.8,0.4-1.9-0.3-2.2c-1.3-0.5-2.2,0.1-1.9,2.6c0.3,1.9,1.2,3.4,3.4,3.4
				c2.7,0,3.3-2.1,3.3-4.4c0-2.3-1.7-4.6-2.9-6.5c-1-1.6-3-4.3-3-5.4c0-1.1,0.5-1.7,1.2-1.7s1.2,1.2,1.2,2.1c0,1.2,0.5,1.5,1.1,1.5
				C602.6,57.9,602.9,57.1,602.7,55.5z"/>
		</g>
		<path class="st38" d="M635,98.3h-65.7c-2.8,0-5-2.3-5-5V81.2c0-2.8,2.3-5,5-5H635c2.8,0,5,2.3,5,5v12.1
			C640,96.1,637.7,98.3,635,98.3z"/>
		<text transform="matrix(0.9814 0 0 1 574.4619 91.7222)" class="st42 st43 st44">PICKER</text>
		<text transform="matrix(0.9814 0 0 1 580.0986 111.3838)" class="st45 st46 st47">WINTER</text>
	</g>
	<g>
		<path class="st14" d="M376.9,495.1h75.5c3.3,0,5.9-2.7,5.9-6"/>
		<g>
			<path class="st14" d="M249.8,147.1l-1.9-1.9c-2.9-3-7.7-3-10.6,0L113.2,271.1c-3.4,3.5-3.4,9.1,0,12.5l0,0"/>
			<line class="st14" x1="182.8" y1="200.4" x2="177.6" y2="195.1"/>
		</g>
		<line class="st14" x1="537" y1="291.9" x2="551.9" y2="276.7"/>
		<path class="st38" d="M214.4,458H150c-4.4,0-8-3.6-8-8v-26.4c0-4.4,3.6-8,8-8h64.4c4.4,0,8,3.6,8,8V450
			C222.4,454.4,218.8,458,214.4,458z"/>
		<path class="st14" d="M249,341.4h-8.6c-3.7,0-6.7,3-6.7,6.8v130.5c0,3.8,3,6.8,6.7,6.8h17.7"/>
		<path class="st14" d="M400.8,341.4h8.6c3.7,0,6.7,3,6.7,6.8v129.3c0,3.8-3,6.8-6.7,6.8h-17.7"/>
		<path class="st38" d="M214.4,513.6H98.5c-4.4,0-8-3.6-8-8v-25.1c0-4.4,3.6-8,8-8h115.9c4.4,0,8,3.6,8,8v25.1
			C222.4,510,218.8,513.6,214.4,513.6z"/>
		<path class="st14" d="M266.7,496.8h-69.6c-3.5,0-6.4-2.9-6.4-6.5v-13.9"/>
		<path class="st38" d="M492,458h-64c-4.4,0-8-3.6-8-8v-28.1c0-4.4,3.6-8,8-8h64c4.4,0,8,3.6,8,8V450C500,454.4,496.4,458,492,458z"
			/>
		<path class="st38" d="M542.7,511.9h-113c-4.4,0-8-3.6-8-8v-25.4c0-4.4,3.6-8,8-8h113c4.4,0,8,3.6,8,8v25.4
			C550.7,508.3,547.1,511.9,542.7,511.9z"/>
		<line class="st14" x1="233.7" y1="438.9" x2="223.1" y2="438.9"/>
		<line class="st14" x1="416.1" y1="438.5" x2="419" y2="438.5"/>
		<path class="st38" d="M563.5,213.3h-64.9c-4.4,0-8-3.6-8-8V182c0-4.4,3.6-8,8-8h64.9c4.4,0,8,3.6,8,8v23.3
			C571.5,209.7,567.9,213.3,563.5,213.3z"/>
		<path class="st38" d="M641.9,300.9h-80.1c-4.4,0-8-3.6-8-8v-41.4c0-4.4,3.6-8,8-8h80.1c4.4,0,8,3.6,8,8v41.4
			C649.9,297.3,646.3,300.9,641.9,300.9z"/>
		<path class="st14" d="M399.6,144.7l1.9-1.9c2.9-3,7.7-3,10.6,0l124.1,125.9c3.4,3.5,3.4,9.1,0,12.5l0,0"/>
		<line class="st14" x1="485.8" y1="217.4" x2="491.1" y2="212"/>
		<path class="st38" d="M171.8,196.1h-64.2c-4.4,0-8-3.6-8-8v-23.8c0-4.4,3.6-8,8-8h64.2c4.4,0,8,3.6,8,8v23.8
			C179.8,192.5,176.2,196.1,171.8,196.1z"/>
		<path class="st38" d="M92.7,278.5H11.5c-4.4,0-8-3.6-8-8v-42.1c0-4.4,3.6-8,8-8h81.2c4.4,0,8,3.6,8,8v42.1
			C100.7,274.9,97.1,278.5,92.7,278.5z"/>
		<line class="st14" x1="100.9" y1="278.6" x2="116.1" y2="293.9"/>
		<line class="st14" x1="283.6" y1="486.6" x2="283.6" y2="527"/>
		<line class="st14" x1="371.2" y1="485.5" x2="371.2" y2="525.9"/>
		<path class="st38" d="M310,541h-34.3c-4.4,0-8-3.6-8-8v-21.6c0-4.4,3.6-8,8-8H310c4.4,0,8,3.6,8,8V533
			C318,537.4,314.4,541,310,541z"/>
		<path class="st38" d="M375.2,541h-32.7c-4.4,0-8-3.6-8-8v-21.6c0-4.4,3.6-8,8-8h32.7c4.4,0,8,3.6,8,8V533
			C383.2,537.4,379.6,541,375.2,541z"/>
	</g>
	<ellipse class="st32" cx="310.5" cy="104" rx="8.3" ry="8.4"/>
	<ellipse class="st32" cx="343.9" cy="104" rx="8.3" ry="8.4"/>
	<ellipse class="st4" cx="326.6" cy="67.8" rx="12.1" ry="12.3"/>
	<g class="st0">
		<ellipse class="st37" cx="292.3" cy="120.2" rx="6.4" ry="6.5"/>
		<ellipse class="st37" cx="265.2" cy="111.1" rx="6.4" ry="6.5"/>
	</g>
	<g class="st0">
		<ellipse class="st37" cx="363.4" cy="120.5" rx="6.4" ry="6.5"/>
		<ellipse class="st37" cx="390.5" cy="111.4" rx="6.4" ry="6.5"/>
	</g>
	<path class="st14" d="M258.8,95.6V56.7c0-4.7,3.7-8.5,8.4-8.5h115.6c4.6,0,8.4,3.8,8.4,8.5v43"/>
	<path class="st48" d="M353.9,54.5h-54.7c-4.4,0-8-3.6-8-8V43c0-4.4,3.6-8,8-8h54.7c4.4,0,8,3.6,8,8v3.5
		C361.9,50.9,358.3,54.5,353.9,54.5z"/>
	<g>
		<g>
			<g>
				<path class="st32" d="M371.8,473c0,0,5.5,0,8.3,0c1.2,0,3.2-1.4,3.1-3.8s-4-10.2-5.9-12.1s-4-2.3-6.5-2
					C367.9,455.4,370.2,473,371.8,473z"/>
				<path class="st32" d="M348,473c0,0-5.3,0-8,0c-1.2,0-3.1-1.4-2.9-3.7c0.1-2.3,3.8-9.8,5.7-11.6c1.9-1.8,3.9-2.2,6.2-1.9
					C351.7,456.1,349.6,473,348,473z"/>
				<path class="st32" d="M370.2,473c0,0-13.2,0-19.5,0c-1.1,0-1.7-2.3-1.7-4.1c0-1.8,0.2-10.6,2.2-13.5c2-2.9,4.5-5,8.9-4.7
					c4.4,0.2,8,2.3,9.1,5.9C370.3,460.2,372.5,473,370.2,473z"/>
			</g>
			<path class="st33" d="M353.9,389.5h9.1c3.1,0,5.6-4.9,5.6-11l8.3-32.2c0-5.7-4.6-10.3-10.1-10.3h-16.6c-5.6,0-10.1,4.6-10.1,10.3
				l8.3,32.2C348.3,384.6,350.8,389.5,353.9,389.5z"/>
			<path class="st32" d="M355.5,445h5.9c2,0,3.6-3.2,3.6-7.2l5.4-25c0-3.7-3-6.7-6.6-6.7H353c-3.6,0-6.6,3-6.6,6.7l5.4,25
				C351.9,441.8,353.5,445,355.5,445z"/>
			<ellipse class="st9" cx="358.4" cy="382.7" rx="9" ry="9.1"/>
			<ellipse class="st4" cx="347.1" cy="401.8" rx="9" ry="9.1"/>
			<ellipse class="st3" cx="371.9" cy="401.8" rx="9" ry="9.1"/>
			<ellipse class="st3" cx="358.4" cy="445.8" rx="9" ry="9.1"/>
			<ellipse class="st3" cx="370.5" cy="476.4" rx="9" ry="9.1"/>
			<ellipse class="st4" cx="351" cy="476.4" rx="9" ry="9.1"/>
		</g>
		<ellipse class="st3" cx="361.3" cy="337.8" rx="12.3" ry="12.5"/>
		<ellipse class="st9" cx="388.5" cy="352.6" rx="12.1" ry="12.3"/>
	</g>
</g>
</svg>
