<?xml version="1.0" encoding="utf-8"?>
<!-- Generator: Adobe Illustrator 22.0.1, SVG Export Plug-In . SVG Version: 6.00 Build 0)  -->
<svg version="1.1" id="Capa_1" xmlns="http://www.w3.org/2000/svg" xmlns:xlink="http://www.w3.org/1999/xlink" x="0px" y="0px"
	 viewBox="0 0 655 562" style="enable-background:new 0 0 655 562;" xml:space="preserve">
<style type="text/css">
	.st0{display:none;fill:#FD141C;stroke:#003E51;}
	.st1{display:none;fill:#FFFA02;stroke:#003E51;}
	.st2{display:none;}
	.st3{display:inline;}
	.st4{fill:#FFFF6E;stroke:#003E51;stroke-linecap:round;stroke-linejoin:round;stroke-dasharray:6,8;}
	.st5{fill:#6CFFE3;stroke:#003E51;}
	.st6{fill:#B6FFF1;stroke:#003E51;}
	.st7{display:none;fill:#55DFFF;stroke:#003E51;}
	.st8{display:none;fill:#0F38FF;stroke:#003E51;}
	.st9{fill:none;stroke:#003E51;stroke-width:2;stroke-linecap:round;stroke-linejoin:round;stroke-dasharray:3;}
	.st10{display:none;fill:#7F3F06;stroke:#003E51;}
	.st11{fill:#E1FFF9;stroke:#003E51;stroke-linecap:round;stroke-linejoin:round;}
	.st12{fill:none;stroke:#003E51;stroke-linecap:round;stroke-linejoin:round;}
	.st13{fill:#E1FFF9;stroke:#003E51;stroke-width:2;stroke-linecap:round;stroke-linejoin:round;stroke-dasharray:6,8;}
	.st14{display:none;fill:#FC0042;stroke:#003E51;}
	.st15{display:none;fill:#00FFB6;stroke:#003E51;}
	.st16{display:none;fill:#B6FFF1;stroke:#003E51;}
	.st17{display:inline;fill:#6CFFE3;stroke:#003E51;}
	.st18{fill:#05C19D;}
	.st19{display:inline;fill:#FFFF6E;stroke:#003E51;stroke-linecap:round;stroke-linejoin:round;stroke-dasharray:6,8;}
	.st20{display:inline;fill:#E1FFF9;stroke:#003E51;stroke-linecap:round;stroke-linejoin:round;}
	.st21{fill:#008E73;}
	.st22{font-family:'Impact';}
	.st23{font-size:14.6899px;}
	.st24{font-family:'LucidaConsole';}
	.st25{font-size:11.6584px;}
</style>
<g>
	<ellipse transform="matrix(0.1602 -0.9871 0.9871 0.1602 84.7619 434.9169)" class="st0" cx="298" cy="167.6" rx="9.3" ry="9.3"/>
	<ellipse transform="matrix(0.1602 -0.9871 0.9871 0.1602 66.5757 450.3658)" class="st0" cx="298" cy="186.1" rx="9.3" ry="9.3"/>
	<circle class="st0" cx="307.2" cy="227.4" r="9.3"/>
	<circle class="st0" cx="307.2" cy="290.2" r="9.3"/>
	<circle class="st0" cx="307.2" cy="248.4" r="9.3"/>
	<circle class="st0" cx="307.2" cy="269.3" r="9.3"/>
	<circle class="st1" cx="287.4" cy="237" r="9.3"/>
	<circle class="st1" cx="287.4" cy="280.9" r="9.3"/>
	<circle class="st1" cx="287.4" cy="258.9" r="9.3"/>
</g>
<circle class="st1" cx="296.7" cy="97" r="11.1"/>
<g class="st2">
	<g class="st3">
		<path class="st4" d="M380.6,332.9H270.3c-5.5,0-8-4.9-10-10c-15.7-38.7-9.9-68.3,0-104.8c1.5-5.4,4.5-10,10-10h110.3
			c5.5,0,7.8,5,10,10c13.9,31.9,18.9,63.8,0,104.8C388.3,327.9,386.2,332.9,380.6,332.9z"/>
		<path class="st4" d="M377.1,203.8H276.4c-5.5,0-10-4.5-10-10l11.6-26.6c0-5.5,4.5-10,10-10h79c5.5,0,10,4.5,10,10l10,26.6
			C387.2,199.2,382.6,203.8,377.1,203.8z"/>
		<path class="st4" d="M353.2,152.9h-51.5c-9.1,0-16.5-4.5-16.5-10l16-48c0-5.5,4.5-10,10-10h31.4c5.5,0,10,4.5,10,10l17.2,48
			C369.7,148.5,362.2,152.9,353.2,152.9z"/>
		<path class="st4" d="M328.7,124.4h-3.8c-3.7,0-6.8-2.6-6.8-5.7l1.9-19.3c0-2.8,2.3-5.1,5.1-5.1h3c2.8,0,5.1,2.3,5.1,5.1l1.9,19.3
			C335.5,121.8,332.4,124.4,328.7,124.4z"/>
		<g>
			<path class="st5" d="M289.2,122.9c-3,8.8-4.9,17.6-13.8,14.6c-8.8-3-13.5-12.6-10.5-21.4s12.6-13.5,21.4-10.5
				C295,108.5,292.2,114.1,289.2,122.9z"/>
			<path class="st5" d="M321,92.5l-19.9,2.7c-1.5,0.3-2.7-0.8-3-2.2l-1.4-10.1c-0.3-1.5,0.8-2.7,2.2-3l19.9-2.7
				c1.5-0.3,2.7,0.8,3,2.2l1.4,10.1C323.3,91,322.4,92.4,321,92.5z"/>
		</g>
		<g>
			<path class="st5" d="M365.2,122.2c3,8.8,4.9,17.6,13.8,14.6c8.8-3,13.5-12.6,10.5-21.4S377,102,368.2,104.9
				C359.3,107.9,362.2,113.5,365.2,122.2z"/>
			<path class="st5" d="M333.4,91.8l19.9,2.7c1.5,0.3,2.7-0.8,3-2.2l1.4-10.1c0.3-1.5-0.8-2.7-2.2-3l-19.9-2.7
				c-1.5-0.3-2.7,0.8-3,2.2l-1.4,10.1C331,90.3,332.1,91.7,333.4,91.8z"/>
		</g>
	</g>
	<g class="st3">
		<g>
			<g>
				<path class="st6" d="M370.2,521.7c0,0,5.5,0,8.2,0c1.2,0,3.2-1.4,3.1-3.8c-0.1-2.3-3.9-10-5.9-11.9c-1.9-1.9-4.1-2.3-6.5-2
					C366.3,504.4,368.6,521.7,370.2,521.7z"/>
				<path class="st6" d="M346.6,521.7c0,0-5.3,0-8,0c-1.2,0-3.1-1.4-3-3.5c0.1-2.3,3.8-9.6,5.7-11.4c1.9-1.8,3.8-2.2,6.2-1.9
					C350.2,505.1,348,521.7,346.6,521.7z"/>
				<path class="st6" d="M368.6,521.7c0,0-13.1,0-19.3,0c-1.1,0-1.8-2.3-1.8-4.1s0.1-10.4,2.2-13.2c2-2.8,4.5-4.9,8.8-4.6
					s8,2.3,9.1,5.8C368.7,509.2,370.9,521.7,368.6,521.7z"/>
			</g>
			<path class="st6" d="M352.4,416.6h9.1c3,0,5.5-4.9,5.5-10.8l8.2-60c0-5.5-4.5-10-10-10h-16.5c-5.5,0-10,4.5-10,10l8.2,60
				C346.8,411.7,349.4,416.6,352.4,416.6z"/>
			<path class="st6" d="M354,491.7h5.9c2,0,3.7-3.1,3.7-7l5.4-40.4c0-3.7-3-6.6-6.6-6.6h-10.8c-3.7,0-6.6,3-6.6,6.6l5.4,40.4
				C350.3,488.6,352,491.7,354,491.7z"/>
			<circle class="st7" cx="356.8" cy="416.6" r="8.9"/>
			<circle class="st1" cx="345.6" cy="433.2" r="8.9"/>
			<circle class="st0" cx="370.2" cy="433.2" r="8.9"/>
			<circle class="st0" cx="356.8" cy="496.5" r="8.9"/>
			<circle class="st0" cx="368.9" cy="525.1" r="8.9"/>
			<circle class="st1" cx="349.5" cy="525.1" r="8.9"/>
		</g>
		<circle class="st0" cx="359.8" cy="337.3" r="12.2"/>
		<circle class="st7" cx="386.8" cy="351.9" r="12"/>
	</g>
	<g class="st3">
		<g>
			<g>
				<path class="st6" d="M282.2,521.7c0,0-5.5,0-8.2,0c-1.2,0-3.2-1.4-3.1-3.8c0.1-2.4,3.9-10,5.9-11.9c1.9-1.9,4.1-2.3,6.5-2
					C286,504.4,283.8,521.7,282.2,521.7z"/>
				<path class="st6" d="M305.9,521.7c0,0,5.3,0,8,0c1.2,0,3.1-1.4,3-3.5c-0.1-2.3-3.8-9.6-5.7-11.4c-1.9-1.8-3.8-2.2-6.2-1.9
					C302.2,505.1,304.2,521.7,305.9,521.7z"/>
				<path class="st6" d="M283.8,521.7c0,0,13.1,0,19.3,0c1.1,0,1.8-2.3,1.8-4.1s-0.1-10.4-2.2-13.2c-2-2.8-4.5-4.9-8.8-4.6
					s-8,2.3-9.1,5.8C283.7,509.2,281.4,521.7,283.8,521.7z"/>
			</g>
			<path class="st6" d="M300,416.6h-9c-3,0-5.5-4.9-5.5-10.8l-8.2-60c0-5.5,4.5-10,10-10h16.5c5.5,0,10,4.5,10,10l-8.2,60
				C305.5,411.7,303,416.6,300,416.6z"/>
			<path class="st6" d="M298.4,491.7h-5.9c-2,0-3.7-3.1-3.7-7l-5.4-40.4c0-3.7,3-6.6,6.6-6.6h10.8c3.7,0,6.6,3,6.6,6.6l-5.4,40.4
				C301.9,488.6,300.4,491.7,298.4,491.7z"/>
			<circle class="st7" cx="295.4" cy="416.6" r="8.9"/>
			<circle class="st1" cx="306.7" cy="433.2" r="8.9"/>
			<circle class="st0" cx="282.1" cy="433.2" r="8.9"/>
			<circle class="st0" cx="295.4" cy="495.1" r="8.9"/>
			<circle class="st0" cx="283.6" cy="525.1" r="8.9"/>
			<circle class="st1" cx="302.9" cy="525.1" r="8.9"/>
		</g>
		<circle class="st0" cx="292.6" cy="337.3" r="12.2"/>
		<circle class="st7" cx="265.6" cy="351.9" r="12"/>
	</g>
	<g class="st3">
		<g>
			<circle class="st6" cx="384.4" cy="181.7" r="21.2"/>
			<path class="st6" d="M507.8,312.1l10-11.4c3.7-4.2,3.2-10.5-0.8-14.2l-43-44.6c-4.7-5.1-12-4.6-16.4,1.2l-11.5,15.8
				c-4.2,5.8-3.8,14.7,0.9,20l46.4,34.1C497.7,316.7,504.1,316.2,507.8,312.1z"/>
			<path class="st5" d="M439.4,264.7c4.5-4.6,11.6-17.8,15.7-22.8c3.5-4.3,5.4-10.4,2.3-14.9L420,189.4c-3.1-4.6-10.3-6.6-12-1.4
				c-2.3,6.6-7.7,13.8-11.2,17c-4.2,3.7-4.2,14.9-0.9,19.5c0,0,13.8,21.8,30,36.4C429.8,264.6,435.6,268.7,439.4,264.7z"/>
		</g>
		<ellipse class="st8" cx="458.9" cy="256.7" rx="12" ry="12"/>
		<circle class="st0" cx="491.3" cy="306.8" r="12.2"/>
		<circle class="st1" cx="521.5" cy="291.4" r="12"/>
		<circle class="st0" cx="440.6" cy="283.9" r="12.2"/>
		<circle class="st1" cx="484.4" cy="242" r="12"/>
		<circle class="st0" cx="402.5" cy="195.8" r="12.2"/>
		<circle class="st0" cx="378.1" cy="169.4" r="12.2"/>
	</g>
	<g class="st3">
		<g>
			
				<ellipse transform="matrix(0.1602 -0.9871 0.9871 0.1602 46.5262 415.085)" class="st6" cx="267.2" cy="180.2" rx="21.2" ry="21.2"/>
			<path class="st6" d="M143.9,310.6l-10-11.4c-3.7-4.2-3.2-10.5,0.8-14.2l43-44.7c4.7-5.1,12-4.6,16.4,1.2l11.5,15.8
				c4.2,5.8,3.8,14.7-0.9,20l-46.4,34.1C153.9,315.2,147.5,314.8,143.9,310.6z"/>
			<path class="st5" d="M212.2,263.3c-4.5-4.6-11.6-17.8-15.7-22.8c-3.5-4.3-5.4-10.4-2.3-14.9l37.4-37.6c3.1-4.6,10.3-6.6,12-1.4
				c2.3,6.6,7.7,13.8,11.2,17c4.2,3.7,4.2,14.9,0.9,19.5c0,0-13.8,21.8-30,36.4C221.8,263,216.1,267.2,212.2,263.3z"/>
		</g>
		<circle class="st7" cx="194.3" cy="298.2" r="13"/>
		<circle class="st0" cx="161.6" cy="353.4" r="13.1"/>
		<circle class="st1" cx="124.8" cy="334.2" r="13"/>
		<circle class="st0" cx="211.5" cy="325" r="13.1"/>
		<circle class="st1" cx="164.8" cy="283.8" r="13"/>
		
			<ellipse transform="matrix(0.1602 -0.9871 0.9871 0.1602 -14.9789 446.9944)" class="st0" cx="255.2" cy="232.3" rx="13.1" ry="13.1"/>
		<circle class="st0" cx="281.5" cy="203.8" r="13.1"/>
		<g>
			<circle class="st1" cx="124.8" cy="477.9" r="13"/>
			<g>
				<path class="st5" d="M147.8,361.5l-40-0.9c-1.9,0-3.4-1.6-3.2-3.5l0.9-40c0-1.9,1.6-3.4,3.5-3.2l40,0.9c1.9,0,3.4,1.6,3.2,3.5
					l-0.9,40C151.3,360.2,149.7,361.7,147.8,361.5z"/>
				<g>
					<line class="st9" x1="145" y1="368.4" x2="130.6" y2="339.9"/>
					<line class="st9" x1="127.1" y1="368.8" x2="130" y2="339.9"/>
					<line class="st9" x1="109.8" y1="371.9" x2="129.3" y2="339.6"/>
					<line class="st9" x1="117" y1="321.3" x2="127.7" y2="336.8"/>
					<line class="st9" x1="145" y1="321.3" x2="130.6" y2="339.9"/>
					<line class="st9" x1="131.3" y1="321.3" x2="130" y2="339.6"/>
					<line class="st9" x1="91.7" y1="331" x2="130" y2="339.9"/>
				</g>
				<circle class="st10" cx="117.7" cy="321.3" r="5.5"/>
				<circle class="st10" cx="131.3" cy="321.3" r="5.5"/>
				<circle class="st10" cx="145" cy="321.3" r="5.5"/>
				<circle class="st10" cx="130" cy="339.9" r="8.9"/>
			</g>
			<g>
				<path class="st6" d="M98.3,333.8L71,354.9c-1.1,0.8-2.4,0.5-3.2-0.4l-5.5-7.2c-0.8-1.1-0.5-2.4,0.4-3.2L90,323
					c1.1-0.8,2.4-0.5,3.2,0.4l5.5,7.2C99.6,331.5,99.3,333,98.3,333.8z"/>
				<g>
					
						<ellipse transform="matrix(0.1895 -0.9819 0.9819 0.1895 -302.7292 390.6395)" class="st10" cx="85.3" cy="378.7" rx="7.4" ry="7.4"/>
					<ellipse class="st10" cx="73" cy="388.4" rx="7.6" ry="7.6"/>
					<ellipse class="st10" cx="60.7" cy="398.2" rx="7.6" ry="7.6"/>
				</g>
			</g>
			<g>
				<g>
					<path class="st6" d="M148,401.8h-8c-1.1,0-2-0.9-2-2l-0.3-32.3c0-1.1,0.9-2,2-2h8c1.1,0,2,0.9,2,2l0.3,32.3
						C150,400.9,149,401.8,148,401.8z"/>
					<ellipse class="st10" cx="143.8" cy="370.5" rx="6.4" ry="6.4"/>
					<ellipse class="st10" cx="143.8" cy="383.4" rx="6.4" ry="6.4"/>
					<ellipse class="st10" cx="143.7" cy="396.3" rx="6.4" ry="6.4"/>
				</g>
				<g>
					<path class="st6" d="M130.6,401.8h-8c-1.1,0-2-0.9-2-2l-0.3-32.3c0-1.1,0.9-2,2-2h8c1.1,0,2,0.9,2,2l0.3,32.3
						C132.7,400.9,131.7,401.8,130.6,401.8z"/>
					<ellipse class="st10" cx="126.6" cy="370.4" rx="6.4" ry="6.4"/>
					<ellipse class="st10" cx="126.5" cy="383.4" rx="6.4" ry="6.4"/>
					<ellipse class="st10" cx="126.4" cy="396.3" rx="6.4" ry="6.4"/>
				</g>
				<g>
					<path class="st6" d="M113.9,401.8h-8c-1.1,0-2-0.9-2-2l-0.3-32.3c0-1.1,0.9-2,2-2h8c1.1,0,2,0.9,2,2l0.3,32.3
						C115.9,400.9,115,401.8,113.9,401.8z"/>
					<ellipse class="st10" cx="109.8" cy="370.4" rx="6.4" ry="6.4"/>
					<ellipse class="st10" cx="109.7" cy="383.4" rx="6.4" ry="6.4"/>
					<ellipse class="st10" cx="109.7" cy="396.3" rx="6.4" ry="6.4"/>
				</g>
			</g>
		</g>
		<g>
			<circle class="st1" cx="552.1" cy="481.9" r="13"/>
			<g>
				<path class="st5" d="M504.6,365.3l40-0.9c1.9,0,3.4-1.6,3.2-3.5l-0.9-40c0-1.9-1.6-3.4-3.5-3.2l-40,0.9c-1.9,0-3.4,1.6-3.2,3.5
					l0.9,40C501.2,363.8,502.8,365.3,504.6,365.3z"/>
				<g>
					<line class="st9" x1="507.6" y1="372.2" x2="521.9" y2="343.6"/>
					<line class="st9" x1="525.4" y1="372.5" x2="522.4" y2="343.6"/>
					<line class="st9" x1="542.7" y1="375.7" x2="523.3" y2="343.4"/>
					<line class="st9" x1="535.6" y1="325" x2="524.9" y2="340.6"/>
					<line class="st9" x1="507.6" y1="325" x2="521.9" y2="343.6"/>
					<line class="st9" x1="521.2" y1="325" x2="522.4" y2="343.4"/>
					<line class="st9" x1="560.7" y1="334.6" x2="522.4" y2="343.6"/>
				</g>
				<circle class="st10" cx="534.9" cy="325" r="5.5"/>
				<circle class="st10" cx="521.2" cy="325" r="5.5"/>
				
					<ellipse transform="matrix(0.1602 -0.9871 0.9871 0.1602 105.488 773.9863)" class="st10" cx="507.6" cy="325" rx="5.5" ry="5.5"/>
				<circle class="st10" cx="522.4" cy="343.6" r="8.9"/>
			</g>
			<g>
				<path class="st6" d="M554.2,337.5l27.3,21.1c1.1,0.8,2.4,0.5,3.2-0.4l5.5-7.2c0.8-1.1,0.5-2.4-0.4-3.2l-27.3-21.1
					c-1.1-0.8-2.4-0.5-3.2,0.4l-5.5,7.2C553,335.3,553.3,336.8,554.2,337.5z"/>
				<g>
					<ellipse class="st10" cx="591.7" cy="382.7" rx="7.4" ry="7.4"/>
					<ellipse class="st10" cx="604" cy="392.5" rx="7.6" ry="7.6"/>
					<ellipse class="st10" cx="616.3" cy="402.3" rx="7.6" ry="7.6"/>
				</g>
			</g>
			<g>
				<g>
					<path class="st6" d="M504.6,405.5h8c1.1,0,2-0.9,2-2l0.3-32.3c0-1.1-0.9-2-2-2h-8c-1.1,0-2,0.9-2,2l-0.3,32.3
						C502.6,404.5,503.5,405.5,504.6,405.5z"/>
					<ellipse class="st10" cx="508.6" cy="374.1" rx="6.4" ry="6.4"/>
					<ellipse class="st10" cx="508.6" cy="387.1" rx="6.4" ry="6.4"/>
					<ellipse class="st10" cx="508.6" cy="400.1" rx="6.4" ry="6.4"/>
				</g>
				<g>
					<path class="st6" d="M521.9,405.5h8c1.1,0,2-0.9,2-2l0.3-32.3c0-1.1-0.9-2-2-2h-8c-1.1,0-2,0.9-2,2l-0.3,32.3
						C519.9,404.5,520.7,405.5,521.9,405.5z"/>
					<ellipse class="st10" cx="526" cy="374.1" rx="6.4" ry="6.4"/>
					<ellipse class="st10" cx="526" cy="387.1" rx="6.4" ry="6.4"/>
					<ellipse class="st10" cx="526" cy="400.1" rx="6.4" ry="6.4"/>
				</g>
				<g>
					<path class="st6" d="M538.7,405.5h8c1.1,0,2-0.9,2-2l0.3-32.3c0-1.1-0.9-2-2-2h-8c-1.1,0-2,0.9-2,2l-0.3,32.3
						C536.6,404.5,537.6,405.5,538.7,405.5z"/>
					<ellipse class="st10" cx="542.7" cy="374.1" rx="6.4" ry="6.4"/>
					<ellipse class="st10" cx="542.7" cy="387.1" rx="6.4" ry="6.4"/>
					<ellipse class="st10" cx="542.7" cy="400.1" rx="6.4" ry="6.4"/>
				</g>
			</g>
		</g>
		<path class="st11" d="M210.5,354.8h-33.9c-0.9,0-1.8-0.8-1.8-1.8v-30.4c0-0.9,0.8-1.8,1.8-1.8h33.9c0.9,0,1.8,0.8,1.8,1.8v30.3
			C212.3,354,211.5,354.8,210.5,354.8z"/>
		<path class="st11" d="M475.8,353.8h-33.9c-0.9,0-1.8-0.8-1.8-1.8v-30.4c0-0.9,0.8-1.8,1.8-1.8h33.9c0.9,0,1.8,0.8,1.8,1.8V352
			C477.7,353,476.9,353.8,475.8,353.8z"/>
		<line class="st12" x1="175.3" y1="322.9" x2="168.9" y2="316.7"/>
		<line class="st12" x1="475.9" y1="321.3" x2="481.7" y2="315.4"/>
	</g>
	<g class="st3">
		<path class="st13" d="M245.7,94.3H39.1c-0.6,0-1.1-0.4-1.1-0.9V34.7c0-0.5,0.5-0.9,1.1-0.9h206.8c0.6,0,1.1,0.4,1.1,0.9v58.5
			C247,93.8,246.4,94.3,245.7,94.3z"/>
		<path class="st14" d="M136.8,79.6H43.2c-0.6,0-1.1-0.4-1.1-0.9V65.2c0-0.5,0.5-0.9,1.1-0.9h93.6c0.6,0,1.1,0.4,1.1,0.9v13.5
			C138,79,137.4,79.6,136.8,79.6z"/>
		<path class="st15" d="M239.9,79.6h-96.2c-0.6,0-1.1-0.4-1.1-0.9V65.2c0-0.5,0.5-0.9,1.1-0.9h96.2c0.6,0,1.1,0.4,1.1,0.9v13.5
			C241,79,240.5,79.6,239.9,79.6z"/>
		<path class="st16" d="M85.9,48.4H43.2c-0.6,0-1.1-0.4-1.1-0.9v-9.6c0-0.5,0.5-0.9,1.1-0.9h42.7c0.6,0,1.1,0.4,1.1,0.9v9.6
			C87,48,86.5,48.4,85.9,48.4z"/>
		<path class="st16" d="M144.8,48.4H90.9c-0.6,0-1.1-0.4-1.1-0.9v-9.6c0-0.5,0.5-0.9,1.1-0.9h53.9c0.6,0,1.1,0.4,1.1,0.9v9.6
			C146,48,145.4,48.4,144.8,48.4z"/>
		<path class="st16" d="M85.9,62.1H43.2c-0.6,0-1.1-0.4-1.1-0.9v-9.6c0-0.5,0.5-0.9,1.1-0.9h42.7c0.6,0,1.1,0.4,1.1,0.9v9.6
			C87,61.7,86.5,62.1,85.9,62.1z"/>
		<path class="st16" d="M144.8,62.1H90.9c-0.6,0-1.1-0.4-1.1-0.9v-9.6c0-0.5,0.5-0.9,1.1-0.9h53.9c0.6,0,1.1,0.4,1.1,0.9v9.6
			C146,61.7,145.4,62.1,144.8,62.1z"/>
		<path class="st16" d="M239.6,48.4h-89.5c-0.6,0-1.1-0.4-1.1-0.9v-9.6c0-0.5,0.5-0.9,1.1-0.9h89.5c0.6,0,1.1,0.4,1.1,0.9v9.6
			C240.9,48,240.2,48.4,239.6,48.4z"/>
		<path class="st16" d="M239.6,62.1h-89.5c-0.6,0-1.1-0.4-1.1-0.9v-9.6c0-0.5,0.5-0.9,1.1-0.9h89.5c0.6,0,1.1,0.4,1.1,0.9v9.6
			C240.9,61.7,240.2,62.1,239.6,62.1z"/>
	</g>
	<path class="st17" d="M596.7,63.1h-90.6c-0.7,0-1.3-0.4-1.3-0.6V21.8c0-0.4,0.6-0.6,1.3-0.6h90.6c0.7,0,1.3,0.4,1.3,0.6v40.5
		C598,62.9,597.4,63.1,596.7,63.1z"/>
	<g class="st3">
		<path class="st18" d="M529.1,34.7c-0.2-2.4-1.5-4.5-5.2-4.3c-2.8,0.2-4.1,3-4.1,4.9c0,1.7,1.1,4.5,4.9,8.8c1.7,1.7,2.2,3.2,2.2,5
			c0,0.9-1.1,2.6-2.2,2.6s-1.3-1.7-1.3-2.6c0-1.1,0.6-2.6-0.4-3c-1.9-0.6-3,0.2-2.6,3.5c0.4,2.6,1.7,4.7,4.9,4.7s4.5-2.8,4.5-6
			s-3.5-6.9-4.9-8.4c-1.3-1.5-2.1-3-2.1-4.5s0.7-2.4,1.7-2.4s1.7,1.7,1.7,2.8c0,1.7,0.6,2.1,1.7,2.1C528.9,38,529.3,36.9,529.1,34.7
			z"/>
		<path class="st18" d="M540.7,30c-0.7,0-1.3,0.7-1.3,1.9c0,1.1,0,7.3,0,9.7c0,5.2,0.9,10.8,1.1,12.3c0.2,0.7,0.7,1.1,1.3,1.1
			s1.5,0,1.3-2.2c-0.2-3-0.7-7.3-0.9-12.3c0-2.1,0.2-8,0-8.8C542.4,30.6,542,30,540.7,30z"/>
		<path class="st18" d="M551.3,29.8c0,0-0.2,1.9,0.9,1.9s3,0,3,0s0.6-0.2,0.6,0.4c0,0.6,0,9.5,0,9.5s0.7,10.5,0.7,11.2
			c0,0.9,0.4,1.7,1.5,1.7c1.3,0,1.1-1.7,1.1-2.4c0-0.6-0.2-16.1-0.2-20.2c0-0.4,0-0.9,1.1-0.9s3-0.2,3.7-0.2c1.1,0,1.1-0.7,1.1-1.5
			c0-0.7,0-1.9-2.2-1.5c-0.9,0-9.1,0.7-10.1,0.7C551.7,28.7,551.3,29.3,551.3,29.8z"/>
		<path class="st18" d="M562.5,32.4c-0.7,0-1.5,0.6-1.5,1.7c0,0.6,0.2,1.3,0.2,1.3s0.2,1.1,2.1,1.1c0.9,0,0.9-1.7,0.9-1.9
			C564.4,33.4,564.6,32.4,562.5,32.4z"/>
		<path class="st18" d="M562.3,38.8c-1.1,0-1.3,0.4-1.3,2.8c0,2.2,0.2,6,0.4,7.1c0,1.7,0.4,2.2,1.7,2.2s1.3-0.9,1.3-2.4
			s-0.4-6.9-0.6-8C563.8,39,563.3,38.8,562.3,38.8z"/>
		<path class="st18" d="M569.6,30.6c-1.9,0-3.5,2.4-3.5,5.2s0.2,11.2,1.5,15.3c0.7,2.2,2.1,3.7,4.5,3.4c1.3,0,3.2-1.7,2.8-5.6
			c0-1.3,0-3-0.7-3.4c-0.7-0.6-2.6,0.4-2.2,2.1c0.4,1.7,0.7,3.4-0.2,4.1c-0.7,0.7-1.3,0.6-1.9-0.4c-0.6-0.9-1.9-11-1.3-15.5
			c0.2-0.9,0.4-1.7,1.1-1.7c0.2,0,1.1,0.2,1.1,1.5c0,1.1,0.9,1.5,1.7,1.3c1.1,0,1.3-0.6,0.7-3.4C573.2,31.3,571.9,30.6,569.6,30.6z"
			/>
		<path class="st18" d="M579.7,30.8c-1.1,0-1.7,0.2-2.8,0.2c-0.7,0-0.9,1.1-0.9,2.6s0.7,16.1,1.3,18.7c0.2,0.7,0.4,1.7,1.9,1.7
			s3.4-0.2,4.1-0.7c0.7-0.4,0.6-1.3,0.4-1.9c-0.2-0.7-0.9-0.9-1.9-0.7c-1.5,0.4-2.1,0-2.2-1.1c-0.2-1.5-0.6-4.7-0.7-5.8
			c0-0.4,0-0.6,1.3-0.7c1.3-0.2,2.1,0,2.1-0.9s0-0.9-0.2-1.9c-0.2-0.7-1.3-0.4-2.8-0.4c-0.4,0-0.6-0.2-0.6-0.9s0-4.5,0.2-4.9
			s0.2-0.6,1.1-0.7c0.9,0,2.1,0.2,2.2-0.6c0.2-0.7,0.2-1.3-0.2-1.7C581.6,30.6,580.4,30.8,579.7,30.8z"/>
		<path class="st18" d="M533.6,33.9c-0.7,0-1.9,0.7-2.4,2.6c-1.1,3-0.9,6-0.9,9c-0.2,3.4,1.1,6.9,4.3,6.9c3.5,0,3.5-6.3,3.5-9.5
			S537.1,33.9,533.6,33.9z M534.9,49.1c-0.9,1.1-1.9,0.2-2.2-0.6c-0.7-3.5-0.2-8.2,0-9.1c0.6-2.6,2.2-2.1,2.6-0.6
			C536.2,41.8,535.8,47.9,534.9,49.1z"/>
		<path class="st18" d="M552.4,36.7c-0.2-2.1-1.3-3.9-4.5-3.7c-2.6,0.2-3.5,2.8-3.5,4.3s1.7,4.9,3.9,7.8c1.3,2.1,3.2,4.3,3.2,7.5
			c0,0.7-0.2,2.1-1.7,2.2c-0.7,0-1.3-0.7-1.1-2.4c0-0.9,0.6-2.2-0.4-2.6c-1.7-0.6-2.8,0.2-2.2,3.2c0.4,2.4,1.5,4.1,4.3,4.1
			c3.4,0,4.1-2.4,4.1-5.2s-2.1-5.4-3.5-7.8c-1.3-1.9-3.7-5.2-3.7-6.5s0.6-2.1,1.5-2.1s1.5,1.5,1.5,2.4c0,1.5,0.6,1.9,1.3,1.9
			C552.4,39.5,552.8,38.6,552.4,36.7z"/>
	</g>
	<circle class="st19" cx="310.2" cy="105.7" r="8.2"/>
	<circle class="st19" cx="343.4" cy="105.7" r="8.2"/>
	<path id="Head_x5F_Button" class="st20" d="M359.5,57.2h-66.7c-0.9,0-1.8-0.8-1.8-1.8V40c0-0.9,0.8-1.8,1.8-1.8h66.7
		c0.9,0,1.8,0.8,1.8,1.8v15.4C361.4,56.4,360.6,57.2,359.5,57.2z"/>
</g>
<circle class="st1" cx="330.6" cy="144.9" r="5.9"/>
<circle class="st1" cx="265.1" cy="144.6" r="5.9"/>
<circle class="st1" cx="241.2" cy="133.2" r="5.8"/>
<circle class="st1" cx="355.6" cy="136.6" r="5.9"/>
<g>
	<path class="st4" d="M382,334.5H270c-5.6,0-8.1-5-10.2-10.2c-15.9-39.2-10-69.2,0-106.2c1.5-5.4,4.6-10.2,10.2-10.2h112
		c5.6,0,8,5.1,10.2,10.2c14.1,32.3,19.2,64.6,0,106.2C389.8,329.4,387.6,334.5,382,334.5z"/>
	<path class="st4" d="M378.5,203.6H276.3c-5.6,0-10.2-4.6-10.2-10.2l11.9-26.9c0-5.6,4.6-10.2,10.2-10.2h80.1
		c5.6,0,10.2,4.6,10.2,10.2l10.2,26.9C388.7,199,384.1,203.6,378.5,203.6z"/>
	<path class="st4" d="M354.1,152.2h-52.2c-9.2,0-16.8-4.6-16.8-10.2l16.2-48.7c0-5.6,4.6-10.2,10.2-10.2h31.8
		c5.6,0,10.2,4.6,10.2,10.2l17.4,48.7C370.8,147.6,363.3,152.2,354.1,152.2z"/>
	<path class="st4" d="M328.4,123.2h-3.9c-3.8,0-6.9-2.6-6.9-5.8l2-19.6c0-2.9,2.4-5.3,5.4-5.3h3c2.9,0,5.4,2.4,5.4,5.3l2,19.6
		C335.4,120.6,332.2,123.2,328.4,123.2z"/>
	<g>
		<path class="st5" d="M289.2,121.7c-3,8.9-5,17.8-13.9,14.8c-9-3-13.8-12.7-10.8-21.7s12.7-13.8,21.7-10.7
			C295.1,107.1,292.2,112.8,289.2,121.7z"/>
		<path class="st5" d="M316.2,91.7l-9.9,1.4c-4.3,0.6-8.2-2.4-8.8-6.7v0c-0.6-4.3,2.4-8.2,6.7-8.8l9.9-1.4c4.3-0.6,8.2,2.4,8.8,6.7
			v0C323.5,87.1,320.5,91.1,316.2,91.7z"/>
	</g>
	<g>
		<path class="st5" d="M366.3,121.1c3,8.9,5,17.8,13.9,14.8c9-3,13.8-12.7,10.8-21.7c-3-8.9-12.7-13.8-21.7-10.7
			C360.3,106.5,363.3,112.1,366.3,121.1z"/>
		<path class="st5" d="M338.5,91l10,1.4c4.3,0.6,8.4-2.4,9-6.7l0,0c0.6-4.3-2.4-8.2-6.8-8.8l-10-1.4c-4.3-0.6-8.4,2.4-9,6.7v0
			C331.2,86.4,334.2,90.4,338.5,91z"/>
	</g>
</g>
<g>
	<g>
		<g>
			<path class="st6" d="M371.4,525.9c0,0,5.6,0,8.4,0c1.2,0,3.2-1.4,3.1-3.8s-4-10.2-6-12.1c-2-1.9-4.1-2.3-6.5-2
				C367.5,508.4,369.7,525.9,371.4,525.9z"/>
			<path class="st6" d="M347.3,525.9c0,0-5.3,0-8.1,0c-1.2,0-3.1-1.4-3-3.6c0.1-2.3,3.9-9.8,5.7-11.6c1.9-1.8,3.9-2.2,6.3-1.9
				C351.1,509.1,348.9,525.9,347.3,525.9z"/>
			<path class="st6" d="M369.7,525.9c0,0-13.3,0-19.6,0c-1.1,0-1.7-2.3-1.7-4.1c0-1.8,0.2-10.5,2.2-13.4c2-2.9,4.5-4.9,9-4.7
				c4.4,0.2,8.1,2.3,9.2,5.9C369.8,513.2,372.1,525.9,369.7,525.9z"/>
		</g>
		<path class="st6" d="M353.3,419.3h9.2c3.1,0,5.6-4.9,5.6-10.9l8.4-60.8c0-5.6-4.6-10.2-10.2-10.2h-16.8c-5.6,0-10.2,4.6-10.2,10.2
			l8.4,60.8C347.7,414.4,350.2,419.3,353.3,419.3z"/>
		<path class="st6" d="M354.9,495.5h6c2,0,3.7-3.2,3.7-7.1l5.5-41c0-3.7-3-6.7-6.7-6.7h-10.9c-3.7,0-6.7,3-6.7,6.7l5.5,41
			C351.2,492.3,352.9,495.5,354.9,495.5z"/>
		<ellipse class="st7" cx="357.9" cy="419.3" rx="9.1" ry="9"/>
		<ellipse class="st1" cx="346.5" cy="436.1" rx="9.1" ry="9"/>
		<ellipse class="st0" cx="371.4" cy="436.1" rx="9.1" ry="9"/>
		<ellipse class="st0" cx="357.9" cy="500.3" rx="9.1" ry="9"/>
		<ellipse class="st0" cx="370" cy="529.3" rx="9.1" ry="9"/>
		<ellipse class="st1" cx="350.4" cy="529.3" rx="9.1" ry="9"/>
	</g>
	<ellipse class="st0" cx="360.8" cy="339.1" rx="12.4" ry="12.4"/>
	<ellipse class="st7" cx="388.2" cy="353.8" rx="12.2" ry="12.2"/>
</g>
<g>
	<g>
		<g>
			<path class="st6" d="M282,525.9c0,0-5.6,0-8.4,0c-1.2,0-3.2-1.4-3.1-3.8s4-10.2,6-12.1c2-1.9,4.1-2.3,6.5-2
				C285.9,508.4,283.7,525.9,282,525.9z"/>
			<path class="st6" d="M306.1,525.9c0,0,5.3,0,8.1,0c1.2,0,3.1-1.4,3-3.6c-0.1-2.3-3.9-9.8-5.7-11.6c-1.9-1.8-3.9-2.2-6.3-1.9
				C302.3,509.1,304.5,525.9,306.1,525.9z"/>
			<path class="st6" d="M283.7,525.9c0,0,13.3,0,19.6,0c1.1,0,1.7-2.3,1.7-4.1c0-1.8-0.2-10.5-2.2-13.4c-2-2.9-4.5-4.9-9-4.7
				c-4.4,0.2-8.1,2.3-9.2,5.9C283.6,513.2,281.3,525.9,283.7,525.9z"/>
		</g>
		<path class="st6" d="M300.1,419.3h-9.2c-3.1,0-5.6-4.9-5.6-10.9l-8.4-60.8c0-5.6,4.6-10.2,10.2-10.2h16.8
			c5.6,0,10.2,4.6,10.2,10.2l-8.4,60.8C305.7,414.4,303.2,419.3,300.1,419.3z"/>
		<path class="st6" d="M298.5,495.5h-6c-2,0-3.7-3.2-3.7-7.1l-5.5-41c0-3.7,3-6.7,6.7-6.7H301c3.7,0,6.7,3,6.7,6.7l-5.5,41
			C302.2,492.3,300.5,495.5,298.5,495.5z"/>
		<ellipse class="st7" cx="295.5" cy="419.3" rx="9.1" ry="9"/>
		<ellipse class="st1" cx="306.9" cy="436.1" rx="9.1" ry="9"/>
		<ellipse class="st0" cx="282" cy="436.1" rx="9.1" ry="9"/>
		<ellipse class="st0" cx="295.5" cy="498.9" rx="9.1" ry="9"/>
		<ellipse class="st0" cx="283.4" cy="529.3" rx="9.1" ry="9"/>
		<ellipse class="st1" cx="303" cy="529.3" rx="9.1" ry="9"/>
	</g>
	<ellipse class="st0" cx="292.6" cy="339.1" rx="12.4" ry="12.4"/>
	<ellipse class="st7" cx="265.2" cy="353.8" rx="12.2" ry="12.2"/>
</g>
<g>
	<g>
		<ellipse class="st6" cx="385.8" cy="181.3" rx="21.5" ry="21.5"/>
		<path class="st6" d="M511,313.5l10.2-11.4c3.7-4.2,3.3-10.7-0.9-14.4l-43.6-45.3c-4.8-5.2-12.3-4.7-16.6,1.2l-11.7,16.1
			c-4.3,5.9-3.8,15,1,20.2l47.1,34.5C500.8,318.1,507.3,317.7,511,313.5z"/>
		<path class="st5" d="M441.7,265.5c4.6-4.7,11.8-18.1,16-23.2c3.5-4.4,5.5-10.5,2.3-15.1l-38-38.1c-3.2-4.6-10.4-6.7-12.3-1.4
			c-2.4,6.7-7.8,14-11.4,17.2c-4.2,3.7-4.2,15.1-1,19.7c0,0,14,22.1,30.5,36.9C431.9,265.3,437.8,269.5,441.7,265.5z"/>
	</g>
	<ellipse class="st8" cx="461.4" cy="257.4" rx="12.2" ry="12.2"/>
	<ellipse class="st0" cx="494.3" cy="308" rx="12.4" ry="12.4"/>
	<ellipse class="st1" cx="525" cy="292.4" rx="12.2" ry="12.2"/>
	<ellipse class="st0" cx="442.8" cy="284.9" rx="12.4" ry="12.4"/>
	<ellipse class="st1" cx="487.4" cy="242.5" rx="12.2" ry="12.2"/>
	<ellipse class="st0" cx="404.2" cy="195.6" rx="12.4" ry="12.4"/>
	<ellipse class="st0" cx="379.4" cy="168.9" rx="12.4" ry="12.4"/>
</g>
<g>
	<g>
		<ellipse class="st6" cx="266.9" cy="179.8" rx="21.5" ry="21.5"/>
		<path class="st6" d="M141.7,311.9l-10.2-11.4c-3.7-4.2-3.3-10.7,0.9-14.4l43.6-45.3c4.8-5.2,12.3-4.7,16.6,1.2l11.7,16.1
			c4.3,5.9,3.8,15-1,20.2l-47.1,34.5C151.9,316.5,145.4,316.1,141.7,311.9z"/>
		<path class="st5" d="M211,263.9c-4.6-4.7-11.8-18.1-16-23.2c-3.5-4.4-5.5-10.5-2.3-15.1l38-38.1c3.2-4.6,10.4-6.7,12.3-1.4
			c2.4,6.7,7.8,14,11.4,17.2c4.2,3.7,4.2,15.1,1,19.7c0,0-14,22.1-30.5,36.9C220.8,263.7,214.9,268,211,263.9z"/>
	</g>
	<circle class="st7" cx="-751.1" cy="208.1" r="17.9"/>
	<circle class="st0" cx="-796.1" cy="284.3" r="18.2"/>
	<circle class="st1" cx="-846.9" cy="258" r="17.9"/>
	<circle class="st0" cx="-727.1" cy="245.2" r="18.2"/>
	<circle class="st1" cx="-791.6" cy="188.4" r="17.9"/>
	<circle class="st0" cx="-667.1" cy="117.3" r="18.2"/>
	<circle class="st0" cx="-630.7" cy="78" r="18.2"/>
	<g>
		<circle class="st1" cx="-846.9" cy="456" r="17.9"/>
		<g>
			<path class="st5" d="M133.3,363.3l-15.7-0.4c-8.7-0.2-15.7-7.5-15.5-16.2l0.4-15.6c0.2-8.7,7.5-15.7,16.3-15.5l15.7,0.4
				c8.7,0.2,15.7,7.5,15.5,16.2l-0.4,15.6C149.3,356.6,142,363.5,133.3,363.3z"/>
			<g>
				<line class="st9" x1="142.8" y1="370.6" x2="128.3" y2="341.6"/>
				<line class="st9" x1="124.6" y1="370.9" x2="127.6" y2="341.6"/>
				<line class="st9" x1="107.1" y1="374.2" x2="126.9" y2="341.4"/>
				<line class="st9" x1="114.3" y1="322.7" x2="125.3" y2="338.5"/>
				<line class="st9" x1="142.8" y1="322.7" x2="128.3" y2="341.6"/>
				<line class="st9" x1="128.9" y1="322.7" x2="127.6" y2="341.4"/>
				<line class="st9" x1="88.8" y1="332.6" x2="127.6" y2="341.6"/>
			</g>
			<ellipse class="st10" cx="115" cy="322.7" rx="5.6" ry="5.6"/>
			<ellipse class="st10" cx="128.9" cy="322.7" rx="5.6" ry="5.6"/>
			<ellipse class="st10" cx="142.8" cy="322.7" rx="5.6" ry="5.6"/>
			<ellipse class="st10" cx="127.6" cy="341.6" rx="9.1" ry="9"/>
		</g>
		<g>
			<path class="st6" d="M91.8,336.3L71.3,352c-3,2.3-7.4,1.8-9.8-1.3h0c-2.3-3-1.8-7.4,1.3-9.8l20.4-15.7c3-2.3,7.4-1.8,9.8,1.3h0
				C95.4,329.5,94.8,333.9,91.8,336.3z"/>
			<g>
				<circle class="st10" cx="-901.6" cy="319.2" r="10.3"/>
				<circle class="st10" cx="-918.4" cy="332.7" r="10.6"/>
				<circle class="st10" cx="-935.3" cy="346.2" r="10.6"/>
			</g>
		</g>
		<g>
			<g>
				<path class="st6" d="M144.1,402.4l-0.7,0c-3.2,0-5.8-2.6-5.8-5.8l-0.2-25.3c0-3.2,2.6-5.8,5.8-5.8l0.7,0c3.2,0,5.8,2.6,5.8,5.8
					l0.2,25.3C149.9,399.7,147.3,402.3,144.1,402.4z"/>
				<ellipse class="st10" cx="141.6" cy="372.6" rx="6.4" ry="6.4"/>
				<ellipse class="st10" cx="141.6" cy="385.7" rx="6.4" ry="6.4"/>
				<ellipse class="st10" cx="141.6" cy="398.8" rx="6.4" ry="6.4"/>
			</g>
			<g>
				<path class="st6" d="M125.5,402.4l-0.7,0c-3.2,0-5.8-2.6-5.8-5.8l-0.2-25.3c0-3.2,2.6-5.8,5.8-5.8l0.7,0c3.2,0,5.8,2.6,5.8,5.8
					l0.2,25.3C131.3,399.7,128.7,402.3,125.5,402.4z"/>
				<ellipse class="st10" cx="124.1" cy="372.6" rx="6.4" ry="6.4"/>
				<ellipse class="st10" cx="124.1" cy="385.7" rx="6.4" ry="6.4"/>
				<ellipse class="st10" cx="124.1" cy="398.8" rx="6.4" ry="6.4"/>
			</g>
			<g>
				<path class="st16" d="M-874.6,426.4L-874.6,426.4c-4.9,0-9-4-9.1-8.9l-0.2-36.2c0-4.9,4-9,8.9-9.1l0,0c4.9,0,9,4,9.1,8.9
					l0.2,36.2C-865.6,422.3-869.6,426.4-874.6,426.4z"/>
				<circle class="st10" cx="-874.7" cy="379.6" r="9.4"/>
				<circle class="st10" cx="-874.7" cy="399" r="9.4"/>
				<circle class="st10" cx="-874.8" cy="418.3" r="9.4"/>
			</g>
		</g>
	</g>
	<g>
		<circle class="st1" cx="-257.6" cy="461.5" r="17.9"/>
		<g>
			<path class="st5" d="M519.3,367.1l15.7-0.4c8.7-0.2,15.7-7.5,15.5-16.2l-0.4-15.6c-0.2-8.7-7.5-15.7-16.3-15.5l-15.7,0.4
				c-8.7,0.2-15.7,7.5-15.5,16.2l0.4,15.6C503.2,360.3,510.6,367.3,519.3,367.1z"/>
			<g>
				<line class="st9" x1="510.8" y1="374.4" x2="525.3" y2="345.4"/>
				<line class="st9" x1="528.9" y1="374.7" x2="525.9" y2="345.4"/>
				<line class="st9" x1="546.5" y1="377.9" x2="526.7" y2="345.2"/>
				<line class="st9" x1="539.2" y1="326.5" x2="528.3" y2="342.3"/>
				<line class="st9" x1="510.8" y1="326.5" x2="525.3" y2="345.4"/>
				<line class="st9" x1="524.7" y1="326.5" x2="525.9" y2="345.2"/>
				<line class="st9" x1="564.8" y1="336.3" x2="525.9" y2="345.4"/>
			</g>
			<ellipse class="st10" cx="538.5" cy="326.5" rx="5.6" ry="5.6"/>
			<ellipse class="st10" cx="524.7" cy="326.5" rx="5.6" ry="5.6"/>
			<ellipse class="st10" cx="510.8" cy="326.5" rx="5.6" ry="5.6"/>
			<ellipse class="st10" cx="525.9" cy="345.4" rx="9.1" ry="9"/>
		</g>
		<g>
			<path class="st6" d="M559.8,340l20.4,15.7c3,2.3,7.4,1.8,9.8-1.3l0,0c2.3-3,1.8-7.4-1.3-9.8L568.3,329c-3-2.3-7.4-1.8-9.8,1.3
				l0,0C556.2,333.3,556.8,337.7,559.8,340z"/>
			<g>
				<circle class="st10" cx="-202.9" cy="324.7" r="10.3"/>
				<circle class="st10" cx="-186" cy="338.2" r="10.6"/>
				<circle class="st10" cx="-169.1" cy="351.7" r="10.6"/>
			</g>
		</g>
		<g>
			<g>
				<path class="st6" d="M506.5,406.1l0.7,0c3.2,0,5.8-2.6,5.8-5.8l0.2-25.3c0-3.2-2.6-5.8-5.8-5.8l-0.7,0c-3.2,0-5.8,2.6-5.8,5.8
					l-0.2,25.3C500.7,403.5,503.3,406.1,506.5,406.1z"/>
				<ellipse class="st10" cx="511.9" cy="376.3" rx="6.4" ry="6.4"/>
				<ellipse class="st10" cx="512" cy="389.5" rx="6.4" ry="6.4"/>
				<ellipse class="st10" cx="512" cy="402.6" rx="6.4" ry="6.4"/>
			</g>
			<g>
				<path class="st6" d="M524,406.1l0.7,0c3.2,0,5.8-2.6,5.8-5.8l0.2-25.3c0-3.2-2.6-5.8-5.8-5.8l-0.7,0c-3.2,0-5.8,2.6-5.8,5.8
					l-0.2,25.3C518.3,403.5,520.9,406.1,524,406.1z"/>
				<ellipse class="st10" cx="529.5" cy="376.3" rx="6.4" ry="6.4"/>
				<ellipse class="st10" cx="529.5" cy="389.5" rx="6.4" ry="6.4"/>
				<ellipse class="st10" cx="529.5" cy="402.6" rx="6.4" ry="6.4"/>
			</g>
			<g>
				<path class="st6" d="M541.1,406.1l0.7,0c3.2,0,5.8-2.6,5.8-5.8l0.2-25.3c0-3.2-2.6-5.8-5.8-5.8l-0.7,0c-3.2,0-5.8,2.6-5.8,5.8
					l-0.2,25.3C535.3,403.5,537.9,406.1,541.1,406.1z"/>
				<ellipse class="st10" cx="546.5" cy="376.3" rx="6.4" ry="6.4"/>
				<ellipse class="st10" cx="546.5" cy="389.5" rx="6.4" ry="6.4"/>
				<ellipse class="st10" cx="546.5" cy="402.6" rx="6.4" ry="6.4"/>
			</g>
		</g>
	</g>
	<path class="st11" d="M214.4,360H181c-4.4,0-8-3.6-8-8v-21.8c0-4.4,3.6-8,8-8h33.4c4.4,0,8,3.6,8,8V352
		C222.4,356.4,218.8,360,214.4,360z"/>
	<path class="st11" d="M472.4,359.4h-31.9c-4.4,0-8-3.6-8-8v-22.1c0-4.4,3.6-8,8-8h31.9c4.4,0,8,3.6,8,8v22.1
		C480.4,355.8,476.8,359.4,472.4,359.4z"/>
	<line class="st12" x1="173.5" y1="324.4" x2="167.1" y2="318"/>
	<line class="st12" x1="478.7" y1="322.7" x2="484.6" y2="316.8"/>
</g>
<g>
	<path class="st13" d="M241,93.2H43c-2.8,0-5-2.3-5-5V37.5c0-2.8,2.3-5,5-5h198c2.8,0,5,2.3,5,5v50.8C246,91,243.8,93.2,241,93.2z"
		/>
	<path class="st14" d="M132.6,78.4H47.2c-2.8,0-5-2.3-5-5v-5.5c0-2.8,2.3-5,5-5h85.4c2.8,0,5,2.3,5,5v5.5
		C137.6,76.2,135.3,78.4,132.6,78.4z"/>
	<path class="st15" d="M235.1,78.4H147c-2.8,0-5-2.3-5-5v-5.5c0-2.8,2.3-5,5-5h88.1c2.8,0,5,2.3,5,5v5.5
		C240.1,76.2,237.9,78.4,235.1,78.4z"/>
	<path class="st16" d="M81.9,47.2H47.2c-2.8,0-5-2.3-5-5v-1.8c0-2.8,2.3-5,5-5h34.7c2.8,0,5,2.3,5,5v1.8
		C86.9,44.9,84.7,47.2,81.9,47.2z"/>
	<path class="st16" d="M140.6,47.2H94.7c-2.8,0-5-2.3-5-5v-1.8c0-2.8,2.3-5,5-5h45.9c2.8,0,5,2.3,5,5v1.8
		C145.6,44.9,143.3,47.2,140.6,47.2z"/>
	<path class="st16" d="M81.9,60.9H47.2c-2.8,0-5-2.3-5-5v-1.8c0-2.8,2.3-5,5-5h34.7c2.8,0,5,2.3,5,5v1.8
		C86.9,58.7,84.7,60.9,81.9,60.9z"/>
	<path class="st16" d="M140.6,60.9H94.7c-2.8,0-5-2.3-5-5v-1.8c0-2.8,2.3-5,5-5h45.9c2.8,0,5,2.3,5,5v1.8
		C145.6,58.7,143.3,60.9,140.6,60.9z"/>
	<path class="st16" d="M234.9,47.2h-81.3c-2.8,0-5-2.3-5-5v-1.8c0-2.8,2.3-5,5-5h81.3c2.8,0,5,2.3,5,5v1.8
		C239.9,44.9,237.7,47.2,234.9,47.2z"/>
	<path class="st16" d="M234.9,60.9h-81.3c-2.8,0-5-2.3-5-5v-1.8c0-2.8,2.3-5,5-5h81.3c2.8,0,5,2.3,5,5v1.8
		C239.9,58.7,237.7,60.9,234.9,60.9z"/>
</g>
<g>
	<path class="st5" d="M635.9,116.5h-67.8c-2.8,0-5-2.3-5-5V47.9c0-2.8,2.3-5,5-5h67.8c2.8,0,5,2.3,5,5v63.6
		C640.9,114.2,638.6,116.5,635.9,116.5z"/>
	<g>
		<path class="st18" d="M583.4,54c-0.2-1.9-1.3-3.7-4.3-3.5c-2.4,0.2-3.4,2.5-3.4,3.9c0,1.4,1,3.7,4.1,7.2c1.3,1.4,1.9,2.7,1.9,4.2
			c0,0.7-0.9,2.1-1.9,2.1c-1,0-1.1-1.3-1.1-2.2s0.5-2.2-0.3-2.4c-1.6-0.5-2.6,0.1-2.2,2.9c0.3,2.2,1.4,3.8,4,3.8s3.8-2.3,3.8-4.9
			c0-2.6-3-5.6-4.1-6.8c-1.1-1.2-1.8-2.5-1.8-3.7s0.6-1.9,1.4-1.9c0.8,0,1.4,1.3,1.4,2.3c0,1.3,0.5,1.7,1.3,1.7
			C583.3,56.7,583.6,55.8,583.4,54z"/>
		<path class="st18" d="M593.1,50.1c-0.7,0-1.1,0.6-1.1,1.6s0,5.9,0,7.9c-0.1,4.3,0.8,8.9,1,10c0.1,0.6,0.6,1,1.1,1s1.3,0,1.1-1.8
			c-0.2-2.5-0.7-6-0.8-10.2c0-1.6,0.2-6.6,0-7.3S594.2,50.1,593.1,50.1z"/>
		<path class="st18" d="M602,50c0,0-0.2,1.5,0.8,1.5c0.9,0,2.4,0,2.4,0s0.4-0.1,0.4,0.3s0,7.8,0,7.8s0.6,8.5,0.6,9.3
			c0,0.8,0.2,1.4,1.3,1.4c1,0,0.9-1.4,0.9-2c0-0.5-0.2-13.3-0.2-16.5c0-0.3,0.1-0.7,0.9-0.7s2.5-0.1,3.2-0.1c0.9,0,1-0.6,0.9-1.2
			c-0.1-0.6,0-1.5-1.8-1.3c-0.7,0.1-7.7,0.6-8.4,0.6C602.3,49,602,49.4,602,50z"/>
		<path class="st18" d="M611.4,52.2c-0.7,0-1.3,0.4-1.3,1.4c0,0.4,0.2,1.1,0.2,1.1s0.2,0.9,1.7,0.9c0.7,0,0.7-1.3,0.7-1.6
			C612.8,52.9,613,52.2,611.4,52.2z"/>
		<path class="st18" d="M611.2,57.3c-0.9,0-1.1,0.3-1.1,2.3c0,1.8,0.2,4.8,0.3,5.8c0.1,1.3,0.3,1.8,1.4,1.8c1.1,0,1.1-0.8,1.1-2.1
			c0-1.2-0.3-5.6-0.4-6.6S611.9,57.3,611.2,57.3z"/>
		<path class="st18" d="M617.2,50.5c-1.5,0-2.9,2.1-2.9,4.2c0,2.3,0.2,9.2,1.3,12.5c0.7,1.8,1.7,3,3.8,2.8c1,0,2.6-1.4,2.4-4.6
			c0-1.1,0-2.4-0.6-2.8s-2.2,0.3-1.9,1.7c0.3,1.4,0.6,2.8-0.1,3.4c-0.7,0.5-1.1,0.4-1.5-0.3c-0.4-0.7-1.6-9-1.1-12.8
			c0.1-0.8,0.3-1.3,1-1.3c0.1,0,0.9,0.1,0.9,1.2c0,0.9,0.7,1.2,1.3,1.1c1-0.1,1-0.5,0.7-2.8C620.2,51.2,619.1,50.5,617.2,50.5z"/>
		<path class="st18" d="M625.6,50.7c-1,0.1-1.4,0.1-2.3,0.2c-0.7,0.1-0.8,0.9-0.8,2.2c0,1.2,0.6,13.2,1.1,15.3
			c0.2,0.6,0.3,1.4,1.5,1.4c1.2,0,2.8-0.2,3.4-0.6c0.6-0.4,0.5-1,0.3-1.6c-0.2-0.6-0.8-0.7-1.6-0.6c-1.2,0.3-1.7,0-1.8-1
			c-0.2-1.3-0.5-3.8-0.7-4.7c0-0.3,0-0.5,1.1-0.6s1.7-0.1,1.7-0.8c0-0.7,0-0.7-0.2-1.5c-0.1-0.5-1.1-0.4-2.3-0.2
			c-0.4,0-0.5-0.1-0.5-0.8s0-3.6,0.1-3.9s0.2-0.5,1-0.6c0.8,0,1.8,0.1,1.9-0.5s0.2-1-0.1-1.4C627.2,50.7,626.2,50.7,625.6,50.7z"/>
		<path class="st18" d="M587.2,53.3c-0.7,0-1.5,0.7-2,2.1c-0.9,2.4-0.8,4.8-0.8,7.3c-0.1,2.7,1,5.6,3.6,5.6c2.9,0,3-5.2,3-7.8
			S590.2,53.3,587.2,53.3z M588.2,65.8c-0.7,1-1.6,0.2-1.9-0.5c-0.7-2.9-0.2-6.8,0-7.5c0.5-2.1,1.8-1.7,2.1-0.4
			C589.4,59.8,589,64.8,588.2,65.8z"/>
		<path class="st18" d="M602.9,55.6c-0.2-1.7-1.1-3.3-3.8-3.1c-2.1,0.2-3,2.2-3,3.5s1.5,3.9,3.3,6.4c1.1,1.7,2.6,3.6,2.6,6.2
			c0,0.6-0.1,1.7-1.5,1.8c-0.6,0.1-1.1-0.6-1-1.9c0.1-0.8,0.4-1.9-0.3-2.2c-1.4-0.5-2.3,0.1-1.9,2.6c0.3,1.9,1.3,3.4,3.5,3.4
			c2.8,0,3.3-2,3.3-4.3s-1.7-4.5-3-6.4c-1-1.6-3.1-4.3-3.1-5.3s0.5-1.7,1.2-1.7c0.7,0,1.3,1.2,1.3,2.1c0,1.2,0.5,1.5,1.2,1.5
			C602.9,58,603.1,57.2,602.9,55.6z"/>
	</g>
	<path class="st5" d="M636.3,98.2h-67.8c-2.8,0-5-2.3-5-5v-12c0-2.8,2.3-5,5-5h67.8c2.8,0,5,2.3,5,5v12
		C641.3,95.9,639,98.2,636.3,98.2z"/>
	<text transform="matrix(1.0154 0 0 1 580.9473 92.6157)" class="st21 st22 st23">PICKER</text>
	<text transform="matrix(1.0154 0 0 1 579.0342 111.145)" class="st21 st24 st25">SUMMER</text>
</g>
<g>
	<g>
		<path class="st12" d="M249.3,148.6l-1.9-1.9c-3-2.9-7.7-2.9-10.7,0l-125.2,125c-3.4,3.4-3.4,9,0,12.4l0,0"/>
		<line class="st12" x1="181.8" y1="201.6" x2="176.5" y2="196.3"/>
	</g>
	<line class="st12" x1="539" y1="292.4" x2="554.1" y2="277.4"/>
	<path class="st11" d="M214.4,458h-63.9c-4.4,0-8-3.6-8-8v-26.7c0-4.4,3.6-8,8-8h63.9c4.4,0,8,3.6,8,8V450
		C222.4,454.4,218.8,458,214.4,458z"/>
	<path class="st12" d="M248.5,341.6h-8.7c-3.7,0-6.8,3-6.8,6.7v170.8c0,3.7,3,6.7,6.8,6.7h17.9"/>
	<path class="st12" d="M401.7,341.6h8.7c3.7,0,6.8,3,6.8,6.7v170.8c0,3.7-3,6.7-6.8,6.7h-17.9"/>
	<path class="st11" d="M214.4,514.4H98.5c-4.4,0-8-3.6-8-8v-25.9c0-4.4,3.6-8,8-8h115.9c4.4,0,8,3.6,8,8v25.9
		C222.4,510.8,218.8,514.4,214.4,514.4z"/>
	<path class="st12" d="M266.4,535.1h-70.2c-3.6,0-6.5-2.9-6.5-6.5v-13.8"/>
	<path class="st11" d="M492,458h-64c-4.4,0-8-3.6-8-8v-26.7c0-4.4,3.6-8,8-8h64c4.4,0,8,3.6,8,8V450C500,454.4,496.4,458,492,458z"
		/>
	<path class="st11" d="M542.5,511.9H429.7c-4.4,0-8-3.6-8-8v-25.4c0-4.4,3.6-8,8-8h112.8c4.4,0,8,3.6,8,8v25.4
		C550.5,508.3,546.9,511.9,542.5,511.9z"/>
	<path class="st12" d="M380.5,535.1h76.1c3.3,0,6-2.7,6-6v-17.2"/>
	<path class="st12" d="M256.7,484.3V499c0,2.6,2.1,4.6,4.6,4.6h26.4"/>
	<path class="st12" d="M395.3,484.3v13.3c0,2.9-2.4,5.3-5.3,5.3h-23"/>
	<path class="st11" d="M274.6,485.7h-30.8c-4.4,0-8-3.6-8-8v-21.2c0-4.4,3.6-8,8-8h30.8c4.4,0,8,3.6,8,8v21.2
		C282.6,482.1,279,485.7,274.6,485.7z"/>
	<path class="st11" d="M406.5,487.3h-27.7c-4.4,0-8-3.6-8-8v-22.8c0-4.4,3.6-8,8-8h27.7c4.4,0,8,3.6,8,8v22.8
		C414.5,483.7,410.9,487.3,406.5,487.3z"/>
	<line class="st12" x1="233.1" y1="438.4" x2="222.4" y2="438.4"/>
	<line class="st12" x1="417.1" y1="438" x2="420" y2="438"/>
	<path class="st11" d="M563.5,214.3h-64.9c-4.4,0-8-3.6-8-8V182c0-4.4,3.6-8,8-8h64.9c4.4,0,8,3.6,8,8v24.3
		C571.5,210.7,567.9,214.3,563.5,214.3z"/>
	<path class="st11" d="M642.5,302H561c-4.4,0-8-3.6-8-8v-43.5c0-4.4,3.6-8,8-8h81.5c4.4,0,8,3.6,8,8V294
		C650.5,298.4,646.9,302,642.5,302z"/>
	<path class="st12" d="M400.5,146.2l1.9-1.9c3-2.9,7.7-2.9,10.7,0l125.2,125c3.4,3.4,3.4,9,0,12.4l0,0"/>
	<line class="st12" x1="487.4" y1="218.4" x2="492.7" y2="213.1"/>
	<path class="st11" d="M170.7,197.3h-60.7c-4.4,0-8-3.6-8-8v-25c0-4.4,3.6-8,8-8h60.7c4.4,0,8,3.6,8,8v25
		C178.7,193.7,175.1,197.3,170.7,197.3z"/>
	<path class="st11" d="M93.9,279.9H11c-4.4,0-8-3.6-8-8v-44.4c0-4.4,3.6-8,8-8h82.9c4.4,0,8,3.6,8,8v44.4
		C101.9,276.3,98.3,279.9,93.9,279.9z"/>
	<line class="st12" x1="99.2" y1="279.2" x2="114.4" y2="294.4"/>
</g>
<ellipse class="st4" cx="310.5" cy="105.8" rx="8.4" ry="8.4"/>
<ellipse class="st4" cx="344.2" cy="105.8" rx="8.4" ry="8.4"/>
<path class="st12" d="M258.4,97.4V58.8c0-4.7,3.8-8.4,8.4-8.4h116.6c4.7,0,8.4,3.8,8.4,8.4v42.7"/>
<path class="st11" d="M354.5,56.6h-55.3c-4.4,0-8-3.6-8-8v-3.3c0-4.4,3.6-8,8-8h55.3c4.4,0,8,3.6,8,8v3.3
	C362.5,53,358.9,56.6,354.5,56.6z"/>
<circle class="st7" cx="-1377.1" cy="235.2" r="17.9"/>
<circle class="st0" cx="-1422.1" cy="311.4" r="18.2"/>
<circle class="st1" cx="-1472.9" cy="285" r="17.9"/>
<circle class="st0" cx="-1353.1" cy="272.3" r="18.2"/>
<circle class="st1" cx="-1417.6" cy="215.5" r="17.9"/>
<circle class="st0" cx="-1293.1" cy="144.4" r="18.2"/>
<circle class="st0" cx="-1256.7" cy="105.1" r="18.2"/>
<circle class="st1" cx="-1472.9" cy="483.1" r="17.9"/>
<g>
	<path class="st6" d="M110.2,402.4l-0.7,0c-3.2,0-5.8-2.6-5.8-5.8l-0.2-25.3c0-3.2,2.6-5.8,5.8-5.8l0.7,0c3.2,0,5.8,2.6,5.8,5.8
		l0.2,25.3C116,399.7,113.4,402.3,110.2,402.4z"/>
	<ellipse class="st10" cx="105.8" cy="372.6" rx="6.4" ry="6.4"/>
	<ellipse class="st10" cx="105.8" cy="385.7" rx="6.4" ry="6.4"/>
	<ellipse class="st10" cx="105.8" cy="398.8" rx="6.4" ry="6.4"/>
</g>
<g>
	<path class="st16" d="M-1500.6,453.5L-1500.6,453.5c-4.9,0-9-4-9.1-8.9l-0.2-36.2c0-4.9,4-9,8.9-9.1l0,0c4.9,0,9,4,9.1,8.9
		l0.2,36.2C-1491.6,449.4-1495.6,453.4-1500.6,453.5z"/>
	<circle class="st10" cx="-1500.7" cy="406.7" r="9.4"/>
	<circle class="st10" cx="-1500.7" cy="426" r="9.4"/>
	<circle class="st10" cx="-1500.8" cy="445.4" r="9.4"/>
</g>
</svg>
