<?xml version="1.0" encoding="utf-8"?>
<!-- Generator: Adobe Illustrator 22.0.1, SVG Export Plug-In . SVG Version: 6.00 Build 0)  -->
<svg version="1.1" id="Capa_1" xmlns="http://www.w3.org/2000/svg" xmlns:xlink="http://www.w3.org/1999/xlink" x="0px" y="0px"
	 viewBox="0 0 655 562" style="enable-background:new 0 0 655 562;" xml:space="preserve">
<style type="text/css">
	.st0{fill:#FFFF6E;stroke:#003E51;stroke-linecap:round;stroke-linejoin:round;stroke-dasharray:6,8;}
	.st1{fill:#6CFFE3;stroke:#003E51;}
	.st2{display:none;fill:#FD141C;stroke:#003E51;}
	.st3{display:none;fill:#FFFA02;stroke:#003E51;}
	.st4{fill:#B6FFF1;stroke:#003E51;}
	.st5{display:none;fill:#55DFFF;stroke:#003E51;}
	.st6{display:none;fill:#0F38FF;stroke:#003E51;}
	.st7{fill:none;stroke:#003E51;stroke-width:2;stroke-linecap:round;stroke-linejoin:round;stroke-dasharray:3;}
	.st8{display:none;fill:#7F3F06;stroke:#003E51;}
	.st9{fill:#E1FFF9;stroke:#003E51;stroke-linecap:round;stroke-linejoin:round;}
	.st10{fill:none;stroke:#003E51;stroke-linecap:round;stroke-linejoin:round;}
	.st11{fill:#E1FFF9;stroke:#003E51;stroke-width:2;stroke-linecap:round;stroke-linejoin:round;stroke-dasharray:6,8;}
	.st12{fill:#FC0042;stroke:#003E51;}
	.st13{fill:#00FFB6;stroke:#003E51;}
	.st14{fill:#05C19D;}
</style>
<g>
	<path class="st0" d="M380.6,332.9H270.3c-5.5,0-8-4.9-10-10c-15.7-38.7-9.9-68.3,0-104.8c1.5-5.4,4.5-10,10-10h110.3
		c5.5,0,7.8,5,10,10c13.9,31.9,18.9,63.8,0,104.8C388.3,327.9,386.2,332.9,380.6,332.9z"/>
	<path class="st0" d="M377.1,203.8H276.4c-5.5,0-10-4.5-10-10l11.6-26.6c0-5.5,4.5-10,10-10h79c5.5,0,10,4.5,10,10l10,26.6
		C387.2,199.2,382.6,203.8,377.1,203.8z"/>
	<path class="st0" d="M353.2,152.9h-51.5c-9.1,0-16.5-4.5-16.5-10l16-48c0-5.5,4.5-10,10-10h31.4c5.5,0,10,4.5,10,10l17.2,48
		C369.7,148.5,362.2,152.9,353.2,152.9z"/>
	<path class="st0" d="M328.7,124.4h-3.8c-3.7,0-6.8-2.6-6.8-5.7l1.9-19.3c0-2.8,2.3-5.1,5.1-5.1h3c2.8,0,5.1,2.3,5.1,5.1l1.9,19.3
		C335.5,121.8,332.4,124.4,328.7,124.4z"/>
	<g>
		<path class="st1" d="M289.2,122.9c-3,8.8-4.9,17.6-13.8,14.6c-8.8-3-13.5-12.6-10.5-21.4s12.6-13.5,21.4-10.5
			C295,108.5,292.2,114.1,289.2,122.9z"/>
		<path class="st1" d="M321,92.5l-19.9,2.7c-1.5,0.3-2.7-0.8-3-2.2l-1.4-10.1c-0.3-1.5,0.8-2.7,2.2-3l19.9-2.7
			c1.5-0.3,2.7,0.8,3,2.2l1.4,10.1C323.3,91,322.4,92.4,321,92.5z"/>
	</g>
	<g>
		<path class="st1" d="M365.2,122.2c3,8.8,4.9,17.6,13.8,14.6c8.8-3,13.5-12.6,10.5-21.4S377,102,368.2,104.9
			C359.3,107.9,362.2,113.5,365.2,122.2z"/>
		<path class="st1" d="M333.4,91.8l19.9,2.7c1.5,0.3,2.7-0.8,3-2.2l1.4-10.1c0.3-1.5-0.8-2.7-2.2-3l-19.9-2.7
			c-1.5-0.3-2.7,0.8-3,2.2l-1.4,10.1C331,90.3,332.1,91.7,333.4,91.8z"/>
	</g>
</g>
<g>
	<ellipse transform="matrix(0.1602 -0.9871 0.9871 0.1602 84.7005 434.9351)" class="st2" cx="298" cy="167.7" rx="9.3" ry="9.3"/>
	<ellipse transform="matrix(0.1602 -0.9871 0.9871 0.1602 66.5239 450.3997)" class="st2" cx="298" cy="186.1" rx="9.3" ry="9.3"/>
	<circle class="st2" cx="307.2" cy="227.4" r="9.3"/>
	<circle class="st2" cx="307.2" cy="290.2" r="9.3"/>
	<circle class="st2" cx="307.2" cy="248.4" r="9.3"/>
	<circle class="st2" cx="307.2" cy="269.3" r="9.3"/>
	<circle class="st3" cx="287.4" cy="237" r="9.3"/>
	<circle class="st3" cx="287.4" cy="280.9" r="9.3"/>
	<circle class="st3" cx="287.4" cy="258.9" r="9.3"/>
</g>
<g>
	<g>
		<g>
			<path class="st4" d="M370.2,521.7c0,0,5.5,0,8.2,0c1.2,0,3.2-1.4,3.1-3.8c-0.1-2.3-3.9-10-5.9-11.9c-1.9-1.9-4.1-2.3-6.5-2
				C366.3,504.4,368.6,521.7,370.2,521.7z"/>
			<path class="st4" d="M346.6,521.7c0,0-5.3,0-8,0c-1.2,0-3.1-1.4-3-3.5c0.1-2.3,3.8-9.6,5.7-11.4c1.9-1.8,3.8-2.2,6.2-1.9
				C350.2,505.1,348,521.7,346.6,521.7z"/>
			<path class="st4" d="M368.6,521.7c0,0-13.1,0-19.3,0c-1.1,0-1.8-2.3-1.8-4.1s0.1-10.4,2.2-13.2c2-2.8,4.5-4.9,8.8-4.6
				c4.3,0.3,8,2.3,9.1,5.8C368.7,509.2,370.9,521.7,368.6,521.7z"/>
		</g>
		<path class="st4" d="M352.4,416.6h9.1c3,0,5.5-4.9,5.5-10.8l8.2-60c0-5.5-4.5-10-10-10h-16.5c-5.5,0-10,4.5-10,10l8.2,60
			C346.8,411.7,349.4,416.6,352.4,416.6z"/>
		<path class="st4" d="M354,491.7h5.9c2,0,3.7-3.1,3.7-7l5.4-40.4c0-3.7-3-6.6-6.6-6.6h-10.8c-3.7,0-6.6,3-6.6,6.6l5.4,40.4
			C350.3,488.6,352,491.7,354,491.7z"/>
		<circle class="st5" cx="356.8" cy="416.6" r="8.9"/>
		<circle class="st3" cx="345.6" cy="433.2" r="8.9"/>
		<circle class="st2" cx="370.2" cy="433.2" r="8.9"/>
		<circle class="st2" cx="356.8" cy="496.5" r="8.9"/>
		<circle class="st2" cx="368.9" cy="525.1" r="8.9"/>
		<circle class="st3" cx="349.5" cy="525.1" r="8.9"/>
	</g>
	<circle class="st2" cx="359.8" cy="337.3" r="12.2"/>
	<circle class="st5" cx="386.8" cy="351.9" r="12"/>
</g>
<g>
	<g>
		<g>
			<path class="st4" d="M282.2,521.7c0,0-5.5,0-8.2,0c-1.2,0-3.2-1.4-3.1-3.8c0.1-2.4,3.9-10,5.9-11.9c1.9-1.9,4.1-2.3,6.5-2
				C286,504.4,283.8,521.7,282.2,521.7z"/>
			<path class="st4" d="M305.9,521.7c0,0,5.3,0,8,0c1.2,0,3.1-1.4,3-3.5c-0.1-2.3-3.8-9.6-5.7-11.4c-1.9-1.8-3.8-2.2-6.2-1.9
				C302.2,505.1,304.2,521.7,305.9,521.7z"/>
			<path class="st4" d="M283.8,521.7c0,0,13.1,0,19.3,0c1.1,0,1.8-2.3,1.8-4.1s-0.1-10.4-2.2-13.2c-2-2.8-4.5-4.9-8.8-4.6
				c-4.3,0.3-8,2.3-9.1,5.8C283.7,509.2,281.4,521.7,283.8,521.7z"/>
		</g>
		<path class="st4" d="M300,416.6H291c-3,0-5.5-4.9-5.5-10.8l-8.2-60c0-5.5,4.5-10,10-10h16.5c5.5,0,10,4.5,10,10l-8.2,60
			C305.5,411.7,303,416.6,300,416.6z"/>
		<path class="st4" d="M298.4,491.7h-5.9c-2,0-3.7-3.1-3.7-7l-5.4-40.4c0-3.7,3-6.6,6.6-6.6h10.8c3.7,0,6.6,3,6.6,6.6l-5.4,40.4
			C301.9,488.6,300.4,491.7,298.4,491.7z"/>
		<circle class="st5" cx="295.4" cy="416.6" r="8.9"/>
		<circle class="st3" cx="306.7" cy="433.2" r="8.9"/>
		<circle class="st2" cx="282.1" cy="433.2" r="8.9"/>
		<circle class="st2" cx="295.4" cy="495.1" r="8.9"/>
		<circle class="st2" cx="283.6" cy="525.1" r="8.9"/>
		<circle class="st3" cx="302.9" cy="525.1" r="8.9"/>
	</g>
	<circle class="st2" cx="292.6" cy="337.3" r="12.2"/>
	<circle class="st5" cx="265.6" cy="351.9" r="12"/>
</g>
<g>
	<g>
		<circle class="st4" cx="384.4" cy="181.7" r="21.2"/>
		<path class="st4" d="M507.8,312.1l10-11.4c3.7-4.2,3.2-10.5-0.8-14.2l-43-44.6c-4.7-5.1-12-4.6-16.4,1.2l-11.5,15.8
			c-4.2,5.8-3.8,14.7,0.9,20l46.4,34.1C497.7,316.7,504.1,316.2,507.8,312.1z"/>
		<path class="st1" d="M439.4,264.7c4.5-4.6,11.6-17.8,15.7-22.8c3.5-4.3,5.4-10.4,2.3-14.9L420,189.4c-3.1-4.6-10.3-6.6-12-1.4
			c-2.3,6.6-7.7,13.8-11.2,17c-4.2,3.7-4.2,14.9-0.9,19.5c0,0,13.8,21.8,30,36.4C429.8,264.6,435.6,268.7,439.4,264.7z"/>
	</g>
	<ellipse class="st6" cx="458.9" cy="256.7" rx="12" ry="12"/>
	<circle class="st2" cx="491.3" cy="306.8" r="12.2"/>
	<circle class="st3" cx="521.5" cy="291.4" r="12"/>
	<circle class="st2" cx="440.6" cy="283.9" r="12.2"/>
	<circle class="st3" cx="484.4" cy="242" r="12"/>
	<circle class="st2" cx="402.5" cy="195.8" r="12.2"/>
	<circle class="st2" cx="378.1" cy="169.4" r="12.2"/>
</g>
<g>
	<g>
		<circle class="st4" cx="267.2" cy="180.2" r="21.2"/>
		<path class="st4" d="M143.9,310.6l-10-11.4c-3.7-4.2-3.2-10.5,0.8-14.2l43-44.7c4.7-5.1,12-4.6,16.4,1.2l11.5,15.8
			c4.2,5.8,3.8,14.7-0.9,20l-46.4,34.1C153.9,315.2,147.5,314.8,143.9,310.6z"/>
		<path class="st1" d="M212.2,263.3c-4.5-4.6-11.6-17.8-15.7-22.8c-3.5-4.3-5.4-10.4-2.3-14.9l37.4-37.6c3.1-4.6,10.3-6.6,12-1.4
			c2.3,6.6,7.7,13.8,11.2,17c4.2,3.7,4.2,14.9,0.9,19.5c0,0-13.8,21.8-30,36.4C221.8,263,216.1,267.2,212.2,263.3z"/>
	</g>
	<circle class="st5" cx="194.3" cy="298.2" r="13"/>
	<circle class="st2" cx="161.6" cy="353.4" r="13.1"/>
	<circle class="st3" cx="124.8" cy="334.2" r="13"/>
	<circle class="st2" cx="211.5" cy="325" r="13.1"/>
	<circle class="st3" cx="164.8" cy="283.8" r="13"/>
	<circle class="st2" cx="255.2" cy="232.3" r="13.1"/>
	<circle class="st2" cx="281.5" cy="203.8" r="13.1"/>
	<g>
		<circle class="st3" cx="124.8" cy="477.9" r="13"/>
		<g>
			<path class="st1" d="M147.8,361.5l-40-0.9c-1.9,0-3.4-1.6-3.2-3.5l0.9-40c0-1.9,1.6-3.4,3.5-3.2l40,0.9c1.9,0,3.4,1.6,3.2,3.5
				l-0.9,40C151.3,360.2,149.7,361.7,147.8,361.5z"/>
			<g>
				<line class="st7" x1="145" y1="368.4" x2="130.6" y2="339.9"/>
				<line class="st7" x1="127.1" y1="368.8" x2="130" y2="339.9"/>
				<line class="st7" x1="109.8" y1="371.9" x2="129.3" y2="339.6"/>
				<line class="st7" x1="117" y1="321.3" x2="127.7" y2="336.8"/>
				<line class="st7" x1="145" y1="321.3" x2="130.6" y2="339.9"/>
				<line class="st7" x1="131.3" y1="321.3" x2="130" y2="339.6"/>
				<line class="st7" x1="91.7" y1="331" x2="130" y2="339.9"/>
			</g>
			<circle class="st8" cx="117.7" cy="321.3" r="5.5"/>
			<circle class="st8" cx="131.3" cy="321.3" r="5.5"/>
			<circle class="st8" cx="145" cy="321.3" r="5.5"/>
			<circle class="st8" cx="130" cy="339.9" r="8.9"/>
		</g>
		<g>
			<path class="st4" d="M98.3,333.8L71,354.9c-1.1,0.8-2.4,0.5-3.2-0.4l-5.5-7.2c-0.8-1.1-0.5-2.4,0.4-3.2L90,323
				c1.1-0.8,2.4-0.5,3.2,0.4l5.5,7.2C99.6,331.5,99.3,333,98.3,333.8z"/>
			<g>
				
					<ellipse transform="matrix(0.1895 -0.9819 0.9819 0.1895 -302.7362 390.584)" class="st8" cx="85.2" cy="378.7" rx="7.4" ry="7.4"/>
				
					<ellipse transform="matrix(0.2221 -0.975 0.975 0.2221 -321.9974 373.3329)" class="st8" cx="73" cy="388.5" rx="7.6" ry="7.6"/>
				
					<ellipse transform="matrix(0.2544 -0.9671 0.9671 0.2544 -339.9457 355.6105)" class="st8" cx="60.7" cy="398.3" rx="7.6" ry="7.6"/>
			</g>
		</g>
		<g>
			<g>
				<path class="st4" d="M148,401.8h-8c-1.1,0-2-0.9-2-2l-0.3-32.3c0-1.1,0.9-2,2-2h8c1.1,0,2,0.9,2,2l0.3,32.3
					C150,400.9,149,401.8,148,401.8z"/>
				
					<ellipse transform="matrix(0.9704 -0.2414 0.2414 0.9704 -85.1806 45.6626)" class="st8" cx="143.8" cy="370.5" rx="6.4" ry="6.4"/>
				
					<ellipse transform="matrix(0.9704 -0.2414 0.2414 0.9704 -88.3122 46.0466)" class="st8" cx="143.8" cy="383.4" rx="6.4" ry="6.4"/>
				
					<ellipse transform="matrix(0.9704 -0.2414 0.2414 0.9704 -91.4143 46.4196)" class="st8" cx="143.7" cy="396.3" rx="6.4" ry="6.4"/>
			</g>
			<g>
				<path class="st4" d="M130.6,401.8h-8c-1.1,0-2-0.9-2-2l-0.3-32.3c0-1.1,0.9-2,2-2h8c1.1,0,2,0.9,2,2l0.3,32.3
					C132.7,400.9,131.7,401.8,130.6,401.8z"/>
				
					<ellipse transform="matrix(0.9704 -0.2414 0.2414 0.9704 -85.6816 41.5161)" class="st8" cx="126.6" cy="370.4" rx="6.4" ry="6.4"/>
				
					<ellipse transform="matrix(0.9704 -0.2414 0.2414 0.9704 -88.825 41.8695)" class="st8" cx="126.5" cy="383.4" rx="6.4" ry="6.4"/>
				
					<ellipse transform="matrix(0.9704 -0.2414 0.2414 0.9704 -91.927 42.2425)" class="st8" cx="126.4" cy="396.3" rx="6.4" ry="6.4"/>
			</g>
			<g>
				<path class="st4" d="M113.9,401.8h-8c-1.1,0-2-0.9-2-2l-0.3-32.3c0-1.1,0.9-2,2-2h8c1.1,0,2,0.9,2,2l0.3,32.3
					C115.9,400.9,115,401.8,113.9,401.8z"/>
				
					<ellipse transform="matrix(0.9704 -0.2414 0.2414 0.9704 -86.1771 37.4692)" class="st8" cx="109.8" cy="370.4" rx="6.4" ry="6.4"/>
				
					<ellipse transform="matrix(0.9704 -0.2414 0.2414 0.9704 -89.3205 37.8226)" class="st8" cx="109.7" cy="383.4" rx="6.4" ry="6.4"/>
				
					<ellipse transform="matrix(0.9704 -0.2414 0.2414 0.9704 -92.4225 38.1956)" class="st8" cx="109.7" cy="396.3" rx="6.4" ry="6.4"/>
			</g>
		</g>
	</g>
	<g>
		<circle class="st3" cx="552.1" cy="481.9" r="13"/>
		<g>
			<path class="st1" d="M504.6,365.3l40-0.9c1.9,0,3.4-1.6,3.2-3.5l-0.9-40c0-1.9-1.6-3.4-3.5-3.2l-40,0.9c-1.9,0-3.4,1.6-3.2,3.5
				l0.9,40C501.2,363.8,502.8,365.3,504.6,365.3z"/>
			<g>
				<line class="st7" x1="507.6" y1="372.2" x2="521.9" y2="343.6"/>
				<line class="st7" x1="525.4" y1="372.5" x2="522.4" y2="343.6"/>
				<line class="st7" x1="542.7" y1="375.7" x2="523.3" y2="343.4"/>
				<line class="st7" x1="535.6" y1="325" x2="524.9" y2="340.6"/>
				<line class="st7" x1="507.6" y1="325" x2="521.9" y2="343.6"/>
				<line class="st7" x1="521.2" y1="325" x2="522.4" y2="343.4"/>
				<line class="st7" x1="560.7" y1="334.6" x2="522.4" y2="343.6"/>
			</g>
			<circle class="st8" cx="534.9" cy="325" r="5.5"/>
			<circle class="st8" cx="521.2" cy="325" r="5.5"/>
			<circle class="st8" cx="507.6" cy="325" r="5.5"/>
			<circle class="st8" cx="522.4" cy="343.6" r="8.9"/>
		</g>
		<g>
			<path class="st4" d="M554.2,337.5l27.3,21.1c1.1,0.8,2.4,0.5,3.2-0.4l5.5-7.2c0.8-1.1,0.5-2.4-0.4-3.2l-27.3-21.1
				c-1.1-0.8-2.4-0.5-3.2,0.4l-5.5,7.2C553,335.3,553.3,336.8,554.2,337.5z"/>
			<g>
				<ellipse class="st8" cx="591.7" cy="382.7" rx="7.4" ry="7.4"/>
				<ellipse class="st8" cx="604" cy="392.5" rx="7.6" ry="7.6"/>
				<ellipse class="st8" cx="616.3" cy="402.3" rx="7.6" ry="7.6"/>
			</g>
		</g>
		<g>
			<g>
				<path class="st4" d="M504.6,405.5h8c1.1,0,2-0.9,2-2l0.3-32.3c0-1.1-0.9-2-2-2h-8c-1.1,0-2,0.9-2,2l-0.3,32.3
					C502.6,404.5,503.5,405.5,504.6,405.5z"/>
				<ellipse class="st8" cx="508.6" cy="374.1" rx="6.4" ry="6.4"/>
				<ellipse class="st8" cx="508.6" cy="387.1" rx="6.4" ry="6.4"/>
				<ellipse class="st8" cx="508.6" cy="400.1" rx="6.4" ry="6.4"/>
			</g>
			<g>
				<path class="st4" d="M521.9,405.5h8c1.1,0,2-0.9,2-2l0.3-32.3c0-1.1-0.9-2-2-2h-8c-1.1,0-2,0.9-2,2l-0.3,32.3
					C519.9,404.5,520.7,405.5,521.9,405.5z"/>
				<ellipse class="st8" cx="526" cy="374.1" rx="6.4" ry="6.4"/>
				<ellipse class="st8" cx="526" cy="387.1" rx="6.4" ry="6.4"/>
				<ellipse class="st8" cx="526" cy="400.1" rx="6.4" ry="6.4"/>
			</g>
			<g>
				<path class="st4" d="M538.7,405.5h8c1.1,0,2-0.9,2-2l0.3-32.3c0-1.1-0.9-2-2-2h-8c-1.1,0-2,0.9-2,2l-0.3,32.3
					C536.6,404.5,537.6,405.5,538.7,405.5z"/>
				<ellipse class="st8" cx="542.7" cy="374.1" rx="6.4" ry="6.4"/>
				<ellipse class="st8" cx="542.7" cy="387.1" rx="6.4" ry="6.4"/>
				<ellipse class="st8" cx="542.7" cy="400.1" rx="6.4" ry="6.4"/>
			</g>
		</g>
	</g>
	<path class="st9" d="M210.5,354.8h-33.9c-0.9,0-1.8-0.8-1.8-1.8v-30.4c0-0.9,0.8-1.8,1.8-1.8h33.9c0.9,0,1.8,0.8,1.8,1.8v30.3
		C212.3,354,211.5,354.8,210.5,354.8z"/>
	<path class="st9" d="M475.8,353.8h-33.9c-0.9,0-1.8-0.8-1.8-1.8v-30.4c0-0.9,0.8-1.8,1.8-1.8h33.9c0.9,0,1.8,0.8,1.8,1.8v30.4
		C477.7,353,476.9,353.8,475.8,353.8z"/>
	<line class="st10" x1="175.3" y1="322.9" x2="168.9" y2="316.7"/>
	<line class="st10" x1="475.9" y1="321.3" x2="481.7" y2="315.4"/>
</g>
<g>
	<path class="st11" d="M245.7,104.8H39.1c-0.6,0-1.1-0.5-1.1-1.1V34.9c0-0.6,0.5-1.1,1.1-1.1h206.8c0.6,0,1.1,0.5,1.1,1.1v68.7
		C247,104.2,246.4,104.8,245.7,104.8z"/>
	<path class="st12" d="M136.8,87.5H43.2c-0.6,0-1.1-0.5-1.1-1.1V70.6c0-0.6,0.5-1.1,1.1-1.1h93.6c0.6,0,1.1,0.5,1.1,1.1v15.8
		C138,86.9,137.4,87.5,136.8,87.5z"/>
	<path class="st13" d="M239.9,87.5h-96.2c-0.6,0-1.1-0.5-1.1-1.1V70.6c0-0.6,0.5-1.1,1.1-1.1h96.2c0.6,0,1.1,0.5,1.1,1.1v15.8
		C241,86.9,240.5,87.5,239.9,87.5z"/>
	<path class="st4" d="M85.9,50.9H43.2c-0.6,0-1.1-0.5-1.1-1.1V38.5c0-0.6,0.5-1.1,1.1-1.1h42.7c0.6,0,1.1,0.5,1.1,1.1v11.3
		C87,50.5,86.5,50.9,85.9,50.9z"/>
	<path class="st4" d="M144.8,50.9H90.9c-0.6,0-1.1-0.5-1.1-1.1V38.5c0-0.6,0.5-1.1,1.1-1.1h53.9c0.6,0,1.1,0.5,1.1,1.1v11.3
		C146,50.5,145.4,50.9,144.8,50.9z"/>
	<path class="st4" d="M85.9,67H43.2c-0.6,0-1.1-0.5-1.1-1.1V54.6c0-0.6,0.5-1.1,1.1-1.1h42.7c0.6,0,1.1,0.5,1.1,1.1v11.3
		C87,66.5,86.5,67,85.9,67z"/>
	<path class="st4" d="M144.8,67H90.9c-0.6,0-1.1-0.5-1.1-1.1V54.6c0-0.6,0.5-1.1,1.1-1.1h53.9c0.6,0,1.1,0.5,1.1,1.1v11.3
		C146,66.5,145.4,67,144.8,67z"/>
	<path class="st4" d="M239.6,50.9h-89.5c-0.6,0-1.1-0.5-1.1-1.1V38.5c0-0.6,0.5-1.1,1.1-1.1h89.5c0.6,0,1.1,0.5,1.1,1.1v11.3
		C240.9,50.5,240.2,50.9,239.6,50.9z"/>
	<path class="st4" d="M239.6,67h-89.5c-0.6,0-1.1-0.5-1.1-1.1V54.6c0-0.6,0.5-1.1,1.1-1.1h89.5c0.6,0,1.1,0.5,1.1,1.1v11.3
		C240.9,66.5,240.2,67,239.6,67z"/>
</g>
<path class="st1" d="M596.7,63.1h-90.6c-0.7,0-1.3-0.4-1.3-0.6V21.8c0-0.4,0.6-0.6,1.3-0.6h90.6c0.7,0,1.3,0.4,1.3,0.6v40.5
	C598,62.9,597.4,63.1,596.7,63.1z"/>
<g>
	<path class="st14" d="M529.1,34.7c-0.2-2.4-1.5-4.5-5.2-4.3c-2.8,0.2-4.1,3-4.1,4.9c0,1.7,1.1,4.5,4.9,8.8c1.7,1.7,2.2,3.2,2.2,5
		c0,0.9-1.1,2.6-2.2,2.6s-1.3-1.7-1.3-2.6c0-1.1,0.6-2.6-0.4-3c-1.9-0.6-3,0.2-2.6,3.5c0.4,2.6,1.7,4.7,4.9,4.7s4.5-2.8,4.5-6
		s-3.5-6.9-4.9-8.4c-1.3-1.5-2.1-3-2.1-4.5c0-1.5,0.7-2.4,1.7-2.4s1.7,1.7,1.7,2.8c0,1.7,0.6,2.1,1.7,2.1
		C528.9,38,529.3,36.9,529.1,34.7z"/>
	<path class="st14" d="M540.7,30c-0.7,0-1.3,0.7-1.3,1.9c0,1.1,0,7.3,0,9.7c0,5.2,0.9,10.8,1.1,12.3c0.2,0.7,0.7,1.1,1.3,1.1
		s1.5,0,1.3-2.2c-0.2-3-0.7-7.3-0.9-12.3c0-2.1,0.2-8,0-8.8C542.4,30.6,542,30,540.7,30z"/>
	<path class="st14" d="M551.3,29.8c0,0-0.2,1.9,0.9,1.9s3,0,3,0s0.6-0.2,0.6,0.4c0,0.6,0,9.5,0,9.5s0.7,10.5,0.7,11.2
		c0,0.9,0.4,1.7,1.5,1.7c1.3,0,1.1-1.7,1.1-2.4c0-0.6-0.2-16.1-0.2-20.2c0-0.4,0-0.9,1.1-0.9s3-0.2,3.7-0.2c1.1,0,1.1-0.7,1.1-1.5
		c0-0.7,0-1.9-2.2-1.5c-0.9,0-9.1,0.7-10.1,0.7C551.7,28.7,551.3,29.3,551.3,29.8z"/>
	<path class="st14" d="M562.5,32.4c-0.7,0-1.5,0.6-1.5,1.7c0,0.6,0.2,1.3,0.2,1.3s0.2,1.1,2.1,1.1c0.9,0,0.9-1.7,0.9-1.9
		C564.4,33.4,564.6,32.4,562.5,32.4z"/>
	<path class="st14" d="M562.3,38.8c-1.1,0-1.3,0.4-1.3,2.8c0,2.2,0.2,6,0.4,7.1c0,1.7,0.4,2.2,1.7,2.2s1.3-0.9,1.3-2.4
		c0-1.5-0.4-6.9-0.6-8C563.8,39,563.3,38.8,562.3,38.8z"/>
	<path class="st14" d="M569.6,30.6c-1.9,0-3.5,2.4-3.5,5.2c0,2.8,0.2,11.2,1.5,15.3c0.7,2.2,2.1,3.7,4.5,3.4c1.3,0,3.2-1.7,2.8-5.6
		c0-1.3,0-3-0.7-3.4c-0.7-0.6-2.6,0.4-2.2,2.1c0.4,1.7,0.7,3.4-0.2,4.1c-0.7,0.7-1.3,0.6-1.9-0.4c-0.6-0.9-1.9-11-1.3-15.5
		c0.2-0.9,0.4-1.7,1.1-1.7c0.2,0,1.1,0.2,1.1,1.5c0,1.1,0.9,1.5,1.7,1.3c1.1,0,1.3-0.6,0.7-3.4C573.2,31.3,571.9,30.6,569.6,30.6z"
		/>
	<path class="st14" d="M579.7,30.8c-1.1,0-1.7,0.2-2.8,0.2c-0.7,0-0.9,1.1-0.9,2.6c0,1.5,0.7,16.1,1.3,18.7c0.2,0.7,0.4,1.7,1.9,1.7
		s3.4-0.2,4.1-0.7c0.7-0.4,0.6-1.3,0.4-1.9c-0.2-0.7-0.9-0.9-1.9-0.7c-1.5,0.4-2.1,0-2.2-1.1c-0.2-1.5-0.6-4.7-0.7-5.8
		c0-0.4,0-0.6,1.3-0.7c1.3-0.2,2.1,0,2.1-0.9s0-0.9-0.2-1.9c-0.2-0.7-1.3-0.4-2.8-0.4c-0.4,0-0.6-0.2-0.6-0.9c0-0.7,0-4.5,0.2-4.9
		c0.2-0.4,0.2-0.6,1.1-0.7c0.9,0,2.1,0.2,2.2-0.6c0.2-0.7,0.2-1.3-0.2-1.7C581.6,30.6,580.4,30.8,579.7,30.8z"/>
	<path class="st14" d="M533.6,33.9c-0.7,0-1.9,0.7-2.4,2.6c-1.1,3-0.9,6-0.9,9c-0.2,3.4,1.1,6.9,4.3,6.9c3.5,0,3.5-6.3,3.5-9.5
		S537.1,33.9,533.6,33.9z M534.9,49.1c-0.9,1.1-1.9,0.2-2.2-0.6c-0.7-3.5-0.2-8.2,0-9.1c0.6-2.6,2.2-2.1,2.6-0.6
		C536.2,41.8,535.8,47.9,534.9,49.1z"/>
	<path class="st14" d="M552.4,36.7c-0.2-2.1-1.3-3.9-4.5-3.7c-2.6,0.2-3.5,2.8-3.5,4.3s1.7,4.9,3.9,7.8c1.3,2.1,3.2,4.3,3.2,7.5
		c0,0.7-0.2,2.1-1.7,2.2c-0.7,0-1.3-0.7-1.1-2.4c0-0.9,0.6-2.2-0.4-2.6c-1.7-0.6-2.8,0.2-2.2,3.2c0.4,2.4,1.5,4.1,4.3,4.1
		c3.4,0,4.1-2.4,4.1-5.2s-2.1-5.4-3.5-7.8c-1.3-1.9-3.7-5.2-3.7-6.5s0.6-2.1,1.5-2.1c0.9,0,1.5,1.5,1.5,2.4c0,1.5,0.6,1.9,1.3,1.9
		C552.4,39.5,552.8,38.6,552.4,36.7z"/>
</g>
<circle class="st0" cx="310.2" cy="105.7" r="8.2"/>
<circle class="st0" cx="343.4" cy="105.7" r="8.2"/>
<circle class="st3" cx="296.7" cy="97" r="11.1"/>
<path id="Head_x5F_Button" class="st9" d="M359.5,57.2h-66.7c-0.9,0-1.8-0.8-1.8-1.8V40c0-0.9,0.8-1.8,1.8-1.8h66.7
	c0.9,0,1.8,0.8,1.8,1.8v15.4C361.4,56.4,360.6,57.2,359.5,57.2z"/>
<circle class="st3" cx="330.6" cy="144.9" r="5.9"/>
<circle class="st3" cx="265.1" cy="144.6" r="5.9"/>
<circle class="st3" cx="241.2" cy="133.2" r="5.8"/>
<circle class="st3" cx="355.6" cy="136.6" r="5.9"/>
</svg>
