<?xml version="1.0" encoding="utf-8"?>
<!-- Generator: Adobe Illustrator 22.0.1, SVG Export Plug-In . SVG Version: 6.00 Build 0)  -->
<svg version="1.1" id="Capa_1" xmlns="http://www.w3.org/2000/svg" xmlns:xlink="http://www.w3.org/1999/xlink" x="0px" y="0px"
	 viewBox="0 0 655 562" style="enable-background:new 0 0 655 562;" xml:space="preserve">
<style type="text/css">
	.st0{fill:#C4D6D3;}
	.st1{display:none;fill:#FD141C;stroke:#003E51;}
	.st2{display:none;fill:#FFFA02;stroke:#003E51;}
	.st3{display:none;}
	.st4{display:inline;}
	.st5{fill:#FFFF6E;stroke:#003E51;stroke-linecap:round;stroke-linejoin:round;stroke-dasharray:6,8;}
	.st6{fill:#6CFFE3;stroke:#003E51;}
	.st7{fill:#B6FFF1;stroke:#003E51;}
	.st8{display:none;fill:#55DFFF;stroke:#003E51;}
	.st9{display:none;fill:#0F38FF;stroke:#003E51;}
	.st10{fill:none;stroke:#003E51;stroke-width:2;stroke-linecap:round;stroke-linejoin:round;stroke-dasharray:3;}
	.st11{display:none;fill:#7F3F06;stroke:#003E51;}
	.st12{fill:#E1FFF9;stroke:#003E51;stroke-linecap:round;stroke-linejoin:round;}
	.st13{fill:none;stroke:#003E51;stroke-linecap:round;stroke-linejoin:round;}
	.st14{fill:#E1FFF9;stroke:#003E51;stroke-width:2;stroke-linecap:round;stroke-linejoin:round;stroke-dasharray:6,8;}
	.st15{display:none;fill:#FC0042;stroke:#003E51;}
	.st16{display:none;fill:#00FFB6;stroke:#003E51;}
	.st17{display:none;fill:#B6FFF1;stroke:#003E51;}
	.st18{display:inline;fill:#6CFFE3;stroke:#003E51;}
	.st19{fill:#05C19D;}
	.st20{display:inline;fill:#FFFF6E;stroke:#003E51;stroke-linecap:round;stroke-linejoin:round;stroke-dasharray:6,8;}
	.st21{display:inline;fill:#E1FFF9;stroke:#003E51;stroke-linecap:round;stroke-linejoin:round;}
	.st22{display:none;fill:#E1FFF9;stroke:#003E51;stroke-width:2;stroke-linecap:round;stroke-linejoin:round;}
	.st23{display:none;fill:#008E73;enable-background:new    ;}
	.st24{font-family:'Impact';}
	.st25{font-size:10.907px;}
	.st26{display:none;fill:#FFFF6E;stroke:#003E51;}
	.st27{fill:#FFFFFF;stroke:#003E51;}
	.st28{fill:#B6FFF1;}
	.st29{fill:#007070;stroke:#00181E;}
	.st30{fill:#003E51;}
	.st31{fill:#F8FFFE;stroke:#003E51;stroke-width:2;}
	.st32{fill:#E8FF06;stroke:#003E51;stroke-width:2;}
	.st33{display:none;fill:#003E51;}
	.st34{fill:#FFFFFF;stroke:#003E51;stroke-width:2;}
	.st35{fill:#FF64A3;stroke:#003E51;stroke-width:2;}
	.st36{fill:#27FFD5;stroke:#003E51;stroke-width:2;}
	.st37{display:inline;fill:#E1FFF9;stroke:#003E51;stroke-width:2;stroke-linecap:round;stroke-linejoin:round;}
	.st38{display:inline;fill:#008E73;}
	.st39{font-size:9.7701px;}
	.st40{fill:#E1FFF9;stroke:#003E51;}
	.st41{display:inline;fill:#FFCE00;stroke:#003E51;}
	.st42{display:inline;fill:#55DFFF;stroke:#003E51;}
	.st43{font-size:10.28px;}
	.st44{fill:#FFFF6E;stroke:#003E51;}
	.st45{fill:#FFB0C5;stroke:#003E51;}
	.st46{fill:#E58FAA;}
	.st47{fill:none;stroke:#B53966;stroke-width:4;stroke-linecap:round;stroke-linejoin:round;stroke-miterlimit:10;}
	.st48{fill:#61C9B5;stroke:#003E51;}
	.st49{clip-path:url(#SVGID_2_);}
	.st50{display:none;fill:none;stroke:#003E51;}
	.st51{display:inline;fill:#FFFF6E;stroke:#003E51;}
	.st52{font-size:10.1744px;}
	.st53{fill:#FFFFFF;}
	.st54{font-size:10.3107px;}
	.st55{display:inline;fill:#AA6D80;stroke:#003E51;}
	.st56{display:inline;fill:#FFFFFF;}
	.st57{fill:none;stroke:#003E51;stroke-width:2;stroke-linecap:round;stroke-linejoin:round;stroke-dasharray:6,8;}
	.st58{display:none;fill:#E1FFF9;stroke:#003E51;stroke-linecap:round;stroke-linejoin:round;}
	.st59{fill:#FFBA31;stroke:#003E51;}
	.st60{fill:#1A87FF;stroke:#003E51;}
	.st61{display:inline;fill:#DAFF00;stroke:#003E51;}
	.st62{fill:#A3B2AF;stroke:#848484;}
	.st63{display:inline;fill:#64FF00;stroke:#003E51;}
</style>
<rect class="st0" width="655" height="562"/>
<g>
	
		<ellipse transform="matrix(0.1602 -0.9871 0.9871 0.1602 84.6688 434.8345)" class="st1" cx="297.9" cy="167.7" rx="9.3" ry="9.3"/>
	<ellipse transform="matrix(0.1602 -0.9871 0.9871 0.1602 66.6226 450.3349)" class="st1" cx="298" cy="186" rx="9.3" ry="9.3"/>
	<circle class="st1" cx="307.2" cy="227.4" r="9.3"/>
	<circle class="st1" cx="307.2" cy="290.2" r="9.3"/>
	<circle class="st1" cx="307.2" cy="248.4" r="9.3"/>
	<circle class="st1" cx="307.2" cy="269.3" r="9.3"/>
	<circle class="st2" cx="287.4" cy="237" r="9.3"/>
	<circle class="st2" cx="287.4" cy="280.9" r="9.3"/>
	<circle class="st2" cx="287.4" cy="258.9" r="9.3"/>
</g>
<circle class="st2" cx="296.7" cy="97" r="11.1"/>
<g class="st3">
	<g class="st4">
		<path class="st5" d="M380.6,332.9H270.3c-5.5,0-8-4.9-10-10c-15.7-38.7-9.9-68.3,0-104.8c1.5-5.4,4.5-10,10-10h110.3
			c5.5,0,7.8,5,10,10c13.9,31.9,18.9,63.8,0,104.8C388.3,327.9,386.2,332.9,380.6,332.9z"/>
		<path class="st5" d="M377.1,203.8H276.4c-5.5,0-10-4.5-10-10l11.6-26.6c0-5.5,4.5-10,10-10h79c5.5,0,10,4.5,10,10l10,26.6
			C387.2,199.2,382.6,203.8,377.1,203.8z"/>
		<path class="st5" d="M353.2,152.9h-51.5c-9.1,0-16.5-4.5-16.5-10l16-48c0-5.5,4.5-10,10-10h31.4c5.5,0,10,4.5,10,10l17.2,48
			C369.7,148.5,362.2,152.9,353.2,152.9z"/>
		<path class="st5" d="M328.7,124.4h-3.8c-3.7,0-6.8-2.6-6.8-5.7l1.9-19.3c0-2.8,2.3-5.1,5.1-5.1h3c2.8,0,5.1,2.3,5.1,5.1l1.9,19.3
			C335.5,121.8,332.4,124.4,328.7,124.4z"/>
		<g>
			<path class="st6" d="M289.2,122.9c-3,8.8-4.9,17.6-13.8,14.6c-8.8-3-13.5-12.6-10.5-21.4s12.6-13.5,21.4-10.5
				C295,108.5,292.2,114.1,289.2,122.9z"/>
			<path class="st6" d="M321,92.5l-19.9,2.7c-1.5,0.3-2.7-0.8-3-2.2l-1.4-10.1c-0.3-1.5,0.8-2.7,2.2-3l19.9-2.7
				c1.5-0.3,2.7,0.8,3,2.2l1.4,10.1C323.3,91,322.4,92.4,321,92.5z"/>
		</g>
		<g>
			<path class="st6" d="M365.2,122.2c3,8.8,4.9,17.6,13.8,14.6c8.8-3,13.5-12.6,10.5-21.4S377,102,368.2,104.9
				C359.3,107.9,362.2,113.5,365.2,122.2z"/>
			<path class="st6" d="M333.4,91.8l19.9,2.7c1.5,0.3,2.7-0.8,3-2.2l1.4-10.1c0.3-1.5-0.8-2.7-2.2-3l-19.9-2.7
				c-1.5-0.3-2.7,0.8-3,2.2l-1.4,10.1C331,90.3,332.1,91.7,333.4,91.8z"/>
		</g>
	</g>
	<g class="st4">
		<g>
			<g>
				<path class="st7" d="M370.2,521.7c0,0,5.5,0,8.2,0c1.2,0,3.2-1.4,3.1-3.8c-0.1-2.3-3.9-10-5.9-11.9c-1.9-1.9-4.1-2.3-6.5-2
					C366.3,504.4,368.6,521.7,370.2,521.7z"/>
				<path class="st7" d="M346.6,521.7c0,0-5.3,0-8,0c-1.2,0-3.1-1.4-3-3.5c0.1-2.3,3.8-9.6,5.7-11.4c1.9-1.8,3.8-2.2,6.2-1.9
					C350.2,505.1,348,521.7,346.6,521.7z"/>
				<path class="st7" d="M368.6,521.7c0,0-13.1,0-19.3,0c-1.1,0-1.8-2.3-1.8-4.1s0.1-10.4,2.2-13.2c2-2.8,4.5-4.9,8.8-4.6
					s8,2.3,9.1,5.8C368.7,509.2,370.9,521.7,368.6,521.7z"/>
			</g>
			<path class="st7" d="M352.4,416.6h9.1c3,0,5.5-4.9,5.5-10.8l8.2-60c0-5.5-4.5-10-10-10h-16.5c-5.5,0-10,4.5-10,10l8.2,60
				C346.8,411.7,349.4,416.6,352.4,416.6z"/>
			<path class="st7" d="M354,491.7h5.9c2,0,3.7-3.1,3.7-7l5.4-40.4c0-3.7-3-6.6-6.6-6.6h-10.8c-3.7,0-6.6,3-6.6,6.6l5.4,40.4
				C350.3,488.6,352,491.7,354,491.7z"/>
			<circle class="st8" cx="356.8" cy="416.6" r="8.9"/>
			<circle class="st2" cx="345.6" cy="433.2" r="8.9"/>
			<circle class="st1" cx="370.2" cy="433.2" r="8.9"/>
			<circle class="st1" cx="356.8" cy="496.5" r="8.9"/>
			<circle class="st1" cx="368.9" cy="525.1" r="8.9"/>
			<circle class="st2" cx="349.5" cy="525.1" r="8.9"/>
		</g>
		<circle class="st1" cx="359.8" cy="337.3" r="12.2"/>
		<circle class="st8" cx="386.8" cy="351.9" r="12"/>
	</g>
	<g class="st4">
		<g>
			<g>
				<path class="st7" d="M282.2,521.7c0,0-5.5,0-8.2,0c-1.2,0-3.2-1.4-3.1-3.8c0.1-2.4,3.9-10,5.9-11.9c1.9-1.9,4.1-2.3,6.5-2
					C286,504.4,283.8,521.7,282.2,521.7z"/>
				<path class="st7" d="M305.9,521.7c0,0,5.3,0,8,0c1.2,0,3.1-1.4,3-3.5c-0.1-2.3-3.8-9.6-5.7-11.4c-1.9-1.8-3.8-2.2-6.2-1.9
					C302.2,505.1,304.2,521.7,305.9,521.7z"/>
				<path class="st7" d="M283.8,521.7c0,0,13.1,0,19.3,0c1.1,0,1.8-2.3,1.8-4.1s-0.1-10.4-2.2-13.2c-2-2.8-4.5-4.9-8.8-4.6
					s-8,2.3-9.1,5.8C283.7,509.2,281.4,521.7,283.8,521.7z"/>
			</g>
			<path class="st7" d="M300,416.6h-9c-3,0-5.5-4.9-5.5-10.8l-8.2-60c0-5.5,4.5-10,10-10h16.5c5.5,0,10,4.5,10,10l-8.2,60
				C305.5,411.7,303,416.6,300,416.6z"/>
			<path class="st7" d="M298.4,491.7h-5.9c-2,0-3.7-3.1-3.7-7l-5.4-40.4c0-3.7,3-6.6,6.6-6.6h10.8c3.7,0,6.6,3,6.6,6.6l-5.4,40.4
				C301.9,488.6,300.4,491.7,298.4,491.7z"/>
			<circle class="st8" cx="295.4" cy="416.6" r="8.9"/>
			<circle class="st2" cx="306.7" cy="433.2" r="8.9"/>
			<circle class="st1" cx="282.1" cy="433.2" r="8.9"/>
			<circle class="st1" cx="295.4" cy="495.1" r="8.9"/>
			<circle class="st1" cx="283.6" cy="525.1" r="8.9"/>
			<circle class="st2" cx="302.9" cy="525.1" r="8.9"/>
		</g>
		<circle class="st1" cx="292.6" cy="337.3" r="12.2"/>
		<circle class="st8" cx="265.6" cy="351.9" r="12"/>
	</g>
	<g class="st4">
		<g>
			<circle class="st7" cx="384.4" cy="181.7" r="21.2"/>
			<path class="st7" d="M507.8,312.1l10-11.4c3.7-4.2,3.2-10.5-0.8-14.2l-43-44.6c-4.7-5.1-12-4.6-16.4,1.2l-11.5,15.8
				c-4.2,5.8-3.8,14.7,0.9,20l46.4,34.1C497.7,316.7,504.1,316.2,507.8,312.1z"/>
			<path class="st6" d="M439.4,264.7c4.5-4.6,11.6-17.8,15.7-22.8c3.5-4.3,5.4-10.4,2.3-14.9L420,189.4c-3.1-4.6-10.3-6.6-12-1.4
				c-2.3,6.6-7.7,13.8-11.2,17c-4.2,3.7-4.2,14.9-0.9,19.5c0,0,13.8,21.8,30,36.4C429.8,264.6,435.6,268.7,439.4,264.7z"/>
		</g>
		<ellipse class="st9" cx="458.9" cy="256.7" rx="12" ry="12"/>
		<circle class="st1" cx="491.3" cy="306.8" r="12.2"/>
		<circle class="st2" cx="521.5" cy="291.4" r="12"/>
		<circle class="st1" cx="440.6" cy="283.9" r="12.2"/>
		<circle class="st2" cx="484.4" cy="242" r="12"/>
		<circle class="st1" cx="402.5" cy="195.8" r="12.2"/>
		<circle class="st1" cx="378.1" cy="169.4" r="12.2"/>
	</g>
	<g class="st4">
		<g>
			<ellipse transform="matrix(0.6 -0.8 0.8 0.6 -37.2708 285.8525)" class="st7" cx="267.2" cy="180.2" rx="21.2" ry="21.2"/>
			<path class="st7" d="M143.9,310.6l-10-11.4c-3.7-4.2-3.2-10.5,0.8-14.2l43-44.7c4.7-5.1,12-4.6,16.4,1.2l11.5,15.8
				c4.2,5.8,3.8,14.7-0.9,20l-46.4,34.1C153.9,315.2,147.5,314.8,143.9,310.6z"/>
			<path class="st6" d="M212.2,263.3c-4.5-4.6-11.6-17.8-15.7-22.8c-3.5-4.3-5.4-10.4-2.3-14.9l37.4-37.6c3.1-4.6,10.3-6.6,12-1.4
				c2.3,6.6,7.7,13.8,11.2,17c4.2,3.7,4.2,14.9,0.9,19.5c0,0-13.8,21.8-30,36.4C221.8,263,216.1,267.2,212.2,263.3z"/>
		</g>
		<circle class="st8" cx="194.3" cy="298.2" r="13"/>
		<circle class="st1" cx="161.6" cy="353.4" r="13.1"/>
		<circle class="st2" cx="124.8" cy="334.2" r="13"/>
		<circle class="st1" cx="211.5" cy="325" r="13.1"/>
		<circle class="st2" cx="164.8" cy="283.8" r="13"/>
		<ellipse transform="matrix(0.6 -0.8 0.8 0.6 -83.7521 297.0945)" class="st1" cx="255.2" cy="232.3" rx="13.1" ry="13.1"/>
		<circle class="st1" cx="281.5" cy="203.8" r="13.1"/>
		<g>
			<circle class="st2" cx="124.8" cy="477.9" r="13"/>
			<g>
				<path class="st6" d="M147.8,361.5l-40-0.9c-1.9,0-3.4-1.6-3.2-3.5l0.9-40c0-1.9,1.6-3.4,3.5-3.2l40,0.9c1.9,0,3.4,1.6,3.2,3.5
					l-0.9,40C151.3,360.2,149.7,361.7,147.8,361.5z"/>
				<g>
					<line class="st10" x1="145" y1="368.4" x2="130.6" y2="339.9"/>
					<line class="st10" x1="127.1" y1="368.8" x2="130" y2="339.9"/>
					<line class="st10" x1="109.8" y1="371.9" x2="129.3" y2="339.6"/>
					<line class="st10" x1="117" y1="321.3" x2="127.7" y2="336.8"/>
					<line class="st10" x1="145" y1="321.3" x2="130.6" y2="339.9"/>
					<line class="st10" x1="131.3" y1="321.3" x2="130" y2="339.6"/>
					<line class="st10" x1="91.7" y1="331" x2="130" y2="339.9"/>
				</g>
				<circle class="st11" cx="117.7" cy="321.3" r="5.5"/>
				<circle class="st11" cx="131.3" cy="321.3" r="5.5"/>
				<circle class="st11" cx="145" cy="321.3" r="5.5"/>
				<circle class="st11" cx="130" cy="339.9" r="8.9"/>
			</g>
			<g>
				<path class="st7" d="M98.3,333.8L71,354.9c-1.1,0.8-2.4,0.5-3.2-0.4l-5.5-7.2c-0.8-1.1-0.5-2.4,0.4-3.2L90,323
					c1.1-0.8,2.4-0.5,3.2,0.4l5.5,7.2C99.6,331.5,99.3,333,98.3,333.8z"/>
				<g>
					
						<ellipse transform="matrix(0.1895 -0.9819 0.9819 0.1895 -302.7234 390.5866)" class="st11" cx="85.2" cy="378.7" rx="7.4" ry="7.4"/>
					<ellipse class="st11" cx="73" cy="388.4" rx="7.6" ry="7.6"/>
					<ellipse class="st11" cx="60.7" cy="398.2" rx="7.6" ry="7.6"/>
				</g>
			</g>
			<g>
				<g>
					<path class="st7" d="M148,401.8h-8c-1.1,0-2-0.9-2-2l-0.3-32.3c0-1.1,0.9-2,2-2h8c1.1,0,2,0.9,2,2l0.3,32.3
						C150,400.9,149,401.8,148,401.8z"/>
					<ellipse class="st11" cx="143.8" cy="370.5" rx="6.4" ry="6.4"/>
					<ellipse class="st11" cx="143.8" cy="383.4" rx="6.4" ry="6.4"/>
					<ellipse class="st11" cx="143.7" cy="396.3" rx="6.4" ry="6.4"/>
				</g>
				<g>
					<path class="st7" d="M130.6,401.8h-8c-1.1,0-2-0.9-2-2l-0.3-32.3c0-1.1,0.9-2,2-2h8c1.1,0,2,0.9,2,2l0.3,32.3
						C132.7,400.9,131.7,401.8,130.6,401.8z"/>
					<ellipse class="st11" cx="126.6" cy="370.4" rx="6.4" ry="6.4"/>
					<ellipse class="st11" cx="126.5" cy="383.4" rx="6.4" ry="6.4"/>
					<ellipse class="st11" cx="126.4" cy="396.3" rx="6.4" ry="6.4"/>
				</g>
				<g>
					<path class="st7" d="M113.9,401.8h-8c-1.1,0-2-0.9-2-2l-0.3-32.3c0-1.1,0.9-2,2-2h8c1.1,0,2,0.9,2,2l0.3,32.3
						C115.9,400.9,115,401.8,113.9,401.8z"/>
					<ellipse class="st11" cx="109.8" cy="370.4" rx="6.4" ry="6.4"/>
					<ellipse class="st11" cx="109.7" cy="383.4" rx="6.4" ry="6.4"/>
					<ellipse class="st11" cx="109.7" cy="396.3" rx="6.4" ry="6.4"/>
				</g>
			</g>
		</g>
		<g>
			<circle class="st2" cx="552.1" cy="481.9" r="13"/>
			<g>
				<path class="st6" d="M504.6,365.3l40-0.9c1.9,0,3.4-1.6,3.2-3.5l-0.9-40c0-1.9-1.6-3.4-3.5-3.2l-40,0.9c-1.9,0-3.4,1.6-3.2,3.5
					l0.9,40C501.2,363.8,502.8,365.3,504.6,365.3z"/>
				<g>
					<line class="st10" x1="507.6" y1="372.2" x2="521.9" y2="343.6"/>
					<line class="st10" x1="525.4" y1="372.5" x2="522.4" y2="343.6"/>
					<line class="st10" x1="542.7" y1="375.7" x2="523.3" y2="343.4"/>
					<line class="st10" x1="535.6" y1="325" x2="524.9" y2="340.6"/>
					<line class="st10" x1="507.6" y1="325" x2="521.9" y2="343.6"/>
					<line class="st10" x1="521.2" y1="325" x2="522.4" y2="343.4"/>
					<line class="st10" x1="560.7" y1="334.6" x2="522.4" y2="343.6"/>
				</g>
				<circle class="st11" cx="534.9" cy="325" r="5.5"/>
				<circle class="st11" cx="521.2" cy="325" r="5.5"/>
				<ellipse transform="matrix(0.6 -0.8 0.8 0.6 -56.942 536.1027)" class="st11" cx="507.6" cy="325" rx="5.5" ry="5.5"/>
				<circle class="st11" cx="522.4" cy="343.6" r="8.9"/>
			</g>
			<g>
				<path class="st7" d="M554.2,337.5l27.3,21.1c1.1,0.8,2.4,0.5,3.2-0.4l5.5-7.2c0.8-1.1,0.5-2.4-0.4-3.2l-27.3-21.1
					c-1.1-0.8-2.4-0.5-3.2,0.4l-5.5,7.2C553,335.3,553.3,336.8,554.2,337.5z"/>
				<g>
					<ellipse class="st11" cx="591.7" cy="382.7" rx="7.4" ry="7.4"/>
					<ellipse class="st11" cx="604" cy="392.5" rx="7.6" ry="7.6"/>
					<ellipse class="st11" cx="616.3" cy="402.3" rx="7.6" ry="7.6"/>
				</g>
			</g>
			<g>
				<g>
					<path class="st7" d="M504.6,405.5h8c1.1,0,2-0.9,2-2l0.3-32.3c0-1.1-0.9-2-2-2h-8c-1.1,0-2,0.9-2,2l-0.3,32.3
						C502.6,404.5,503.5,405.5,504.6,405.5z"/>
					<ellipse class="st11" cx="508.6" cy="374.1" rx="6.4" ry="6.4"/>
					<ellipse class="st11" cx="508.6" cy="387.1" rx="6.4" ry="6.4"/>
					<ellipse class="st11" cx="508.6" cy="400.1" rx="6.4" ry="6.4"/>
				</g>
				<g>
					<path class="st7" d="M521.9,405.5h8c1.1,0,2-0.9,2-2l0.3-32.3c0-1.1-0.9-2-2-2h-8c-1.1,0-2,0.9-2,2l-0.3,32.3
						C519.9,404.5,520.7,405.5,521.9,405.5z"/>
					<ellipse class="st11" cx="526" cy="374.1" rx="6.4" ry="6.4"/>
					<ellipse class="st11" cx="526" cy="387.1" rx="6.4" ry="6.4"/>
					<ellipse class="st11" cx="526" cy="400.1" rx="6.4" ry="6.4"/>
				</g>
				<g>
					<path class="st7" d="M538.7,405.5h8c1.1,0,2-0.9,2-2l0.3-32.3c0-1.1-0.9-2-2-2h-8c-1.1,0-2,0.9-2,2l-0.3,32.3
						C536.6,404.5,537.6,405.5,538.7,405.5z"/>
					<ellipse class="st11" cx="542.7" cy="374.1" rx="6.4" ry="6.4"/>
					<ellipse class="st11" cx="542.7" cy="387.1" rx="6.4" ry="6.4"/>
					<ellipse class="st11" cx="542.7" cy="400.1" rx="6.4" ry="6.4"/>
				</g>
			</g>
		</g>
		<path class="st12" d="M210.5,354.8h-33.9c-0.9,0-1.8-0.8-1.8-1.8v-30.4c0-0.9,0.8-1.8,1.8-1.8h33.9c0.9,0,1.8,0.8,1.8,1.8v30.3
			C212.3,354,211.5,354.8,210.5,354.8z"/>
		<path class="st12" d="M475.8,353.8h-33.9c-0.9,0-1.8-0.8-1.8-1.8v-30.4c0-0.9,0.8-1.8,1.8-1.8h33.9c0.9,0,1.8,0.8,1.8,1.8V352
			C477.7,353,476.9,353.8,475.8,353.8z"/>
		<line class="st13" x1="175.3" y1="322.9" x2="168.9" y2="316.7"/>
		<line class="st13" x1="475.9" y1="321.3" x2="481.7" y2="315.4"/>
	</g>
	<g class="st4">
		<path class="st14" d="M245.7,94.3H39.1c-0.6,0-1.1-0.4-1.1-0.9V34.7c0-0.5,0.5-0.9,1.1-0.9h206.8c0.6,0,1.1,0.4,1.1,0.9v58.5
			C247,93.8,246.4,94.3,245.7,94.3z"/>
		<path class="st15" d="M136.8,79.6H43.2c-0.6,0-1.1-0.4-1.1-0.9V65.2c0-0.5,0.5-0.9,1.1-0.9h93.6c0.6,0,1.1,0.4,1.1,0.9v13.5
			C138,79,137.4,79.6,136.8,79.6z"/>
		<path class="st16" d="M239.9,79.6h-96.2c-0.6,0-1.1-0.4-1.1-0.9V65.2c0-0.5,0.5-0.9,1.1-0.9h96.2c0.6,0,1.1,0.4,1.1,0.9v13.5
			C241,79,240.5,79.6,239.9,79.6z"/>
		<path class="st17" d="M85.9,48.4H43.2c-0.6,0-1.1-0.4-1.1-0.9v-9.6c0-0.5,0.5-0.9,1.1-0.9h42.7c0.6,0,1.1,0.4,1.1,0.9v9.6
			C87,48,86.5,48.4,85.9,48.4z"/>
		<path class="st17" d="M144.8,48.4H90.9c-0.6,0-1.1-0.4-1.1-0.9v-9.6c0-0.5,0.5-0.9,1.1-0.9h53.9c0.6,0,1.1,0.4,1.1,0.9v9.6
			C146,48,145.4,48.4,144.8,48.4z"/>
		<path class="st17" d="M85.9,62.1H43.2c-0.6,0-1.1-0.4-1.1-0.9v-9.6c0-0.5,0.5-0.9,1.1-0.9h42.7c0.6,0,1.1,0.4,1.1,0.9v9.6
			C87,61.7,86.5,62.1,85.9,62.1z"/>
		<path class="st17" d="M144.8,62.1H90.9c-0.6,0-1.1-0.4-1.1-0.9v-9.6c0-0.5,0.5-0.9,1.1-0.9h53.9c0.6,0,1.1,0.4,1.1,0.9v9.6
			C146,61.7,145.4,62.1,144.8,62.1z"/>
		<path class="st17" d="M239.6,48.4h-89.5c-0.6,0-1.1-0.4-1.1-0.9v-9.6c0-0.5,0.5-0.9,1.1-0.9h89.5c0.6,0,1.1,0.4,1.1,0.9v9.6
			C240.9,48,240.2,48.4,239.6,48.4z"/>
		<path class="st17" d="M239.6,62.1h-89.5c-0.6,0-1.1-0.4-1.1-0.9v-9.6c0-0.5,0.5-0.9,1.1-0.9h89.5c0.6,0,1.1,0.4,1.1,0.9v9.6
			C240.9,61.7,240.2,62.1,239.6,62.1z"/>
	</g>
	<path class="st18" d="M596.7,63.1h-90.6c-0.7,0-1.3-0.4-1.3-0.6V21.8c0-0.4,0.6-0.6,1.3-0.6h90.6c0.7,0,1.3,0.4,1.3,0.6v40.5
		C598,62.9,597.4,63.1,596.7,63.1z"/>
	<g class="st4">
		<path class="st19" d="M529.1,34.7c-0.2-2.4-1.5-4.5-5.2-4.3c-2.8,0.2-4.1,3-4.1,4.9c0,1.7,1.1,4.5,4.9,8.8c1.7,1.7,2.2,3.2,2.2,5
			c0,0.9-1.1,2.6-2.2,2.6s-1.3-1.7-1.3-2.6c0-1.1,0.6-2.6-0.4-3c-1.9-0.6-3,0.2-2.6,3.5c0.4,2.6,1.7,4.7,4.9,4.7s4.5-2.8,4.5-6
			s-3.5-6.9-4.9-8.4c-1.3-1.5-2.1-3-2.1-4.5s0.7-2.4,1.7-2.4s1.7,1.7,1.7,2.8c0,1.7,0.6,2.1,1.7,2.1C528.9,38,529.3,36.9,529.1,34.7
			z"/>
		<path class="st19" d="M540.7,30c-0.7,0-1.3,0.7-1.3,1.9c0,1.1,0,7.3,0,9.7c0,5.2,0.9,10.8,1.1,12.3c0.2,0.7,0.7,1.1,1.3,1.1
			s1.5,0,1.3-2.2c-0.2-3-0.7-7.3-0.9-12.3c0-2.1,0.2-8,0-8.8C542.4,30.6,542,30,540.7,30z"/>
		<path class="st19" d="M551.3,29.8c0,0-0.2,1.9,0.9,1.9s3,0,3,0s0.6-0.2,0.6,0.4c0,0.6,0,9.5,0,9.5s0.7,10.5,0.7,11.2
			c0,0.9,0.4,1.7,1.5,1.7c1.3,0,1.1-1.7,1.1-2.4c0-0.6-0.2-16.1-0.2-20.2c0-0.4,0-0.9,1.1-0.9s3-0.2,3.7-0.2c1.1,0,1.1-0.7,1.1-1.5
			c0-0.7,0-1.9-2.2-1.5c-0.9,0-9.1,0.7-10.1,0.7C551.7,28.7,551.3,29.3,551.3,29.8z"/>
		<path class="st19" d="M562.5,32.4c-0.7,0-1.5,0.6-1.5,1.7c0,0.6,0.2,1.3,0.2,1.3s0.2,1.1,2.1,1.1c0.9,0,0.9-1.7,0.9-1.9
			C564.4,33.4,564.6,32.4,562.5,32.4z"/>
		<path class="st19" d="M562.3,38.8c-1.1,0-1.3,0.4-1.3,2.8c0,2.2,0.2,6,0.4,7.1c0,1.7,0.4,2.2,1.7,2.2s1.3-0.9,1.3-2.4
			s-0.4-6.9-0.6-8C563.8,39,563.3,38.8,562.3,38.8z"/>
		<path class="st19" d="M569.6,30.6c-1.9,0-3.5,2.4-3.5,5.2s0.2,11.2,1.5,15.3c0.7,2.2,2.1,3.7,4.5,3.4c1.3,0,3.2-1.7,2.8-5.6
			c0-1.3,0-3-0.7-3.4c-0.7-0.6-2.6,0.4-2.2,2.1c0.4,1.7,0.7,3.4-0.2,4.1c-0.7,0.7-1.3,0.6-1.9-0.4c-0.6-0.9-1.9-11-1.3-15.5
			c0.2-0.9,0.4-1.7,1.1-1.7c0.2,0,1.1,0.2,1.1,1.5c0,1.1,0.9,1.5,1.7,1.3c1.1,0,1.3-0.6,0.7-3.4C573.2,31.3,571.9,30.6,569.6,30.6z"
			/>
		<path class="st19" d="M579.7,30.8c-1.1,0-1.7,0.2-2.8,0.2c-0.7,0-0.9,1.1-0.9,2.6s0.7,16.1,1.3,18.7c0.2,0.7,0.4,1.7,1.9,1.7
			s3.4-0.2,4.1-0.7c0.7-0.4,0.6-1.3,0.4-1.9c-0.2-0.7-0.9-0.9-1.9-0.7c-1.5,0.4-2.1,0-2.2-1.1c-0.2-1.5-0.6-4.7-0.7-5.8
			c0-0.4,0-0.6,1.3-0.7c1.3-0.2,2.1,0,2.1-0.9s0-0.9-0.2-1.9c-0.2-0.7-1.3-0.4-2.8-0.4c-0.4,0-0.6-0.2-0.6-0.9s0-4.5,0.2-4.9
			s0.2-0.6,1.1-0.7c0.9,0,2.1,0.2,2.2-0.6c0.2-0.7,0.2-1.3-0.2-1.7C581.6,30.6,580.4,30.8,579.7,30.8z"/>
		<path class="st19" d="M533.6,33.9c-0.7,0-1.9,0.7-2.4,2.6c-1.1,3-0.9,6-0.9,9c-0.2,3.4,1.1,6.9,4.3,6.9c3.5,0,3.5-6.3,3.5-9.5
			S537.1,33.9,533.6,33.9z M534.9,49.1c-0.9,1.1-1.9,0.2-2.2-0.6c-0.7-3.5-0.2-8.2,0-9.1c0.6-2.6,2.2-2.1,2.6-0.6
			C536.2,41.8,535.8,47.9,534.9,49.1z"/>
		<path class="st19" d="M552.4,36.7c-0.2-2.1-1.3-3.9-4.5-3.7c-2.6,0.2-3.5,2.8-3.5,4.3s1.7,4.9,3.9,7.8c1.3,2.1,3.2,4.3,3.2,7.5
			c0,0.7-0.2,2.1-1.7,2.2c-0.7,0-1.3-0.7-1.1-2.4c0-0.9,0.6-2.2-0.4-2.6c-1.7-0.6-2.8,0.2-2.2,3.2c0.4,2.4,1.5,4.1,4.3,4.1
			c3.4,0,4.1-2.4,4.1-5.2s-2.1-5.4-3.5-7.8c-1.3-1.9-3.7-5.2-3.7-6.5s0.6-2.1,1.5-2.1s1.5,1.5,1.5,2.4c0,1.5,0.6,1.9,1.3,1.9
			C552.4,39.5,552.8,38.6,552.4,36.7z"/>
	</g>
	<circle class="st20" cx="310.2" cy="105.7" r="8.2"/>
	<circle class="st20" cx="343.4" cy="105.7" r="8.2"/>
	<path id="Head_x5F_Button" class="st21" d="M359.5,57.2h-66.7c-0.9,0-1.8-0.8-1.8-1.8V40c0-0.9,0.8-1.8,1.8-1.8h66.7
		c0.9,0,1.8,0.8,1.8,1.8v15.4C361.4,56.4,360.6,57.2,359.5,57.2z"/>
</g>
<circle class="st2" cx="330.6" cy="144.9" r="5.9"/>
<circle class="st2" cx="265.1" cy="144.6" r="5.9"/>
<circle class="st2" cx="241.2" cy="133.2" r="5.8"/>
<circle class="st2" cx="355.6" cy="136.6" r="5.9"/>
<g>
	<path class="st14" d="M241,93.2H43c-2.8,0-5-2.3-5-5V37.5c0-2.8,2.3-5,5-5h198c2.8,0,5,2.3,5,5v50.8C246,91,243.8,93.2,241,93.2z"
		/>
	<path class="st15" d="M132.6,78.4H47.2c-2.8,0-5-2.3-5-5v-5.5c0-2.8,2.3-5,5-5h85.4c2.8,0,5,2.3,5,5v5.5
		C137.6,76.2,135.3,78.4,132.6,78.4z"/>
	<path class="st16" d="M235.1,78.4H147c-2.8,0-5-2.3-5-5v-5.5c0-2.8,2.3-5,5-5h88.1c2.8,0,5,2.3,5,5v5.5
		C240.1,76.2,237.9,78.4,235.1,78.4z"/>
	<path class="st17" d="M81.9,47.2H47.2c-2.8,0-5-2.3-5-5v-1.8c0-2.8,2.3-5,5-5h34.7c2.8,0,5,2.3,5,5v1.8
		C86.9,44.9,84.7,47.2,81.9,47.2z"/>
	<path class="st17" d="M140.6,47.2H94.7c-2.8,0-5-2.3-5-5v-1.8c0-2.8,2.3-5,5-5h45.9c2.8,0,5,2.3,5,5v1.8
		C145.6,44.9,143.3,47.2,140.6,47.2z"/>
	<path class="st17" d="M81.9,60.9H47.2c-2.8,0-5-2.3-5-5v-1.8c0-2.8,2.3-5,5-5h34.7c2.8,0,5,2.3,5,5v1.8
		C86.9,58.7,84.7,60.9,81.9,60.9z"/>
	<path class="st17" d="M140.6,60.9H94.7c-2.8,0-5-2.3-5-5v-1.8c0-2.8,2.3-5,5-5h45.9c2.8,0,5,2.3,5,5v1.8
		C145.6,58.7,143.3,60.9,140.6,60.9z"/>
	<path class="st17" d="M234.9,47.2h-81.3c-2.8,0-5-2.3-5-5v-1.8c0-2.8,2.3-5,5-5h81.3c2.8,0,5,2.3,5,5v1.8
		C239.9,44.9,237.7,47.2,234.9,47.2z"/>
	<path class="st17" d="M234.9,60.9h-81.3c-2.8,0-5-2.3-5-5v-1.8c0-2.8,2.3-5,5-5h81.3c2.8,0,5,2.3,5,5v1.8
		C239.9,58.7,237.7,60.9,234.9,60.9z"/>
</g>
<circle class="st8" cx="-1377.1" cy="235.2" r="17.9"/>
<circle class="st1" cx="-1422.1" cy="311.4" r="18.2"/>
<circle class="st2" cx="-1472.9" cy="285" r="17.9"/>
<circle class="st1" cx="-1353.1" cy="272.3" r="18.2"/>
<circle class="st2" cx="-1417.6" cy="215.5" r="17.9"/>
<circle class="st1" cx="-1293.1" cy="144.4" r="18.2"/>
<circle class="st1" cx="-1256.7" cy="105.1" r="18.2"/>
<circle class="st2" cx="-1472.9" cy="483.1" r="17.9"/>
<g>
	<path class="st17" d="M-1500.6,453.5L-1500.6,453.5c-4.9,0-9-4-9.1-8.9l-0.2-36.2c0-4.9,4-9,8.9-9.1l0,0c4.9,0,9,4,9.1,8.9
		l0.2,36.2C-1491.6,449.4-1495.6,453.4-1500.6,453.5z"/>
	<circle class="st11" cx="-1500.7" cy="406.7" r="9.4"/>
	<circle class="st11" cx="-1500.7" cy="426" r="9.4"/>
	<circle class="st11" cx="-1500.8" cy="445.4" r="9.4"/>
</g>
<g>
	<g>
		<path class="st14" d="M570,119.3H372.3c-19.3,0-35-15.8-35-35V75c0-19.3,15.8-35,35-35H570c19.3,0,35,15.8,35,35v9.3
			C605,103.5,589.3,119.3,570,119.3z"/>
		<path class="st22" d="M513.2,56.4H436c-7.1,0-12.8-5.8-12.8-12.8l0,0c0-7.1,5.8-12.8,12.8-12.8h77.2c7.1,0,12.8,5.8,12.8,12.8l0,0
			C526.1,50.6,520.3,56.4,513.2,56.4z"/>
		<text transform="matrix(1 0 0 1 446.07 47.1226)" class="st23 st24 st25">HIEYEBROWS</text>
	</g>
	<g>
		<g>
			<g>
				<path class="st6" d="M450.6,111.6c3.1-13.9-5.7-27.6-19.6-30.7c-1.4-0.3-2.7-0.5-4.1-0.6l0,0l0,0c-1-0.1-2.1-0.1-3.1,0
					l-75.2,0.2c-11.5,0.3-21.8,8.4-24.5,20.2c-3.1,13.9,5.7,27.6,19.6,30.7c2.2,0.5,4.4,0.7,6.5,0.6l0,0l74.6-0.3
					C437,132,447.9,123.8,450.6,111.6z"/>
				<circle class="st17" cx="349.9" cy="106.4" r="16.5"/>
				<circle class="st17" cx="386.7" cy="106" r="16.5"/>
				<circle class="st17" cx="425.5" cy="105.5" r="16.5"/>
			</g>
			<path class="st26" d="M419.6,75.3l-68.9,0.1c-5,0-9.1-4.1-9.1-9.1l0,0c0-5,4.1-9.1,9.1-9.1l68.9-0.1c5,0,9.1,4.1,9.1,9.1l0,0
				C428.7,71.2,424.6,75.3,419.6,75.3z"/>
		</g>
	</g>
	<g>
		<g>
			<g>
				<path class="st6" d="M492.4,111.6c-3.1-13.9,5.7-27.6,19.6-30.7c1.4-0.3,2.7-0.5,4.1-0.6l0,0l0,0c1-0.1,2.1-0.1,3.1,0l75.2,0.2
					c11.5,0.3,21.8,8.4,24.5,20.2c3.1,13.9-5.7,27.6-19.6,30.7c-2.2,0.5-4.4,0.7-6.5,0.6l0,0l-74.6-0.3
					C506,132,495.1,123.8,492.4,111.6z"/>
				<circle class="st17" cx="593.1" cy="106.4" r="16.5"/>
				<circle class="st17" cx="556.3" cy="106" r="16.5"/>
				<circle class="st17" cx="517.5" cy="105.5" r="16.5"/>
			</g>
			<path class="st26" d="M523.4,75.3l68.9,0.1c5,0,9.1-4.1,9.1-9.1l0,0c0-5-4.1-9.1-9.1-9.1l-68.9-0.1c-5,0-9.1,4.1-9.1,9.1l0,0
				C514.3,71.2,518.4,75.3,523.4,75.3z"/>
		</g>
	</g>
</g>
<g>
	<g>
		<g>
			<path class="st6" d="M430.3,263.7h-13.9c-5.9,0-10.8-4.9-10.8-10.8l0,0c0-5.9,4.9-10.8,10.8-10.8h13.9c5.9,0,10.8,4.9,10.8,10.8
				l0,0C441.1,258.8,436.3,263.7,430.3,263.7z"/>
			<path class="st6" d="M351.4,263.1h-13.9c-5.9,0-10.8-4.9-10.8-10.8l0,0c0-5.9,4.9-10.8,10.8-10.8h13.9c5.9,0,10.8,4.9,10.8,10.8
				l0,0C362.2,258.2,357.3,263.1,351.4,263.1z"/>
			<path class="st6" d="M415.4,269.4c0,0,2.5,2.4,5.9,6.7c3.4,4.3,5.1,12.2-2.4,16.6c-7.4,4.5-19.1,9.2-36.8,9.2
				c-17.7,0-31.8-7.3-39.2-12.2c-7.4-4.9-5.4-12.9-2.9-15.3s9.8-10.3,9.8-10.3L415.4,269.4z"/>
			<path class="st6" d="M350.4,241.4l-8.6-7.4c0,0-4.9-4-1.3-9.7s17.4-16.7,37.2-20.2s38.9,6.8,44.5,10.8s8.5,12.2,3.7,15.6
				c-2.5,1.8-11.8,9.4-11.8,9.4L350.4,241.4z"/>
			<circle class="st17" cx="337.5" cy="252.3" r="7.7"/>
			<circle class="st17" cx="352.1" cy="227.6" r="7.7"/>
			<circle class="st17" cx="384.2" cy="214.9" r="7.7"/>
			<circle class="st17" cx="415.4" cy="224.3" r="7.7"/>
			<circle class="st17" cx="430.2" cy="252.9" r="7.7"/>
			<circle class="st17" cx="413.2" cy="282.8" r="7.7"/>
			<circle class="st17" cx="381.2" cy="290.5" r="7.7"/>
			<circle class="st17" cx="349.5" cy="280.6" r="7.7"/>
		</g>
		<g>
			<path class="st27" d="M425.6,250.9c0,0-1.2-18.3-18.9-27.5s-40.2-5.1-51.8,5.6c-11.6,10.7-12.9,22.1-13.1,25.3s0.4,25,23.6,30.4
				c23.2,5.3,44.6-4.7,53.3-14S425.8,252.5,425.6,250.9z"/>
			<circle class="st7" cx="394.4" cy="254.3" r="20.3"/>
			<path class="st28" d="M382.1,261.8c-1.4-2.2-2.1-4.8-2.1-7.5c0-7.9,6.4-14.4,14.4-14.4s14.4,6.4,14.4,14.4"/>
			<circle class="st29" cx="394.4" cy="254.3" r="8"/>
			<path class="st30" d="M394.4,235.5c-10.4,0-18.8,8.5-18.8,18.8c0,3,0.7,5.9,2,8.5c0-0.2-0.1-0.5-0.1-0.7v-0.4
				c0-2.4,2-4.4,4.4-4.4h0.4c1.1,0,2.2,0.5,3,1.2c-0.6-1.3-0.9-2.7-0.9-4.1c0-5.5,4.5-9.9,9.9-9.9c5.5,0,9.9,4.5,9.9,9.9l0,0
				c0,2.4,2,4.4,4.4,4.4s4.4-2,4.4-4.4l0,0C413.2,243.9,404.7,235.5,394.4,235.5z"/>
			<circle class="st27" cx="380" cy="241.4" r="6.1"/>
		</g>
	</g>
	<g>
		<g>
			<path class="st6" d="M512.1,265.4H526c5.9,0,10.8-4.9,10.8-10.8l0,0c0-5.9-4.9-10.8-10.8-10.8h-13.9c-5.9,0-10.8,4.9-10.8,10.8
				l0,0C501.3,260.5,506.1,265.4,512.1,265.4z"/>
			<path class="st6" d="M591,264.7h13.9c5.9,0,10.8-4.9,10.8-10.8l0,0c0-5.9-4.9-10.8-10.8-10.8H591c-5.9,0-10.8,4.9-10.8,10.8l0,0
				C580.2,259.9,585.1,264.7,591,264.7z"/>
			<path class="st6" d="M527,271.1c0,0-2.5,2.4-5.9,6.7c-3.4,4.3-5.1,12.2,2.4,16.6c7.4,4.5,19.1,9.2,36.8,9.2s31.8-7.3,39.2-12.2
				c7.4-4.9,5.4-12.9,2.9-15.3s-9.8-10.3-9.8-10.3L527,271.1z"/>
			<path class="st6" d="M592,243l8.6-7.4c0,0,4.9-4,1.3-9.7s-17.4-16.7-37.2-20.2s-38.9,6.8-44.5,10.8s-8.5,12.2-3.7,15.6
				c2.5,1.8,11.8,9.4,11.8,9.4L592,243z"/>
			<circle class="st17" cx="604.9" cy="254" r="7.7"/>
			<circle class="st17" cx="590.3" cy="229.3" r="7.7"/>
			<circle class="st17" cx="558.2" cy="216.6" r="7.7"/>
			<circle class="st17" cx="527" cy="226" r="7.7"/>
			<circle class="st17" cx="512.2" cy="254.6" r="7.7"/>
			<circle class="st17" cx="529.2" cy="284.5" r="7.7"/>
			<circle class="st17" cx="561.2" cy="292.2" r="7.7"/>
			<circle class="st17" cx="592.9" cy="282.3" r="7.7"/>
		</g>
		<g>
			<path class="st27" d="M516.8,252.6c0,0,1.2-18.3,18.9-27.5c17.7-9.1,40.2-5.1,51.8,5.6c11.6,10.7,12.9,22.1,13.1,25.3
				c0.2,3.2-0.4,25-23.6,30.4c-23.2,5.3-44.6-4.7-53.3-14C515,263,516.6,254.2,516.8,252.6z"/>
			<circle class="st7" cx="548" cy="256" r="20.3"/>
			<path class="st28" d="M560.3,263.5c1.4-2.2,2.1-4.8,2.1-7.5c0-7.9-6.4-14.4-14.4-14.4s-14.4,6.4-14.4,14.4"/>
			<circle class="st29" cx="548" cy="256" r="8"/>
			<path class="st30" d="M548,237.2c-10.4,0-18.8,8.5-18.8,18.8c0,3,0.7,5.9,2,8.5c0-0.2-0.1-0.5-0.1-0.7v-0.4c0-2.4,2-4.4,4.4-4.4
				h0.4c1.1,0,2.2,0.5,3,1.2c-0.6-1.3-0.9-2.7-0.9-4.1c0-5.5,4.5-9.9,9.9-9.9c5.5,0,9.9,4.5,9.9,9.9l0,0c0,2.4,2,4.4,4.4,4.4
				s4.4-2,4.4-4.4l0,0C566.9,245.6,558.4,237.2,548,237.2z"/>
			<circle class="st27" cx="533.6" cy="243" r="6.1"/>
		</g>
	</g>
</g>
<g>
	<path class="st14" d="M196,260.1H68.6c-19.2,0-35-15.8-35-35v-81.8c0-19.3,15.8-35,35-35H196c19.3,0,35,15.8,35,35v81.8
		C231,244.4,215.2,260.1,196,260.1z"/>
	<g>
		<g>
			<path class="st31" d="M162,211.1c0,4.6-11.8,19.1-29.7,19.1s-30.4-12.1-30.4-19.1c0-6.1,12.6-19.1,30.4-19.1S162,206.1,162,211.1
				z"/>
			<circle class="st32" cx="132.3" cy="211.1" r="15.7"/>
			<circle class="st33" cx="132.3" cy="211.1" r="11.8"/>
			<circle class="st34" cx="138.6" cy="202.5" r="4.3"/>
		</g>
		<g>
			<path class="st31" d="M101.3,211.1c0,3.2-8.1,13.1-20.4,13.1S60,215.9,60,211.1c0-4.2,8.6-13.1,20.9-13.1
				S101.3,207.7,101.3,211.1z"/>
			<circle class="st35" cx="81" cy="211.1" r="10.7"/>
			<circle class="st33" cx="81" cy="211.1" r="8.1"/>
			<circle class="st34" cx="85.3" cy="205.2" r="3"/>
		</g>
		<g>
			<path class="st31" d="M203.3,211.1c0,3.2-8.1,13.1-20.4,13.1S162,216,162,211.1c0-4.2,8.6-13.1,20.9-13.1
				S203.3,207.7,203.3,211.1z"/>
			<circle class="st36" cx="182.9" cy="211.1" r="10.7"/>
			<circle class="st33" cx="182.9" cy="211.1" r="8.1"/>
			<circle class="st34" cx="187.2" cy="205.2" r="3"/>
		</g>
	</g>
	<g class="st3">
		<path class="st37" d="M148.8,273.6h-33.1c-7.1,0-12.8-5.8-12.8-12.8l0,0c0-7.1,5.8-12.8,12.8-12.8h33.1c7.1,0,12.8,5.8,12.8,12.8
			l0,0C161.7,267.8,155.9,273.6,148.8,273.6z"/>
		<text transform="matrix(1 0 0 1 122.2355 264.4571)" class="st38 st24 st39">EYES</text>
	</g>
</g>
<g>
	<path class="st14" d="M598.7,444.1H340.5c-8.3,0-15-6.8-15-15v-41.5c0-8.3,6.8-15,15-15h258.2c8.3,0,15,6.8,15,15v41.5
		C613.7,437.4,607,444.1,598.7,444.1z"/>
	<g>
		<path class="st40" d="M579.8,416.7H363c-4.9,0-8.8-4-8.8-8.8l0,0c0-4.9,4-8.8,8.8-8.8h216.8c4.9,0,8.8,4,8.8,8.8l0,0
			C588.6,412.7,584.7,416.7,579.8,416.7z"/>
		<g class="st3">
			<circle class="st41" cx="392.6" cy="391.8" r="7.1"/>
			<circle class="st41" cx="417.3" cy="391.8" r="7.1"/>
			<circle class="st41" cx="442.1" cy="391.8" r="7.1"/>
			<circle class="st41" cx="466.8" cy="391.8" r="7.1"/>
			<circle class="st41" cx="491.6" cy="391.8" r="7.1"/>
			
				<ellipse transform="matrix(0.4641 -0.8858 0.8858 0.4641 -70.2941 667.3864)" class="st41" cx="516.4" cy="391.8" rx="7.1" ry="7.1"/>
			<circle class="st41" cx="541.1" cy="391.8" r="7.1"/>
			<circle class="st41" cx="565.9" cy="391.8" r="7.1"/>
			<circle class="st41" cx="367.8" cy="391.8" r="7.1"/>
			<circle class="st41" cx="592.4" cy="407.9" r="7.1"/>
			<circle class="st41" cx="350.1" cy="407.6" r="7.1"/>
		</g>
		<g class="st3">
			<circle class="st41" cx="392.6" cy="423.8" r="7.1"/>
			<circle class="st41" cx="417.3" cy="423.8" r="7.1"/>
			<circle class="st41" cx="442.1" cy="423.8" r="7.1"/>
			<circle class="st41" cx="466.8" cy="423.8" r="7.1"/>
			<circle class="st41" cx="491.6" cy="423.8" r="7.1"/>
			
				<ellipse transform="matrix(0.4641 -0.8858 0.8858 0.4641 -98.6387 684.5359)" class="st41" cx="516.4" cy="423.8" rx="7.1" ry="7.1"/>
			<circle class="st41" cx="541.1" cy="423.8" r="7.1"/>
			<circle class="st41" cx="565.9" cy="423.8" r="7.1"/>
			<circle class="st41" cx="367.8" cy="423.8" r="7.1"/>
		</g>
	</g>
	<g class="st3">
		<circle class="st42" cx="379.6" cy="370.4" r="9.5"/>
		<circle class="st42" cx="466.8" cy="370.4" r="9.5"/>
		<circle class="st42" cx="562.2" cy="370.4" r="9.5"/>
		<circle class="st42" cx="325.5" cy="407" r="9.5"/>
		<circle class="st42" cx="376.4" cy="445.2" r="9.5"/>
		<circle class="st42" cx="468" cy="445.2" r="9.5"/>
		<circle class="st42" cx="562.2" cy="445.2" r="9.5"/>
		<circle class="st42" cx="613.7" cy="407.6" r="9.5"/>
	</g>
</g>
<g>
	<path class="st14" d="M197.2,537.4H67.8c-19.2,0-35-15.8-35-35v-50.5c0-19.3,15.8-35,35-35h129.5c19.3,0,35,15.8,35,35v50.5
		C232.2,521.7,216.5,537.4,197.2,537.4z"/>
	<path class="st22" d="M151.2,549.5H110c-6.7,0-12.1-5.4-12.1-12.1l0,0c0-6.7,5.4-12.1,12.1-12.1h41.1c6.7,0,12.1,5.4,12.1,12.1l0,0
		C163.3,544.1,157.8,549.5,151.2,549.5z"/>
	<text transform="matrix(1 0 0 1 113.3307 541.8067)" class="st23 st24 st43">TONGUE</text>
	<g>
		<g>
			<path class="st44" d="M61.6,445c0-7.1-1.3-20.3,5.4-20.3c11.9,0,93.5-0.1,106.9-0.1c6.8,0,5.2,13.3,5.2,20.5
				c0,32.5-26.3,58.8-58.8,58.8S61.6,477.4,61.6,445z"/>
			<path class="st45" d="M160.2,478.7c0,22.9-10.6,41.5-39.8,41.5c-30.3,0-39.8-18.6-39.8-41.5c0-19.3,12.6-43.8,29.7-51.1
				c3.2-1.4,6.6,2.8,10.1,2.8c4.1,0,8.1-3.9,11.8-2C148.4,436.5,160.2,460,160.2,478.7z"/>
			<path class="st46" d="M146.8,463.5c0,15.2-7,27.5-26.4,27.5c-20.1,0-26.4-12.3-26.4-27.5c0-12.8,8.4-29,19.7-33.9
				c2.1-0.9,4.4,1.8,6.7,1.8c2.7,0,5.3-2.6,7.8-1.3C139,435.6,146.8,451.2,146.8,463.5z"/>
			<line class="st47" x1="120.4" y1="432.6" x2="120.4" y2="480.5"/>
		</g>
		<g>
			<path class="st7" d="M199.6,436.3h-49.3c-2.2,0-4.1-1.8-4.1-4.1l0,0c0-2.2,1.8-4.1,4.1-4.1h49.3c2.2,0,4.1,1.8,4.1,4.1l0,0
				C203.7,434.5,201.8,436.3,199.6,436.3z"/>
			<path class="st7" d="M199.6,448.3H158c-2.2,0-4.1-1.8-4.1-4.1l0,0c0-2.2,1.8-4.1,4.1-4.1h41.6c2.2,0,4.1,1.8,4.1,4.1l0,0
				C203.7,446.5,201.8,448.3,199.6,448.3z"/>
			<path class="st7" d="M199.6,460.3h-35.3c-2.2,0-4.1-1.8-4.1-4.1l0,0c0-2.2,1.8-4.1,4.1-4.1h35.3c2.2,0,4.1,1.8,4.1,4.1l0,0
				C203.7,458.4,201.8,460.3,199.6,460.3z"/>
			<path class="st7" d="M199.6,472.2h-33.4c-2.2,0-4.1-1.8-4.1-4.1l0,0c0-2.2,1.8-4.1,4.1-4.1h33.4c2.2,0,4.1,1.8,4.1,4.1l0,0
				C203.7,470.4,201.8,472.2,199.6,472.2z"/>
			<path class="st7" d="M199.6,484.2h-32.3c-2.2,0-4.1-1.8-4.1-4.1l0,0c0-2.2,1.8-4.1,4.1-4.1h32.3c2.2,0,4.1,1.8,4.1,4.1l0,0
				C203.7,482.4,201.8,484.2,199.6,484.2z"/>
			<path class="st7" d="M199.6,496.2h-33.4c-2.2,0-4.1-1.8-4.1-4.1l0,0c0-2.2,1.8-4.1,4.1-4.1h33.4c2.2,0,4.1,1.8,4.1,4.1l0,0
				C203.7,494.3,201.8,496.2,199.6,496.2z"/>
			<path class="st7" d="M199.6,508.1h-36.5c-2.2,0-4.1-1.8-4.1-4.1l0,0c0-2.2,1.8-4.1,4.1-4.1h36.5c2.2,0,4.1,1.8,4.1,4.1l0,0
				C203.7,506.3,201.8,508.1,199.6,508.1z"/>
			<path class="st7" d="M199.6,520.1h-45.4c-2.2,0-4.1-1.8-4.1-4.1l0,0c0-2.2,1.8-4.1,4.1-4.1h45.4c2.2,0,4.1,1.8,4.1,4.1l0,0
				C203.7,518.3,201.8,520.1,199.6,520.1z"/>
			<circle class="st26" cx="202.2" cy="432.3" r="5.8"/>
			<circle class="st26" cx="202.2" cy="444.3" r="5.8"/>
			<circle class="st26" cx="201.8" cy="456.3" r="5.8"/>
			<circle class="st26" cx="201.8" cy="468.3" r="5.8"/>
			<circle class="st26" cx="202" cy="480.3" r="5.8"/>
			<circle class="st26" cx="202" cy="492.3" r="5.8"/>
			<circle class="st26" cx="201.6" cy="504.3" r="5.8"/>
			<circle class="st26" cx="201.6" cy="516.3" r="5.8"/>
		</g>
	</g>
</g>
<path class="st14" d="M194.3,397.3H66.9c-19.2,0-35-15.8-35-35V313c0-19.3,15.8-35,35-35h127.4c19.3,0,35,15.8,35,35v49.3
	C229.3,381.5,213.5,397.3,194.3,397.3z"/>
<g>
	<path class="st48" d="M186.3,367.9H71.1c-16.3,0-29.6-13.3-29.6-29.6l0,0c0-16.3,13.3-29.6,29.6-29.6h115.2
		c16.3,0,29.6,13.3,29.6,29.6l0,0C215.9,354.6,202.6,367.9,186.3,367.9z"/>
	<g>
		<g>
			<g>
				<g>
					<defs>
						<path id="SVGID_1_" d="M186.3,367.9H71.1c-16.3,0-29.6-13.3-29.6-29.6l0,0c0-16.3,13.3-29.6,29.6-29.6h115.2
							c16.3,0,29.6,13.3,29.6,29.6l0,0C215.9,354.6,202.6,367.9,186.3,367.9z"/>
					</defs>
					<clipPath id="SVGID_2_">
						<use xlink:href="#SVGID_1_"  style="overflow:visible;"/>
					</clipPath>
					<g class="st49">
						<path class="st27" d="M189.9,308.7H65.8c-7.6,0-13.8,4.8-13.8,10.9l0,0c0,5.9,6.2,10.9,13.8,10.9h72c0-1.6,1.7-2.9,3.7-2.9
							s3.7,1.3,3.7,2.9h44.6c7.6,0,13.8-4.8,13.8-10.9l0,0C203.7,313.5,197.5,308.7,189.9,308.7z"/>
					</g>
				</g>
			</g>
		</g>
	</g>
	<path class="st50" d="M186.3,367.9H71.1c-16.3,0-29.6-13.3-29.6-29.6l0,0c0-16.3,13.3-29.6,29.6-29.6h115.2
		c16.3,0,29.6,13.3,29.6,29.6l0,0C215.9,354.6,202.6,367.9,186.3,367.9z"/>
	<path class="st45" d="M89.6,352.4c0-21.6,17.5-8,39.1-8s39.1-13.5,39.1,8c0,21.6-15.1,11.6-36.7,11.6S89.6,374,89.6,352.4z"/>
	<g>
		<path class="st27" d="M144.1,367.6h42.5c7.2,0,13.2-4,13.2-8.9l0,0c0.1-5-5.8-9-13.1-9H68.4c-7.2,0-13.2,4-13.2,9l0,0
			c0,4.9,5.9,8.9,13.2,8.9H144.1"/>
	</g>
</g>
<g class="st3">
	<circle class="st51" cx="47" cy="319.3" r="5.6"/>
	<circle class="st51" cx="88.3" cy="319.3" r="5.6"/>
	<circle class="st51" cx="129.7" cy="319.3" r="5.6"/>
	<circle class="st51" cx="171.1" cy="319.3" r="5.6"/>
	<circle class="st51" cx="212.4" cy="319.3" r="5.6"/>
</g>
<g class="st3">
	<circle class="st51" cx="46" cy="358.2" r="5.6"/>
	<circle class="st51" cx="87.4" cy="358.2" r="5.6"/>
	<circle class="st51" cx="128.7" cy="358.2" r="5.6"/>
	<circle class="st51" cx="170.1" cy="358.2" r="5.6"/>
	<circle class="st51" cx="211.5" cy="358.2" r="5.6"/>
</g>
<path class="st26" d="M152.1,304.4h-44.8c-2.8,0-5.1-2.3-5.1-5.1l0,0c0-2.8,2.3-5.1,5.1-5.1h44.8c2.8,0,5.1,2.3,5.1,5.1l0,0
	C157.2,302.1,154.9,304.4,152.1,304.4z"/>
<path class="st26" d="M151.1,381.2h-44.8c-2.8,0-5.1-2.3-5.1-5.1l0,0c0-2.8,2.3-5.1,5.1-5.1h44.8c2.8,0,5.1,2.3,5.1,5.1l0,0
	C156.2,378.9,153.9,381.2,151.1,381.2z"/>
<path class="st22" d="M144.2,409.2h-30.9c-6.6,0-12-5.4-12-12l0,0c0-6.6,5.4-12,12-12h30.9c6.6,0,12,5.4,12,12l0,0
	C156.1,403.9,150.8,409.2,144.2,409.2z"/>
<text transform="matrix(1 0 0 1 115.363 400.5919)" class="st23 st24 st52">TEETH</text>
<g class="st3">
	<g class="st4">
		<circle class="st45" cx="119" cy="124.1" r="11.1"/>
		<circle class="st45" cx="146" cy="124.1" r="11.1"/>
		<path class="st45" d="M146.4,160h-27.8c-5.9,0-10.7-4.8-10.7-10.7l0,0c0-5.9,4.8-10.7,10.7-10.7h27.8c5.9,0,10.7,4.8,10.7,10.7
			l0,0C157.1,155.2,152.3,160,146.4,160z"/>
		<text transform="matrix(1 0 0 1 117.739 152.5059)" class="st53 st24 st54">EYESFK</text>
	</g>
	<path class="st55" d="M158.1,183.7h-51.2c-5.1,0-9.3-4.2-9.3-9.3l0,0c0-5.1,4.2-9.3,9.3-9.3h51.2c5.1,0,9.3,4.2,9.3,9.3l0,0
		C167.4,179.5,163.2,183.7,158.1,183.7z"/>
	<text transform="matrix(1 0 0 1 110.9055 178.2422)" class="st56 st24 st54">EYEBULBS</text>
</g>
<g>
	<g>
		<line class="st57" x1="324.3" y1="174" x2="582.6" y2="174"/>
		<path class="st58" d="M315,187.2h-58.9c-7.1,0-12.8-5.8-12.8-12.8l0,0c0-7.1,5.8-12.8,12.8-12.8H315c7.1,0,12.8,5.8,12.8,12.8l0,0
			C327.8,181.4,322,187.2,315,187.2z"/>
		<text transform="matrix(1 0 0 1 260.3063 177.9092)" class="st23 st24 st25">EYEBROWS</text>
	</g>
</g>
<g>
	<g>
		<path class="st59" d="M478.7,343.5h-17.4c-17,0-30.8-11.8-30.8-26.3l9-88.4c0-13.1,10.7-23.8,23.8-23.8h13.4
			c13.1,0,23.8,10.7,23.8,23.8l9,88.4C509.5,331.7,495.6,343.5,478.7,343.5z"/>
		<circle class="st26" cx="439.1" cy="334" r="10.1"/>
		<circle class="st26" cx="501.4" cy="335.9" r="10.1"/>
		<circle class="st26" cx="470.3" cy="340" r="14.2"/>
	</g>
	<path class="st58" d="M480.4,318.8h-21.9c-7.1,0-12.8-5.8-12.8-12.8l0,0c0-7.1,5.8-12.8,12.8-12.8h21.9c7.1,0,12.8,5.8,12.8,12.8
		l0,0C493.3,313,487.5,318.8,480.4,318.8z"/>
	<text transform="matrix(1 0 0 1 459.2048 309.5079)" class="st23 st24 st25">NOSE</text>
</g>
<g class="st3">
	<path class="st21" d="M563.6,517.4h-21.9c-7.1,0-12.8-5.8-12.8-12.8l0,0c0-7.1,5.8-12.8,12.8-12.8h21.9c7.1,0,12.8,5.8,12.8,12.8
		l0,0C576.4,511.7,570.6,517.4,563.6,517.4z"/>
	<text transform="matrix(1 0 0 1 544.3439 508.1739)" class="st38 st24 st25">JAW</text>
</g>
<g class="st3">
	<g class="st4">
		<g>
			<path class="st60" d="M344.4,160.6h7.1c5.8,0,10.6,4.8,10.6,10.6l0,0c0,5.8-4.8,10.6-10.6,10.6h-7.1c-5.8,0-10.6-4.8-10.6-10.6
				l0,0C333.8,165.4,338.5,160.6,344.4,160.6z"/>
			<circle class="st44" cx="348.1" cy="153.8" r="7.6"/>
		</g>
	</g>
	<g class="st4">
		<g>
			<path class="st60" d="M590.3,160.6h7.1c5.8,0,10.6,4.8,10.6,10.6l0,0c0,5.8-4.8,10.6-10.6,10.6h-7.1c-5.8,0-10.6-4.8-10.6-10.6
				l0,0C579.6,165.4,584.4,160.6,590.3,160.6z"/>
			<circle class="st44" cx="594" cy="153.8" r="7.6"/>
		</g>
	</g>
	<g class="st4">
		<g>
			<path class="st60" d="M426.5,160.6h7.1c5.8,0,10.6,4.8,10.6,10.6l0,0c0,5.8-4.8,10.6-10.6,10.6h-7.1c-5.8,0-10.6-4.8-10.6-10.6
				l0,0C415.9,165.4,420.7,160.6,426.5,160.6z"/>
			<circle class="st44" cx="430.3" cy="153.8" r="7.6"/>
		</g>
	</g>
	<g class="st4">
		<g>
			<path class="st60" d="M467.3,160.6h7.1c5.8,0,10.6,4.8,10.6,10.6l0,0c0,5.8-4.8,10.6-10.6,10.6h-7.1c-5.8,0-10.6-4.8-10.6-10.6
				l0,0C456.7,165.4,461.5,160.6,467.3,160.6z"/>
			<circle class="st44" cx="471.1" cy="153.8" r="7.6"/>
		</g>
	</g>
	<g class="st4">
		<g>
			<path class="st60" d="M508.3,160.6h7.1c5.8,0,10.6,4.8,10.6,10.6l0,0c0,5.8-4.8,10.6-10.6,10.6h-7.1c-5.8,0-10.6-4.8-10.6-10.6
				l0,0C497.7,165.4,502.5,160.6,508.3,160.6z"/>
			
				<ellipse transform="matrix(0.4641 -0.8858 0.8858 0.4641 138.2148 536.0278)" class="st44" cx="512.1" cy="153.8" rx="7.6" ry="7.6"/>
		</g>
	</g>
	<g class="st4">
		<g>
			<path class="st60" d="M549.3,160.6h7.1c5.8,0,10.6,4.8,10.6,10.6l0,0c0,5.8-4.8,10.6-10.6,10.6h-7.1c-5.8,0-10.6-4.8-10.6-10.6
				l0,0C538.7,165.4,543.4,160.6,549.3,160.6z"/>
			<circle class="st44" cx="553" cy="153.8" r="7.6"/>
		</g>
	</g>
	<g class="st4">
		<g>
			<path class="st60" d="M385.3,160.6h7.1c5.8,0,10.6,4.8,10.6,10.6l0,0c0,5.8-4.8,10.6-10.6,10.6h-7.1c-5.8,0-10.6-4.8-10.6-10.6
				l0,0C374.7,165.4,379.5,160.6,385.3,160.6z"/>
			<circle class="st44" cx="389.1" cy="153.8" r="7.6"/>
		</g>
	</g>
</g>
<path class="st26" d="M509.3,496.6h-77.5c-5.5,0-10.1-4.5-10.1-10.1l0,0c0-5.5,4.5-10.1,10.1-10.1h77.5c5.5,0,10.1,4.5,10.1,10.1
	l0,0C519.4,492.1,514.9,496.6,509.3,496.6z"/>
<path class="st26" d="M501.8,523.5h-63.7c-4.2,0-7.7-3.4-7.7-7.7l0,0c0-4.2,3.4-7.7,7.7-7.7h63.7c4.2,0,7.7,3.4,7.7,7.7l0,0
	C509.5,520,506,523.5,501.8,523.5z"/>
<g class="st3">
	<path class="st21" d="M343,506.9h-22.9c-7.1,0-12.8-5.8-12.8-12.8l0,0c0-7.1,5.8-12.8,12.8-12.8H343c7.1,0,12.8,5.8,12.8,12.8l0,0
		C355.9,501.1,350.1,506.9,343,506.9z"/>
	<text transform="matrix(1 0 0 1 321.8132 497.6505)" class="st38 st24 st25">LIPS</text>
	<path class="st21" d="M379,535.4h-58.9c-7.1,0-12.8-5.8-12.8-12.8l0,0c0-7.1,5.8-12.8,12.8-12.8H379c7.1,0,12.8,5.8,12.8,12.8l0,0
		C391.8,529.7,386,535.4,379,535.4z"/>
	<text transform="matrix(1 0 0 1 325.3088 526.1739)" class="st38 st24 st25">EXTRALIPS</text>
	<circle class="st42" cx="293.3" cy="494.1" r="9.8"/>
	<circle class="st61" cx="293.3" cy="522.6" r="6.5"/>
</g>
<g>
	<g>
		<g>
			<circle class="st62" cx="321.2" cy="347.4" r="27.3"/>
			<g>
				<g>
					<path class="st62" d="M381,337.5c0,9.5-10.9,10.3-24.3,10.3s-24.3-0.9-24.3-10.3c0-9.5,10.9-17.1,24.3-17.1
						C370.1,320.3,381,328,381,337.5z"/>
					<path class="st62" d="M375.4,317.9c-0.8,5-5.8,0.9-12.9-0.3c-7.1-1.2-13.7,1-12.9-4c0.8-5,7.3-8.1,14.4-7
						C371.1,307.9,376.2,312.9,375.4,317.9z"/>
				</g>
			</g>
		</g>
	</g>
	<g class="st3">
		<circle class="st63" cx="363.2" cy="312.6" r="7.6"/>
		<circle class="st63" cx="356.7" cy="334.2" r="12.6"/>
		<circle class="st63" cx="321.2" cy="347.4" r="12"/>
	</g>
</g>
<g>
	<g>
		<g>
			<circle class="st62" cx="622.1" cy="347.4" r="27.3"/>
			<g>
				<g>
					<path class="st62" d="M562.4,337.5c0,9.5,10.9,10.3,24.3,10.3c13.4,0,24.3-0.9,24.3-10.3c0-9.5-10.9-17.1-24.3-17.1
						C573.2,320.3,562.4,328,562.4,337.5z"/>
					<path class="st62" d="M568,317.9c0.8,5,5.8,0.9,12.9-0.3c7.1-1.2,13.7,1,12.9-4s-7.3-8.1-14.4-7
						C572.2,307.9,567.1,312.9,568,317.9z"/>
				</g>
			</g>
		</g>
	</g>
	<g class="st3">
		<circle class="st63" cx="580.1" cy="312.6" r="7.6"/>
		<circle class="st63" cx="586.6" cy="334.2" r="12.6"/>
		<circle class="st63" cx="622.1" cy="347.4" r="12"/>
	</g>
</g>
</svg>
