<?xml version="1.0" encoding="utf-8"?>
<!-- Generator: Adobe Illustrator 22.0.1, SVG Export Plug-In . SVG Version: 6.00 Build 0)  -->
<svg version="1.1" id="Capa_1" xmlns="http://www.w3.org/2000/svg" xmlns:xlink="http://www.w3.org/1999/xlink" x="0px" y="0px"
	 viewBox="0 0 500 500" style="enable-background:new 0 0 500 500;" xml:space="preserve">
<style type="text/css">
	.st0{fill:#FFFF6E;stroke:#003E51;stroke-linecap:round;stroke-linejoin:round;stroke-dasharray:6,8;}
	.st1{fill:#6CFFE3;stroke:#003E51;}
	.st2{display:none;fill:#FD141C;stroke:#003E51;}
	.st3{display:none;fill:#FFFA02;stroke:#003E51;}
	.st4{fill:#B6FFF1;stroke:#003E51;}
	.st5{display:none;fill:#55DFFF;stroke:#003E51;}
	.st6{display:none;fill:#0F38FF;stroke:#003E51;}
	.st7{fill:none;stroke:#003E51;stroke-width:2;stroke-linecap:round;stroke-linejoin:round;stroke-dasharray:3;}
	.st8{display:none;fill:#7F3F06;stroke:#003E51;}
	.st9{fill:#E1FFF9;stroke:#003E51;stroke-linecap:round;stroke-linejoin:round;}
	.st10{fill:none;stroke:#003E51;stroke-linecap:round;stroke-linejoin:round;}
	.st11{fill:#E1FFF9;stroke:#003E51;stroke-width:2;stroke-linecap:round;stroke-linejoin:round;stroke-dasharray:6,8;}
	.st12{fill:#FC0042;stroke:#003E51;}
	.st13{fill:#00FFB6;stroke:#003E51;}
	.st14{fill:#05C19D;}
</style>
<g>
	<path class="st0" d="M300.1,295.3H197.8c-5.1,0-7.4-4.5-9.3-9.3c-14.5-35.8-9.1-63.3,0-97.1c1.4-5,4.1-9.3,9.3-9.3h102.2
		c5.1,0,7.3,4.6,9.3,9.3c12.9,29.6,17.5,59.1,0,97.1C307.2,290.7,305.2,295.3,300.1,295.3z"/>
	<path class="st0" d="M296.8,175.7h-93.3c-5.1,0-9.3-4.1-9.3-9.3l10.8-24.7c0-5.1,4.1-9.3,9.3-9.3h73.2c5.1,0,9.3,4.1,9.3,9.3
		l9.3,24.7C306.2,171.4,301.9,175.7,296.8,175.7z"/>
	<path class="st0" d="M274.6,128.6h-47.7c-8.4,0-15.3-4.1-15.3-9.3l14.8-44.5c0-5.1,4.1-9.3,9.3-9.3h29.1c5.1,0,9.3,4.1,9.3,9.3
		l15.9,44.5C289.9,124.4,283,128.6,274.6,128.6z"/>
	<path class="st0" d="M252,102.1h-3.5c-3.4,0-6.3-2.4-6.3-5.3l1.8-17.9c0-2.6,2.1-4.8,4.8-4.8h2.8c2.6,0,4.8,2.1,4.8,4.8l1.8,17.9
		C258.2,99.8,255.3,102.1,252,102.1z"/>
	<g>
		<path class="st1" d="M215.4,100.8c-2.8,8.1-4.5,16.3-12.8,13.5c-8.1-2.8-12.5-11.6-9.8-19.8c2.8-8.1,11.6-12.5,19.8-9.8
			C220.8,87.4,218.1,92.6,215.4,100.8z"/>
		<path class="st1" d="M244.8,72.6l-18.4,2.5c-1.4,0.3-2.5-0.8-2.8-2l-1.3-9.4c-0.3-1.4,0.8-2.5,2-2.8l18.4-2.5
			c1.4-0.3,2.5,0.8,2.8,2l1.3,9.4C246.9,71.2,246.1,72.5,244.8,72.6z"/>
	</g>
	<g>
		<path class="st1" d="M285.8,100.1c2.8,8.1,4.5,16.3,12.8,13.5c8.1-2.8,12.5-11.6,9.8-19.8c-2.8-8.1-11.6-12.5-19.8-9.8
			C280.3,86.9,283,92,285.8,100.1z"/>
		<path class="st1" d="M256.3,72l18.4,2.5c1.4,0.3,2.5-0.8,2.8-2l1.3-9.4c0.3-1.4-0.8-2.5-2-2.8l-18.4-2.5c-1.4-0.3-2.5,0.8-2.8,2
			l-1.3,9.4C254.1,70.6,255.1,71.8,256.3,72z"/>
	</g>
</g>
<g>
	<ellipse transform="matrix(0.1602 -0.9871 0.9871 0.1602 89.648 350.7502)" class="st2" cx="251" cy="122.7" rx="9.3" ry="9.3"/>
	<ellipse transform="matrix(0.1602 -0.9871 0.9871 0.1602 71.4714 366.2148)" class="st2" cx="251" cy="141.1" rx="9.3" ry="9.3"/>
	<circle class="st2" cx="260.2" cy="182.4" r="9.3"/>
	<circle class="st2" cx="260.2" cy="245.2" r="9.3"/>
	<circle class="st2" cx="260.2" cy="203.4" r="9.3"/>
	<circle class="st2" cx="260.2" cy="224.3" r="9.3"/>
	<circle class="st3" cx="240.4" cy="192" r="9.3"/>
	<circle class="st3" cx="240.4" cy="235.9" r="9.3"/>
	<circle class="st3" cx="240.4" cy="213.9" r="9.3"/>
</g>
<g>
	<g>
		<g>
			<path class="st4" d="M290.4,470.3c0,0,5.1,0,7.6,0c1.1,0,3-1.3,2.9-3.5c-0.1-2.1-3.6-9.3-5.5-11c-1.8-1.8-3.8-2.1-6-1.9
				C286.8,454.3,288.9,470.3,290.4,470.3z"/>
			<path class="st4" d="M268.5,470.3c0,0-4.9,0-7.4,0c-1.1,0-2.9-1.3-2.8-3.3c0.1-2.1,3.5-8.9,5.3-10.5s3.5-2,5.8-1.8
				C271.9,454.9,269.9,470.3,268.5,470.3z"/>
			<path class="st4" d="M288.9,470.3c0,0-12.2,0-17.9,0c-1,0-1.6-2.1-1.6-3.8c0-1.6,0.1-9.6,2-12.3c1.9-2.6,4.1-4.5,8.1-4.3
				s7.4,2.1,8.4,5.4C289,458.7,291,470.3,288.9,470.3z"/>
		</g>
		<path class="st4" d="M273.9,372.8h8.4c2.8,0,5.1-4.5,5.1-10l7.6-55.6c0-5.1-4.1-9.3-9.3-9.3h-15.3c-5.1,0-9.3,4.1-9.3,9.3
			l7.6,55.6C268.7,368.3,271.1,372.8,273.9,372.8z"/>
		<path class="st4" d="M275.4,442.5h5.5c1.9,0,3.4-2.9,3.4-6.5l5-37.5c0-3.4-2.8-6.1-6.1-6.1h-10c-3.4,0-6.1,2.8-6.1,6.1l5,37.5
			C272,439.6,273.5,442.5,275.4,442.5z"/>
		<circle class="st5" cx="278" cy="372.8" r="8.3"/>
		<circle class="st3" cx="267.6" cy="388.3" r="8.3"/>
		<circle class="st2" cx="290.4" cy="388.3" r="8.3"/>
		<circle class="st2" cx="278" cy="446.9" r="8.3"/>
		<circle class="st2" cx="289.2" cy="473.4" r="8.3"/>
		<circle class="st3" cx="271.2" cy="473.4" r="8.3"/>
	</g>
	<circle class="st2" cx="280.8" cy="299.4" r="11.3"/>
	<circle class="st5" cx="305.8" cy="313" r="11.1"/>
</g>
<g>
	<g>
		<g>
			<path class="st4" d="M208.9,470.3c0,0-5.1,0-7.6,0c-1.1,0-3-1.3-2.9-3.5c0.1-2.3,3.6-9.3,5.5-11c1.8-1.8,3.8-2.1,6-1.9
				C212.4,454.3,210.4,470.3,208.9,470.3z"/>
			<path class="st4" d="M230.8,470.3c0,0,4.9,0,7.4,0c1.1,0,2.9-1.3,2.8-3.3c-0.1-2.1-3.5-8.9-5.3-10.5s-3.5-2-5.8-1.8
				C227.4,454.9,229.3,470.3,230.8,470.3z"/>
			<path class="st4" d="M210.4,470.3c0,0,12.2,0,17.9,0c1,0,1.6-2.1,1.6-3.8c0-1.6-0.1-9.6-2-12.3c-1.9-2.6-4.1-4.5-8.1-4.3
				c-4,0.3-7.4,2.1-8.4,5.4C210.2,458.7,208.1,470.3,210.4,470.3z"/>
		</g>
		<path class="st4" d="M225.4,372.8H217c-2.8,0-5.1-4.5-5.1-10l-7.6-55.6c0-5.1,4.1-9.3,9.3-9.3h15.3c5.1,0,9.3,4.1,9.3,9.3
			l-7.6,55.6C230.4,368.3,228.2,372.8,225.4,372.8z"/>
		<path class="st4" d="M223.9,442.5h-5.5c-1.9,0-3.4-2.9-3.4-6.5l-5-37.5c0-3.4,2.8-6.1,6.1-6.1h10c3.4,0,6.1,2.8,6.1,6.1l-5,37.5
			C227.2,439.6,225.8,442.5,223.9,442.5z"/>
		<circle class="st5" cx="221.1" cy="372.8" r="8.3"/>
		<circle class="st3" cx="231.5" cy="388.3" r="8.3"/>
		<circle class="st2" cx="208.7" cy="388.3" r="8.3"/>
		<circle class="st2" cx="221.1" cy="445.6" r="8.3"/>
		<circle class="st2" cx="210.1" cy="473.4" r="8.3"/>
		<circle class="st3" cx="228" cy="473.4" r="8.3"/>
	</g>
	<circle class="st2" cx="218.5" cy="299.4" r="11.3"/>
	<circle class="st5" cx="193.5" cy="313" r="11.1"/>
</g>
<g>
	<g>
		<circle class="st4" cx="303.6" cy="155.3" r="19.7"/>
		<path class="st4" d="M417.9,276l9.3-10.5c3.4-3.9,3-9.8-0.8-13.2L386.6,211c-4.4-4.8-11.1-4.3-15.2,1.1l-10.6,14.7
			c-3.9,5.4-3.5,13.7,0.9,18.5l43,31.6C408.5,280.3,414.4,279.9,417.9,276z"/>
		<path class="st1" d="M354.5,232.2c4.1-4.3,10.8-16.5,14.5-21.2c3.3-4,5-9.6,2.1-13.8l-34.7-34.8c-2.9-4.3-9.5-6.1-11.1-1.3
			c-2.1,6.1-7.1,12.8-10.4,15.8c-3.9,3.4-3.9,13.8-0.9,18c0,0,12.8,20.2,27.8,33.7C345.7,232,351,235.8,354.5,232.2z"/>
	</g>
	<ellipse class="st6" cx="372.6" cy="224.8" rx="11.1" ry="11.1"/>
	<circle class="st2" cx="402.7" cy="271.1" r="11.3"/>
	<circle class="st3" cx="430.6" cy="256.9" r="11.1"/>
	<circle class="st2" cx="355.7" cy="250" r="11.3"/>
	<circle class="st3" cx="396.3" cy="211.1" r="11.1"/>
	<circle class="st2" cx="320.4" cy="168.3" r="11.3"/>
	<circle class="st2" cx="297.7" cy="143.9" r="11.3"/>
</g>
<g>
	<g>
		<circle class="st4" cx="195" cy="153.9" r="19.7"/>
		<path class="st4" d="M80.7,274.6l-9.3-10.5c-3.4-3.9-3-9.8,0.8-13.2l39.8-41.5c4.4-4.8,11.1-4.3,15.2,1.1l10.6,14.7
			c3.9,5.4,3.5,13.7-0.9,18.5l-43,31.6C90,278.9,84.1,278.5,80.7,274.6z"/>
		<path class="st1" d="M144,230.8c-4.1-4.3-10.8-16.5-14.5-21.2c-3.3-4-5-9.6-2.1-13.8L162,161c2.9-4.3,9.5-6.1,11.1-1.3
			c2.1,6.1,7.1,12.8,10.4,15.8c3.9,3.4,3.9,13.8,0.9,18c0,0-12.8,20.2-27.8,33.7C152.9,230.5,147.6,234.4,144,230.8z"/>
	</g>
	<circle class="st5" cx="126.1" cy="223.4" r="11.1"/>
	<circle class="st2" cx="98" cy="270.8" r="11.3"/>
	<circle class="st3" cx="66.4" cy="254.3" r="11.1"/>
	<circle class="st2" cx="140.8" cy="246.5" r="11.3"/>
	<circle class="st3" cx="100.8" cy="211.1" r="11.1"/>
	<circle class="st2" cx="178.3" cy="166.9" r="11.3"/>
	<circle class="st2" cx="200.8" cy="142.5" r="11.3"/>
	<g>
		<circle class="st3" cx="66.4" cy="377.6" r="11.1"/>
		<g>
			<path class="st1" d="M84.3,321.9L47.3,321c-1.8,0-3.1-1.5-3-3.3l0.9-37.1c0-1.8,1.5-3.1,3.3-3l37.1,0.9c1.8,0,3.1,1.5,3,3.3
				l-0.9,37.1C87.6,320.6,86.1,322,84.3,321.9z"/>
			<g>
				<line class="st7" x1="81.7" y1="328.3" x2="68.4" y2="301.8"/>
				<line class="st7" x1="65.2" y1="328.6" x2="67.8" y2="301.8"/>
				<line class="st7" x1="49.1" y1="331.5" x2="67.2" y2="301.6"/>
				<line class="st7" x1="55.8" y1="284.5" x2="65.7" y2="298.9"/>
				<line class="st7" x1="81.7" y1="284.5" x2="68.4" y2="301.8"/>
				<line class="st7" x1="69.1" y1="284.5" x2="67.8" y2="301.6"/>
				<line class="st7" x1="32.4" y1="293.6" x2="67.8" y2="301.8"/>
			</g>
			<circle class="st8" cx="56.4" cy="284.5" r="5.1"/>
			<circle class="st8" cx="69.1" cy="284.5" r="5.1"/>
			<circle class="st8" cx="81.7" cy="284.5" r="5.1"/>
			<circle class="st8" cx="67.8" cy="301.8" r="8.3"/>
		</g>
		<g>
			<path class="st4" d="M38.5,296.2l-25.3,19.5c-1,0.8-2.3,0.5-3-0.4l-5.1-6.6c-0.8-1-0.5-2.3,0.4-3l25.3-19.5c1-0.8,2.3-0.5,3,0.4
				l5.1,6.6C39.6,294.1,39.4,295.4,38.5,296.2z"/>
			<g>
				
					<ellipse transform="matrix(0.1895 -0.9819 0.9819 0.1895 -260.8191 268.9464)" class="st8" cx="32.5" cy="292.5" rx="6.4" ry="6.4"/>
				
					<ellipse transform="matrix(0.2221 -0.975 0.975 0.2221 -276.2383 255.4813)" class="st8" cx="22" cy="300.9" rx="6.5" ry="6.5"/>
				
					<ellipse transform="matrix(0.2544 -0.9671 0.9671 0.2544 -290.575 241.6493)" class="st8" cx="11.4" cy="309.3" rx="6.5" ry="6.5"/>
			</g>
		</g>
		<g>
			<g>
				<path class="st4" d="M84.5,359.2h-7.4c-1,0-1.9-0.9-1.9-1.9L75,327.4c0-1,0.9-1.9,1.9-1.9h7.4c1,0,1.9,0.9,1.9,1.9l0.3,29.9
					C86.4,358.3,85.5,359.2,84.5,359.2z"/>
				
					<ellipse transform="matrix(0.9704 -0.2414 0.2414 0.9704 -77.3136 29.2201)" class="st8" cx="80.6" cy="330.1" rx="5.9" ry="5.9"/>
				
					<ellipse transform="matrix(0.9704 -0.2414 0.2414 0.9704 -80.2152 29.5759)" class="st8" cx="80.6" cy="342.2" rx="5.9" ry="5.9"/>
				
					<ellipse transform="matrix(0.9704 -0.2414 0.2414 0.9704 -83.0895 29.9215)" class="st8" cx="80.6" cy="354.1" rx="5.9" ry="5.9"/>
			</g>
			<g>
				<path class="st4" d="M68.4,359.2H61c-1,0-1.9-0.9-1.9-1.9l-0.3-29.9c0-1,0.9-1.9,1.9-1.9h7.4c1,0,1.9,0.9,1.9,1.9l0.3,29.9
					C70.3,358.3,69.4,359.2,68.4,359.2z"/>
				
					<ellipse transform="matrix(0.9704 -0.2414 0.2414 0.9704 -77.7778 25.378)" class="st8" cx="64.7" cy="330.1" rx="5.9" ry="5.9"/>
				
					<ellipse transform="matrix(0.9704 -0.2414 0.2414 0.9704 -80.6903 25.7055)" class="st8" cx="64.6" cy="342.2" rx="5.9" ry="5.9"/>
				
					<ellipse transform="matrix(0.9704 -0.2414 0.2414 0.9704 -83.5646 26.0511)" class="st8" cx="64.5" cy="354.1" rx="5.9" ry="5.9"/>
			</g>
			<g>
				<path class="st4" d="M52.9,359.2h-7.4c-1,0-1.9-0.9-1.9-1.9l-0.3-29.9c0-1,0.9-1.9,1.9-1.9h7.4c1,0,1.9,0.9,1.9,1.9l0.3,29.9
					C54.8,358.3,53.9,359.2,52.9,359.2z"/>
				
					<ellipse transform="matrix(0.9704 -0.2414 0.2414 0.9704 -78.2369 21.6283)" class="st8" cx="49.1" cy="330.1" rx="5.9" ry="5.9"/>
				
					<ellipse transform="matrix(0.9704 -0.2414 0.2414 0.9704 -81.1495 21.9558)" class="st8" cx="49" cy="342.2" rx="5.9" ry="5.9"/>
				
					<ellipse transform="matrix(0.9704 -0.2414 0.2414 0.9704 -84.0238 22.3014)" class="st8" cx="49" cy="354.1" rx="5.9" ry="5.9"/>
			</g>
		</g>
	</g>
	<g>
		<circle class="st3" cx="433" cy="381" r="11.1"/>
		<g>
			<path class="st1" d="M414.9,325.4l37.1-0.9c1.8,0,3.1-1.5,3-3.3l-0.9-37.1c0-1.8-1.5-3.1-3.3-3l-37.1,0.9c-1.8,0-3.1,1.5-3,3.3
				l0.9,37.1C411.8,324,413.3,325.4,414.9,325.4z"/>
			<g>
				<line class="st7" x1="417.7" y1="331.8" x2="431" y2="305.2"/>
				<line class="st7" x1="434.2" y1="332" x2="431.5" y2="305.2"/>
				<line class="st7" x1="450.3" y1="335" x2="432.2" y2="305.1"/>
				<line class="st7" x1="443.6" y1="288" x2="433.7" y2="302.4"/>
				<line class="st7" x1="417.7" y1="288" x2="431" y2="305.2"/>
				<line class="st7" x1="430.3" y1="288" x2="431.5" y2="305.1"/>
				<line class="st7" x1="466.9" y1="296.9" x2="431.5" y2="305.2"/>
			</g>
			<circle class="st8" cx="443" cy="288" r="5.1"/>
			<circle class="st8" cx="430.3" cy="288" r="5.1"/>
			<circle class="st8" cx="417.7" cy="288" r="5.1"/>
			<circle class="st8" cx="431.5" cy="305.2" r="8.3"/>
		</g>
		<g>
			<path class="st4" d="M460.9,299.6l25.3,19.5c1,0.8,2.3,0.5,3-0.4l5.1-6.6c0.8-1,0.5-2.3-0.4-3l-25.3-19.5c-1-0.8-2.3-0.5-3,0.4
				l-5.1,6.6C459.8,297.6,460,298.9,460.9,299.6z"/>
			<g>
				<ellipse class="st8" cx="466.9" cy="295.9" rx="6.4" ry="6.4"/>
				<ellipse class="st8" cx="477.4" cy="304.3" rx="6.5" ry="6.5"/>
				<ellipse class="st8" cx="488" cy="312.7" rx="6.5" ry="6.5"/>
			</g>
		</g>
		<g>
			<g>
				<path class="st4" d="M414.9,362.6h7.4c1,0,1.9-0.9,1.9-1.9l0.3-29.9c0-1-0.9-1.9-1.9-1.9h-7.4c-1,0-1.9,0.9-1.9,1.9l-0.3,29.9
					C413,361.7,413.9,362.6,414.9,362.6z"/>
				<ellipse class="st8" cx="418.7" cy="333.5" rx="5.9" ry="5.9"/>
				<ellipse class="st8" cx="418.7" cy="345.5" rx="5.9" ry="5.9"/>
				<ellipse class="st8" cx="418.7" cy="357.6" rx="5.9" ry="5.9"/>
			</g>
			<g>
				<path class="st4" d="M431,362.6h7.4c1,0,1.9-0.9,1.9-1.9l0.3-29.9c0-1-0.9-1.9-1.9-1.9h-7.4c-1,0-1.9,0.9-1.9,1.9l-0.3,29.9
					C429.1,361.7,429.8,362.6,431,362.6z"/>
				<ellipse class="st8" cx="434.7" cy="333.5" rx="5.9" ry="5.9"/>
				<ellipse class="st8" cx="434.7" cy="345.5" rx="5.9" ry="5.9"/>
				<ellipse class="st8" cx="434.7" cy="357.6" rx="5.9" ry="5.9"/>
			</g>
			<g>
				<path class="st4" d="M446.5,362.6h7.4c1,0,1.9-0.9,1.9-1.9l0.3-29.9c0-1-0.9-1.9-1.9-1.9h-7.4c-1,0-1.9,0.9-1.9,1.9l-0.3,29.9
					C444.6,361.7,445.5,362.6,446.5,362.6z"/>
				<ellipse class="st8" cx="450.3" cy="333.5" rx="5.9" ry="5.9"/>
				<ellipse class="st8" cx="450.3" cy="345.5" rx="5.9" ry="5.9"/>
				<ellipse class="st8" cx="450.3" cy="357.6" rx="5.9" ry="5.9"/>
			</g>
		</g>
	</g>
	<path class="st9" d="M142.5,315.6H111c-0.9,0-1.6-0.8-1.6-1.6v-28.2c0-0.9,0.8-1.6,1.6-1.6h31.4c0.9,0,1.6,0.8,1.6,1.6v28.1
		C144.1,314.9,143.3,315.6,142.5,315.6z"/>
	<path class="st9" d="M388.2,314.7h-31.4c-0.9,0-1.6-0.8-1.6-1.6v-28.2c0-0.9,0.8-1.6,1.6-1.6h31.4c0.9,0,1.6,0.8,1.6,1.6v28.2
		C390,314,389.2,314.7,388.2,314.7z"/>
	<line class="st10" x1="109.8" y1="286" x2="103.9" y2="280.3"/>
	<line class="st10" x1="388.4" y1="284.5" x2="393.8" y2="279.1"/>
</g>
<g>
	<path class="st11" d="M178.2,69.1H13.9c-0.5,0-0.9-0.4-0.9-0.9V13.5c0-0.5,0.4-0.9,0.9-0.9h164.5c0.5,0,0.9,0.4,0.9,0.9v54.6
		C179.2,68.6,178.7,69.1,178.2,69.1z"/>
	<path class="st12" d="M91.5,55.4H17.1c-0.5,0-0.9-0.4-0.9-0.9V42c0-0.5,0.4-0.9,0.9-0.9h74.4c0.5,0,0.9,0.4,0.9,0.9v12.5
		C92.5,54.9,92,55.4,91.5,55.4z"/>
	<path class="st13" d="M173.6,55.4H97c-0.5,0-0.9-0.4-0.9-0.9V42c0-0.5,0.4-0.9,0.9-0.9h76.5c0.5,0,0.9,0.4,0.9,0.9v12.5
		C174.5,54.9,174.1,55.4,173.6,55.4z"/>
	<path class="st4" d="M51.1,26.3H17.1c-0.5,0-0.9-0.4-0.9-0.9v-9c0-0.5,0.4-0.9,0.9-0.9h33.9c0.5,0,0.9,0.4,0.9,0.9v9
		C51.9,25.9,51.6,26.3,51.1,26.3z"/>
	<path class="st4" d="M97.9,26.3H55.1c-0.5,0-0.9-0.4-0.9-0.9v-9c0-0.5,0.4-0.9,0.9-0.9h42.8c0.5,0,0.9,0.4,0.9,0.9v9
		C98.9,25.9,98.4,26.3,97.9,26.3z"/>
	<path class="st4" d="M51.1,39.1H17.1c-0.5,0-0.9-0.4-0.9-0.9v-9c0-0.5,0.4-0.9,0.9-0.9h33.9c0.5,0,0.9,0.4,0.9,0.9v9
		C51.9,38.7,51.6,39.1,51.1,39.1z"/>
	<path class="st4" d="M97.9,39.1H55.1c-0.5,0-0.9-0.4-0.9-0.9v-9c0-0.5,0.4-0.9,0.9-0.9h42.8c0.5,0,0.9,0.4,0.9,0.9v9
		C98.9,38.7,98.4,39.1,97.9,39.1z"/>
	<path class="st4" d="M173.3,26.3h-71.2c-0.5,0-0.9-0.4-0.9-0.9v-9c0-0.5,0.4-0.9,0.9-0.9h71.2c0.5,0,0.9,0.4,0.9,0.9v9
		C174.3,25.9,173.8,26.3,173.3,26.3z"/>
	<path class="st4" d="M173.3,39.1h-71.2c-0.5,0-0.9-0.4-0.9-0.9v-9c0-0.5,0.4-0.9,0.9-0.9h71.2c0.5,0,0.9,0.4,0.9,0.9v9
		C174.3,38.7,173.8,39.1,173.3,39.1z"/>
</g>
<path class="st1" d="M488.7,40h-60.8c-0.5,0-0.9-0.3-0.9-0.4V12.3c0-0.3,0.4-0.4,0.9-0.4h60.8c0.5,0,0.9,0.3,0.9,0.4v27.2
	C489.6,39.8,489.2,40,488.7,40z"/>
<g>
	<path class="st14" d="M443.3,20.9c-0.1-1.6-1-3-3.5-2.9c-1.9,0.1-2.8,2-2.8,3.3c0,1.1,0.8,3,3.3,5.9c1.1,1.1,1.5,2.1,1.5,3.4
		c0,0.6-0.8,1.8-1.5,1.8s-0.9-1.1-0.9-1.8c0-0.8,0.4-1.8-0.3-2c-1.3-0.4-2,0.1-1.8,2.4c0.3,1.8,1.1,3.1,3.3,3.1c2.1,0,3-1.9,3-4
		s-2.4-4.6-3.3-5.6c-0.9-1-1.4-2-1.4-3c0-1,0.5-1.6,1.1-1.6c0.6,0,1.1,1.1,1.1,1.9c0,1.1,0.4,1.4,1.1,1.4
		C443.2,23.2,443.5,22.4,443.3,20.9z"/>
	<path class="st14" d="M451.1,17.8c-0.5,0-0.9,0.5-0.9,1.3c0,0.8,0,4.9,0,6.5c0,3.5,0.6,7.3,0.8,8.3c0.1,0.5,0.5,0.8,0.9,0.8
		s1,0,0.9-1.5c-0.1-2-0.5-4.9-0.6-8.3c0-1.4,0.1-5.4,0-5.9C452.2,18.2,452,17.8,451.1,17.8z"/>
	<path class="st14" d="M458.2,17.7c0,0-0.1,1.3,0.6,1.3c0.8,0,2,0,2,0s0.4-0.1,0.4,0.3s0,6.4,0,6.4s0.5,7,0.5,7.5
		c0,0.6,0.3,1.1,1,1.1c0.9,0,0.8-1.1,0.8-1.6c0-0.4-0.1-10.8-0.1-13.5c0-0.3,0-0.6,0.8-0.6s2-0.1,2.5-0.1c0.8,0,0.8-0.5,0.8-1
		c0-0.5,0-1.3-1.5-1c-0.6,0-6.1,0.5-6.8,0.5C458.5,16.9,458.2,17.3,458.2,17.7z"/>
	<path class="st14" d="M465.8,19.4c-0.5,0-1,0.4-1,1.1c0,0.4,0.1,0.9,0.1,0.9s0.1,0.8,1.4,0.8c0.6,0,0.6-1.1,0.6-1.3
		C467,20,467.1,19.4,465.8,19.4z"/>
	<path class="st14" d="M465.6,23.7c-0.8,0-0.9,0.3-0.9,1.9c0,1.5,0.1,4,0.3,4.8c0,1.1,0.3,1.5,1.1,1.5c0.9,0,0.9-0.6,0.9-1.6
		s-0.3-4.6-0.4-5.4C466.6,23.8,466.3,23.7,465.6,23.7z"/>
	<path class="st14" d="M470.5,18.2c-1.3,0-2.4,1.6-2.4,3.5c0,1.9,0.1,7.5,1,10.3c0.5,1.5,1.4,2.5,3,2.3c0.9,0,2.1-1.1,1.9-3.8
		c0-0.9,0-2-0.5-2.3c-0.5-0.4-1.8,0.3-1.5,1.4c0.3,1.1,0.5,2.3-0.1,2.8c-0.5,0.5-0.9,0.4-1.3-0.3c-0.4-0.6-1.3-7.4-0.9-10.4
		c0.1-0.6,0.3-1.1,0.8-1.1c0.1,0,0.8,0.1,0.8,1c0,0.8,0.6,1,1.1,0.9c0.8,0,0.9-0.4,0.5-2.3C472.9,18.7,472,18.2,470.5,18.2z"/>
	<path class="st14" d="M477.3,18.3c-0.8,0-1.1,0.1-1.9,0.1c-0.5,0-0.6,0.8-0.6,1.8c0,1,0.5,10.8,0.9,12.5c0.1,0.5,0.3,1.1,1.3,1.1
		c1,0,2.3-0.1,2.8-0.5c0.5-0.3,0.4-0.9,0.3-1.3c-0.1-0.5-0.6-0.6-1.3-0.5c-1,0.3-1.4,0-1.5-0.8c-0.1-1-0.4-3.1-0.5-3.9
		c0-0.3,0-0.4,0.9-0.5c0.9-0.1,1.4,0,1.4-0.6s0-0.6-0.1-1.3c-0.1-0.5-0.9-0.3-1.9-0.3c-0.3,0-0.4-0.1-0.4-0.6s0-3,0.1-3.3
		c0.1-0.3,0.1-0.4,0.8-0.5c0.6,0,1.4,0.1,1.5-0.4c0.1-0.5,0.1-0.9-0.1-1.1C478.5,18.2,477.8,18.3,477.3,18.3z"/>
	<path class="st14" d="M446.3,20.4c-0.5,0-1.3,0.5-1.6,1.8c-0.8,2-0.6,4-0.6,6c-0.1,2.3,0.8,4.6,2.9,4.6c2.4,0,2.4-4.3,2.4-6.4
		S448.7,20.4,446.3,20.4z M447.2,30.6c-0.6,0.8-1.3,0.1-1.5-0.4c-0.5-2.4-0.1-5.5,0-6.1c0.4-1.8,1.5-1.4,1.8-0.4
		C448.1,25.7,447.9,29.8,447.2,30.6z"/>
	<path class="st14" d="M459,22.3c-0.1-1.4-0.9-2.6-3-2.5c-1.8,0.1-2.4,1.9-2.4,2.9s1.1,3.3,2.6,5.3c0.9,1.4,2.1,2.9,2.1,5
		c0,0.5-0.1,1.4-1.1,1.5c-0.5,0-0.9-0.5-0.8-1.6c0-0.6,0.4-1.5-0.3-1.8c-1.1-0.4-1.9,0.1-1.5,2.1c0.3,1.6,1,2.8,2.9,2.8
		c2.3,0,2.8-1.6,2.8-3.5c0-1.9-1.4-3.6-2.4-5.3c-0.9-1.3-2.5-3.5-2.5-4.4s0.4-1.4,1-1.4s1,1,1,1.6c0,1,0.4,1.3,0.9,1.3
		C459,24.2,459.3,23.5,459,22.3z"/>
</g>
<circle class="st0" cx="234.8" cy="84.9" r="7.6"/>
<circle class="st0" cx="265.6" cy="84.9" r="7.6"/>
<circle class="st3" cx="249.7" cy="52" r="11.1"/>
<path id="Head_x5F_Button" class="st9" d="M280.5,39.9h-61.8c-0.9,0-1.6-0.8-1.6-1.6V24c0-0.9,0.8-1.6,1.6-1.6h61.8
	c0.9,0,1.6,0.8,1.6,1.6v14.3C282.3,39.1,281.5,39.9,280.5,39.9z"/>
<circle class="st3" cx="283.6" cy="99.9" r="5.9"/>
<circle class="st3" cx="218.1" cy="99.6" r="5.9"/>
<circle class="st3" cx="194.2" cy="88.2" r="5.8"/>
<circle class="st3" cx="308.6" cy="91.6" r="5.9"/>
</svg>
